<?xml version="1.0" encoding="utf-8" standalone="no"?>
<!DOCTYPE svg PUBLIC "-//W3C//DTD SVG 1.1//EN"
  "http://www.w3.org/Graphics/SVG/1.1/DTD/svg11.dtd">
<!-- Created with matplotlib (https://matplotlib.org/) -->
<svg height="288pt" version="1.1" viewBox="0 0 432 288" width="432pt" xmlns="http://www.w3.org/2000/svg" xmlns:xlink="http://www.w3.org/1999/xlink">
 <defs>
  <style type="text/css">
*{stroke-linecap:butt;stroke-linejoin:round;}
  </style>
 </defs>
 <g id="figure_1">
  <g id="patch_1">
   <path d="M 0 288 
L 432 288 
L 432 0 
L 0 0 
z
" style="fill:#ffffff;"/>
  </g>
  <g id="axes_1">
   <g id="patch_2">
    <path d="M 54 252 
L 388.8 252 
L 388.8 34.56 
L 54 34.56 
z
" style="fill:#ffffff;"/>
   </g>
   <g id="matplotlib.axis_1">
    <g id="xtick_1">
     <g id="line2d_1">
      <defs>
       <path d="M 0 0 
L 0 3.5 
" id="md2b92c1337" style="stroke:#000000;stroke-width:0.8;"/>
      </defs>
      <g>
       <use style="stroke:#000000;stroke-width:0.8;" x="69.218182" xlink:href="#md2b92c1337" y="252"/>
      </g>
     </g>
     <g id="text_1">
      <!-- 0 -->
      <defs>
       <path d="M 31.78125 66.40625 
Q 24.171875 66.40625 20.328125 58.90625 
Q 16.5 51.421875 16.5 36.375 
Q 16.5 21.390625 20.328125 13.890625 
Q 24.171875 6.390625 31.78125 6.390625 
Q 39.453125 6.390625 43.28125 13.890625 
Q 47.125 21.390625 47.125 36.375 
Q 47.125 51.421875 43.28125 58.90625 
Q 39.453125 66.40625 31.78125 66.40625 
z
M 31.78125 74.21875 
Q 44.046875 74.21875 50.515625 64.515625 
Q 56.984375 54.828125 56.984375 36.375 
Q 56.984375 17.96875 50.515625 8.265625 
Q 44.046875 -1.421875 31.78125 -1.421875 
Q 19.53125 -1.421875 13.0625 8.265625 
Q 6.59375 17.96875 6.59375 36.375 
Q 6.59375 54.828125 13.0625 64.515625 
Q 19.53125 74.21875 31.78125 74.21875 
z
" id="DejaVuSans-48"/>
      </defs>
      <g transform="translate(64.446307 270.397656)scale(0.15 -0.15)">
       <use xlink:href="#DejaVuSans-48"/>
      </g>
     </g>
    </g>
    <g id="xtick_2">
     <g id="line2d_2">
      <g>
       <use style="stroke:#000000;stroke-width:0.8;" x="163.157576" xlink:href="#md2b92c1337" y="252"/>
      </g>
     </g>
     <g id="text_2">
      <!-- 50 -->
      <defs>
       <path d="M 10.796875 72.90625 
L 49.515625 72.90625 
L 49.515625 64.59375 
L 19.828125 64.59375 
L 19.828125 46.734375 
Q 21.96875 47.46875 24.109375 47.828125 
Q 26.265625 48.1875 28.421875 48.1875 
Q 40.625 48.1875 47.75 41.5 
Q 54.890625 34.8125 54.890625 23.390625 
Q 54.890625 11.625 47.5625 5.09375 
Q 40.234375 -1.421875 26.90625 -1.421875 
Q 22.3125 -1.421875 17.546875 -0.640625 
Q 12.796875 0.140625 7.71875 1.703125 
L 7.71875 11.625 
Q 12.109375 9.234375 16.796875 8.0625 
Q 21.484375 6.890625 26.703125 6.890625 
Q 35.15625 6.890625 40.078125 11.328125 
Q 45.015625 15.765625 45.015625 23.390625 
Q 45.015625 31 40.078125 35.4375 
Q 35.15625 39.890625 26.703125 39.890625 
Q 22.75 39.890625 18.8125 39.015625 
Q 14.890625 38.140625 10.796875 36.28125 
z
" id="DejaVuSans-53"/>
      </defs>
      <g transform="translate(153.613826 270.397656)scale(0.15 -0.15)">
       <use xlink:href="#DejaVuSans-53"/>
       <use x="63.623047" xlink:href="#DejaVuSans-48"/>
      </g>
     </g>
    </g>
    <g id="xtick_3">
     <g id="line2d_3">
      <g>
       <use style="stroke:#000000;stroke-width:0.8;" x="257.09697" xlink:href="#md2b92c1337" y="252"/>
      </g>
     </g>
     <g id="text_3">
      <!-- 100 -->
      <defs>
       <path d="M 12.40625 8.296875 
L 28.515625 8.296875 
L 28.515625 63.921875 
L 10.984375 60.40625 
L 10.984375 69.390625 
L 28.421875 72.90625 
L 38.28125 72.90625 
L 38.28125 8.296875 
L 54.390625 8.296875 
L 54.390625 0 
L 12.40625 0 
z
" id="DejaVuSans-49"/>
      </defs>
      <g transform="translate(242.781345 270.397656)scale(0.15 -0.15)">
       <use xlink:href="#DejaVuSans-49"/>
       <use x="63.623047" xlink:href="#DejaVuSans-48"/>
       <use x="127.246094" xlink:href="#DejaVuSans-48"/>
      </g>
     </g>
    </g>
    <g id="xtick_4">
     <g id="line2d_4">
      <g>
       <use style="stroke:#000000;stroke-width:0.8;" x="351.036364" xlink:href="#md2b92c1337" y="252"/>
      </g>
     </g>
     <g id="text_4">
      <!-- 150 -->
      <g transform="translate(336.720739 270.397656)scale(0.15 -0.15)">
       <use xlink:href="#DejaVuSans-49"/>
       <use x="63.623047" xlink:href="#DejaVuSans-53"/>
       <use x="127.246094" xlink:href="#DejaVuSans-48"/>
      </g>
     </g>
    </g>
    <g id="text_5">
     <!-- Date -->
     <defs>
      <path d="M 19.671875 64.796875 
L 19.671875 8.109375 
L 31.59375 8.109375 
Q 46.6875 8.109375 53.6875 14.9375 
Q 60.6875 21.78125 60.6875 36.53125 
Q 60.6875 51.171875 53.6875 57.984375 
Q 46.6875 64.796875 31.59375 64.796875 
z
M 9.8125 72.90625 
L 30.078125 72.90625 
Q 51.265625 72.90625 61.171875 64.09375 
Q 71.09375 55.28125 71.09375 36.53125 
Q 71.09375 17.671875 61.125 8.828125 
Q 51.171875 0 30.078125 0 
L 9.8125 0 
z
" id="DejaVuSans-68"/>
      <path d="M 34.28125 27.484375 
Q 23.390625 27.484375 19.1875 25 
Q 14.984375 22.515625 14.984375 16.5 
Q 14.984375 11.71875 18.140625 8.90625 
Q 21.296875 6.109375 26.703125 6.109375 
Q 34.1875 6.109375 38.703125 11.40625 
Q 43.21875 16.703125 43.21875 25.484375 
L 43.21875 27.484375 
z
M 52.203125 31.203125 
L 52.203125 0 
L 43.21875 0 
L 43.21875 8.296875 
Q 40.140625 3.328125 35.546875 0.953125 
Q 30.953125 -1.421875 24.3125 -1.421875 
Q 15.921875 -1.421875 10.953125 3.296875 
Q 6 8.015625 6 15.921875 
Q 6 25.140625 12.171875 29.828125 
Q 18.359375 34.515625 30.609375 34.515625 
L 43.21875 34.515625 
L 43.21875 35.40625 
Q 43.21875 41.609375 39.140625 45 
Q 35.0625 48.390625 27.6875 48.390625 
Q 23 48.390625 18.546875 47.265625 
Q 14.109375 46.140625 10.015625 43.890625 
L 10.015625 52.203125 
Q 14.9375 54.109375 19.578125 55.046875 
Q 24.21875 56 28.609375 56 
Q 40.484375 56 46.34375 49.84375 
Q 52.203125 43.703125 52.203125 31.203125 
z
" id="DejaVuSans-97"/>
      <path d="M 18.3125 70.21875 
L 18.3125 54.6875 
L 36.8125 54.6875 
L 36.8125 47.703125 
L 18.3125 47.703125 
L 18.3125 18.015625 
Q 18.3125 11.328125 20.140625 9.421875 
Q 21.96875 7.515625 27.59375 7.515625 
L 36.8125 7.515625 
L 36.8125 0 
L 27.59375 0 
Q 17.1875 0 13.234375 3.875 
Q 9.28125 7.765625 9.28125 18.015625 
L 9.28125 47.703125 
L 2.6875 47.703125 
L 2.6875 54.6875 
L 9.28125 54.6875 
L 9.28125 70.21875 
z
" id="DejaVuSans-116"/>
      <path d="M 56.203125 29.59375 
L 56.203125 25.203125 
L 14.890625 25.203125 
Q 15.484375 15.921875 20.484375 11.0625 
Q 25.484375 6.203125 34.421875 6.203125 
Q 39.59375 6.203125 44.453125 7.46875 
Q 49.3125 8.734375 54.109375 11.28125 
L 54.109375 2.78125 
Q 49.265625 0.734375 44.1875 -0.34375 
Q 39.109375 -1.421875 33.890625 -1.421875 
Q 20.796875 -1.421875 13.15625 6.1875 
Q 5.515625 13.8125 5.515625 26.8125 
Q 5.515625 40.234375 12.765625 48.109375 
Q 20.015625 56 32.328125 56 
Q 43.359375 56 49.78125 48.890625 
Q 56.203125 41.796875 56.203125 29.59375 
z
M 47.21875 32.234375 
Q 47.125 39.59375 43.09375 43.984375 
Q 39.0625 48.390625 32.421875 48.390625 
Q 24.90625 48.390625 20.390625 44.140625 
Q 15.875 39.890625 15.1875 32.171875 
z
" id="DejaVuSans-101"/>
     </defs>
     <g transform="translate(203.473828 288.914844)scale(0.15 -0.15)">
      <use xlink:href="#DejaVuSans-68"/>
      <use x="77.001953" xlink:href="#DejaVuSans-97"/>
      <use x="138.28125" xlink:href="#DejaVuSans-116"/>
      <use x="177.490234" xlink:href="#DejaVuSans-101"/>
     </g>
    </g>
   </g>
   <g id="matplotlib.axis_2">
    <g id="ytick_1">
     <g id="line2d_5">
      <defs>
       <path d="M 0 0 
L -3.5 0 
" id="m8c4cbe1d77" style="stroke:#000000;stroke-width:0.8;"/>
      </defs>
      <g>
       <use style="stroke:#000000;stroke-width:0.8;" x="54" xlink:href="#m8c4cbe1d77" y="242.134277"/>
      </g>
     </g>
     <g id="text_6">
      <!-- 0 -->
      <g transform="translate(37.45625 247.833105)scale(0.15 -0.15)">
       <use xlink:href="#DejaVuSans-48"/>
      </g>
     </g>
    </g>
    <g id="ytick_2">
     <g id="line2d_6">
      <g>
       <use style="stroke:#000000;stroke-width:0.8;" x="54" xlink:href="#m8c4cbe1d77" y="206.307768"/>
      </g>
     </g>
     <g id="text_7">
      <!-- 2000 -->
      <defs>
       <path d="M 19.1875 8.296875 
L 53.609375 8.296875 
L 53.609375 0 
L 7.328125 0 
L 7.328125 8.296875 
Q 12.9375 14.109375 22.625 23.890625 
Q 32.328125 33.6875 34.8125 36.53125 
Q 39.546875 41.84375 41.421875 45.53125 
Q 43.3125 49.21875 43.3125 52.78125 
Q 43.3125 58.59375 39.234375 62.25 
Q 35.15625 65.921875 28.609375 65.921875 
Q 23.96875 65.921875 18.8125 64.3125 
Q 13.671875 62.703125 7.8125 59.421875 
L 7.8125 69.390625 
Q 13.765625 71.78125 18.9375 73 
Q 24.125 74.21875 28.421875 74.21875 
Q 39.75 74.21875 46.484375 68.546875 
Q 53.21875 62.890625 53.21875 53.421875 
Q 53.21875 48.921875 51.53125 44.890625 
Q 49.859375 40.875 45.40625 35.40625 
Q 44.1875 33.984375 37.640625 27.21875 
Q 31.109375 20.453125 19.1875 8.296875 
z
" id="DejaVuSans-50"/>
      </defs>
      <g transform="translate(8.825 212.006596)scale(0.15 -0.15)">
       <use xlink:href="#DejaVuSans-50"/>
       <use x="63.623047" xlink:href="#DejaVuSans-48"/>
       <use x="127.246094" xlink:href="#DejaVuSans-48"/>
       <use x="190.869141" xlink:href="#DejaVuSans-48"/>
      </g>
     </g>
    </g>
    <g id="ytick_3">
     <g id="line2d_7">
      <g>
       <use style="stroke:#000000;stroke-width:0.8;" x="54" xlink:href="#m8c4cbe1d77" y="170.48126"/>
      </g>
     </g>
     <g id="text_8">
      <!-- 4000 -->
      <defs>
       <path d="M 37.796875 64.3125 
L 12.890625 25.390625 
L 37.796875 25.390625 
z
M 35.203125 72.90625 
L 47.609375 72.90625 
L 47.609375 25.390625 
L 58.015625 25.390625 
L 58.015625 17.1875 
L 47.609375 17.1875 
L 47.609375 0 
L 37.796875 0 
L 37.796875 17.1875 
L 4.890625 17.1875 
L 4.890625 26.703125 
z
" id="DejaVuSans-52"/>
      </defs>
      <g transform="translate(8.825 176.180088)scale(0.15 -0.15)">
       <use xlink:href="#DejaVuSans-52"/>
       <use x="63.623047" xlink:href="#DejaVuSans-48"/>
       <use x="127.246094" xlink:href="#DejaVuSans-48"/>
       <use x="190.869141" xlink:href="#DejaVuSans-48"/>
      </g>
     </g>
    </g>
    <g id="ytick_4">
     <g id="line2d_8">
      <g>
       <use style="stroke:#000000;stroke-width:0.8;" x="54" xlink:href="#m8c4cbe1d77" y="134.654751"/>
      </g>
     </g>
     <g id="text_9">
      <!-- 6000 -->
      <defs>
       <path d="M 33.015625 40.375 
Q 26.375 40.375 22.484375 35.828125 
Q 18.609375 31.296875 18.609375 23.390625 
Q 18.609375 15.53125 22.484375 10.953125 
Q 26.375 6.390625 33.015625 6.390625 
Q 39.65625 6.390625 43.53125 10.953125 
Q 47.40625 15.53125 47.40625 23.390625 
Q 47.40625 31.296875 43.53125 35.828125 
Q 39.65625 40.375 33.015625 40.375 
z
M 52.59375 71.296875 
L 52.59375 62.3125 
Q 48.875 64.0625 45.09375 64.984375 
Q 41.3125 65.921875 37.59375 65.921875 
Q 27.828125 65.921875 22.671875 59.328125 
Q 17.53125 52.734375 16.796875 39.40625 
Q 19.671875 43.65625 24.015625 45.921875 
Q 28.375 48.1875 33.59375 48.1875 
Q 44.578125 48.1875 50.953125 41.515625 
Q 57.328125 34.859375 57.328125 23.390625 
Q 57.328125 12.15625 50.6875 5.359375 
Q 44.046875 -1.421875 33.015625 -1.421875 
Q 20.359375 -1.421875 13.671875 8.265625 
Q 6.984375 17.96875 6.984375 36.375 
Q 6.984375 53.65625 15.1875 63.9375 
Q 23.390625 74.21875 37.203125 74.21875 
Q 40.921875 74.21875 44.703125 73.484375 
Q 48.484375 72.75 52.59375 71.296875 
z
" id="DejaVuSans-54"/>
      </defs>
      <g transform="translate(8.825 140.353579)scale(0.15 -0.15)">
       <use xlink:href="#DejaVuSans-54"/>
       <use x="63.623047" xlink:href="#DejaVuSans-48"/>
       <use x="127.246094" xlink:href="#DejaVuSans-48"/>
       <use x="190.869141" xlink:href="#DejaVuSans-48"/>
      </g>
     </g>
    </g>
    <g id="ytick_5">
     <g id="line2d_9">
      <g>
       <use style="stroke:#000000;stroke-width:0.8;" x="54" xlink:href="#m8c4cbe1d77" y="98.828242"/>
      </g>
     </g>
     <g id="text_10">
      <!-- 8000 -->
      <defs>
       <path d="M 31.78125 34.625 
Q 24.75 34.625 20.71875 30.859375 
Q 16.703125 27.09375 16.703125 20.515625 
Q 16.703125 13.921875 20.71875 10.15625 
Q 24.75 6.390625 31.78125 6.390625 
Q 38.8125 6.390625 42.859375 10.171875 
Q 46.921875 13.96875 46.921875 20.515625 
Q 46.921875 27.09375 42.890625 30.859375 
Q 38.875 34.625 31.78125 34.625 
z
M 21.921875 38.8125 
Q 15.578125 40.375 12.03125 44.71875 
Q 8.5 49.078125 8.5 55.328125 
Q 8.5 64.0625 14.71875 69.140625 
Q 20.953125 74.21875 31.78125 74.21875 
Q 42.671875 74.21875 48.875 69.140625 
Q 55.078125 64.0625 55.078125 55.328125 
Q 55.078125 49.078125 51.53125 44.71875 
Q 48 40.375 41.703125 38.8125 
Q 48.828125 37.15625 52.796875 32.3125 
Q 56.78125 27.484375 56.78125 20.515625 
Q 56.78125 9.90625 50.3125 4.234375 
Q 43.84375 -1.421875 31.78125 -1.421875 
Q 19.734375 -1.421875 13.25 4.234375 
Q 6.78125 9.90625 6.78125 20.515625 
Q 6.78125 27.484375 10.78125 32.3125 
Q 14.796875 37.15625 21.921875 38.8125 
z
M 18.3125 54.390625 
Q 18.3125 48.734375 21.84375 45.5625 
Q 25.390625 42.390625 31.78125 42.390625 
Q 38.140625 42.390625 41.71875 45.5625 
Q 45.3125 48.734375 45.3125 54.390625 
Q 45.3125 60.0625 41.71875 63.234375 
Q 38.140625 66.40625 31.78125 66.40625 
Q 25.390625 66.40625 21.84375 63.234375 
Q 18.3125 60.0625 18.3125 54.390625 
z
" id="DejaVuSans-56"/>
      </defs>
      <g transform="translate(8.825 104.527071)scale(0.15 -0.15)">
       <use xlink:href="#DejaVuSans-56"/>
       <use x="63.623047" xlink:href="#DejaVuSans-48"/>
       <use x="127.246094" xlink:href="#DejaVuSans-48"/>
       <use x="190.869141" xlink:href="#DejaVuSans-48"/>
      </g>
     </g>
    </g>
    <g id="ytick_6">
     <g id="line2d_10">
      <g>
       <use style="stroke:#000000;stroke-width:0.8;" x="54" xlink:href="#m8c4cbe1d77" y="63.001734"/>
      </g>
     </g>
     <g id="text_11">
      <!-- 10000 -->
      <g transform="translate(-0.71875 68.700562)scale(0.15 -0.15)">
       <use xlink:href="#DejaVuSans-49"/>
       <use x="63.623047" xlink:href="#DejaVuSans-48"/>
       <use x="127.246094" xlink:href="#DejaVuSans-48"/>
       <use x="190.869141" xlink:href="#DejaVuSans-48"/>
       <use x="254.492188" xlink:href="#DejaVuSans-48"/>
      </g>
     </g>
    </g>
    <g id="text_12">
     <!-- Fatalities (Cum) -->
     <defs>
      <path d="M 9.8125 72.90625 
L 51.703125 72.90625 
L 51.703125 64.59375 
L 19.671875 64.59375 
L 19.671875 43.109375 
L 48.578125 43.109375 
L 48.578125 34.8125 
L 19.671875 34.8125 
L 19.671875 0 
L 9.8125 0 
z
" id="DejaVuSans-70"/>
      <path d="M 9.421875 75.984375 
L 18.40625 75.984375 
L 18.40625 0 
L 9.421875 0 
z
" id="DejaVuSans-108"/>
      <path d="M 9.421875 54.6875 
L 18.40625 54.6875 
L 18.40625 0 
L 9.421875 0 
z
M 9.421875 75.984375 
L 18.40625 75.984375 
L 18.40625 64.59375 
L 9.421875 64.59375 
z
" id="DejaVuSans-105"/>
      <path d="M 44.28125 53.078125 
L 44.28125 44.578125 
Q 40.484375 46.53125 36.375 47.5 
Q 32.28125 48.484375 27.875 48.484375 
Q 21.1875 48.484375 17.84375 46.4375 
Q 14.5 44.390625 14.5 40.28125 
Q 14.5 37.15625 16.890625 35.375 
Q 19.28125 33.59375 26.515625 31.984375 
L 29.59375 31.296875 
Q 39.15625 29.25 43.1875 25.515625 
Q 47.21875 21.78125 47.21875 15.09375 
Q 47.21875 7.46875 41.1875 3.015625 
Q 35.15625 -1.421875 24.609375 -1.421875 
Q 20.21875 -1.421875 15.453125 -0.5625 
Q 10.6875 0.296875 5.421875 2 
L 5.421875 11.28125 
Q 10.40625 8.6875 15.234375 7.390625 
Q 20.0625 6.109375 24.8125 6.109375 
Q 31.15625 6.109375 34.5625 8.28125 
Q 37.984375 10.453125 37.984375 14.40625 
Q 37.984375 18.0625 35.515625 20.015625 
Q 33.0625 21.96875 24.703125 23.78125 
L 21.578125 24.515625 
Q 13.234375 26.265625 9.515625 29.90625 
Q 5.8125 33.546875 5.8125 39.890625 
Q 5.8125 47.609375 11.28125 51.796875 
Q 16.75 56 26.8125 56 
Q 31.78125 56 36.171875 55.265625 
Q 40.578125 54.546875 44.28125 53.078125 
z
" id="DejaVuSans-115"/>
      <path id="DejaVuSans-32"/>
      <path d="M 31 75.875 
Q 24.46875 64.65625 21.28125 53.65625 
Q 18.109375 42.671875 18.109375 31.390625 
Q 18.109375 20.125 21.3125 9.0625 
Q 24.515625 -2 31 -13.1875 
L 23.1875 -13.1875 
Q 15.875 -1.703125 12.234375 9.375 
Q 8.59375 20.453125 8.59375 31.390625 
Q 8.59375 42.28125 12.203125 53.3125 
Q 15.828125 64.359375 23.1875 75.875 
z
" id="DejaVuSans-40"/>
      <path d="M 64.40625 67.28125 
L 64.40625 56.890625 
Q 59.421875 61.53125 53.78125 63.8125 
Q 48.140625 66.109375 41.796875 66.109375 
Q 29.296875 66.109375 22.65625 58.46875 
Q 16.015625 50.828125 16.015625 36.375 
Q 16.015625 21.96875 22.65625 14.328125 
Q 29.296875 6.6875 41.796875 6.6875 
Q 48.140625 6.6875 53.78125 8.984375 
Q 59.421875 11.28125 64.40625 15.921875 
L 64.40625 5.609375 
Q 59.234375 2.09375 53.4375 0.328125 
Q 47.65625 -1.421875 41.21875 -1.421875 
Q 24.65625 -1.421875 15.125 8.703125 
Q 5.609375 18.84375 5.609375 36.375 
Q 5.609375 53.953125 15.125 64.078125 
Q 24.65625 74.21875 41.21875 74.21875 
Q 47.75 74.21875 53.53125 72.484375 
Q 59.328125 70.75 64.40625 67.28125 
z
" id="DejaVuSans-67"/>
      <path d="M 8.5 21.578125 
L 8.5 54.6875 
L 17.484375 54.6875 
L 17.484375 21.921875 
Q 17.484375 14.15625 20.5 10.265625 
Q 23.53125 6.390625 29.59375 6.390625 
Q 36.859375 6.390625 41.078125 11.03125 
Q 45.3125 15.671875 45.3125 23.6875 
L 45.3125 54.6875 
L 54.296875 54.6875 
L 54.296875 0 
L 45.3125 0 
L 45.3125 8.40625 
Q 42.046875 3.421875 37.71875 1 
Q 33.40625 -1.421875 27.6875 -1.421875 
Q 18.265625 -1.421875 13.375 4.4375 
Q 8.5 10.296875 8.5 21.578125 
z
M 31.109375 56 
z
" id="DejaVuSans-117"/>
      <path d="M 52 44.1875 
Q 55.375 50.25 60.0625 53.125 
Q 64.75 56 71.09375 56 
Q 79.640625 56 84.28125 50.015625 
Q 88.921875 44.046875 88.921875 33.015625 
L 88.921875 0 
L 79.890625 0 
L 79.890625 32.71875 
Q 79.890625 40.578125 77.09375 44.375 
Q 74.3125 48.1875 68.609375 48.1875 
Q 61.625 48.1875 57.5625 43.546875 
Q 53.515625 38.921875 53.515625 30.90625 
L 53.515625 0 
L 44.484375 0 
L 44.484375 32.71875 
Q 44.484375 40.625 41.703125 44.40625 
Q 38.921875 48.1875 33.109375 48.1875 
Q 26.21875 48.1875 22.15625 43.53125 
Q 18.109375 38.875 18.109375 30.90625 
L 18.109375 0 
L 9.078125 0 
L 9.078125 54.6875 
L 18.109375 54.6875 
L 18.109375 46.1875 
Q 21.1875 51.21875 25.484375 53.609375 
Q 29.78125 56 35.6875 56 
Q 41.65625 56 45.828125 52.96875 
Q 50 49.953125 52 44.1875 
z
" id="DejaVuSans-109"/>
      <path d="M 8.015625 75.875 
L 15.828125 75.875 
Q 23.140625 64.359375 26.78125 53.3125 
Q 30.421875 42.28125 30.421875 31.390625 
Q 30.421875 20.453125 26.78125 9.375 
Q 23.140625 -1.703125 15.828125 -13.1875 
L 8.015625 -13.1875 
Q 14.5 -2 17.703125 9.0625 
Q 20.90625 20.125 20.90625 31.390625 
Q 20.90625 42.671875 17.703125 53.65625 
Q 14.5 64.65625 8.015625 75.875 
z
" id="DejaVuSans-41"/>
     </defs>
     <g transform="translate(-7.838281 202.960078)rotate(-90)scale(0.15 -0.15)">
      <use xlink:href="#DejaVuSans-70"/>
      <use x="57.378906" xlink:href="#DejaVuSans-97"/>
      <use x="118.658203" xlink:href="#DejaVuSans-116"/>
      <use x="157.867188" xlink:href="#DejaVuSans-97"/>
      <use x="219.146484" xlink:href="#DejaVuSans-108"/>
      <use x="246.929688" xlink:href="#DejaVuSans-105"/>
      <use x="274.712891" xlink:href="#DejaVuSans-116"/>
      <use x="313.921875" xlink:href="#DejaVuSans-105"/>
      <use x="341.705078" xlink:href="#DejaVuSans-101"/>
      <use x="403.228516" xlink:href="#DejaVuSans-115"/>
      <use x="455.328125" xlink:href="#DejaVuSans-32"/>
      <use x="487.115234" xlink:href="#DejaVuSans-40"/>
      <use x="526.128906" xlink:href="#DejaVuSans-67"/>
      <use x="595.953125" xlink:href="#DejaVuSans-117"/>
      <use x="659.332031" xlink:href="#DejaVuSans-109"/>
      <use x="756.744141" xlink:href="#DejaVuSans-41"/>
     </g>
    </g>
   </g>
   <g id="line2d_11">
    <path clip-path="url(#p5ed5619522)" d="M 69.218182 241.394016 
L 71.09697 241.322177 
L 72.975758 241.243397 
L 74.854545 241.157013 
L 76.733333 241.062298 
L 78.612121 240.958459 
L 80.490909 240.844627 
L 82.369697 240.719854 
L 84.248485 240.583104 
L 86.127273 240.433248 
L 88.006061 240.269053 
L 89.884848 240.089173 
L 91.763636 239.892145 
L 93.642424 239.676373 
L 95.521212 239.440123 
L 97.4 239.181507 
L 99.278788 238.898479 
L 101.157576 238.588817 
L 103.036364 238.250111 
L 104.915152 237.879758 
L 106.793939 237.47494 
L 108.672727 237.032619 
L 110.551515 236.549523 
L 112.430303 236.022133 
L 114.309091 235.446672 
L 116.187879 234.819101 
L 118.066667 234.135103 
L 119.945455 233.390087 
L 121.824242 232.579177 
L 123.70303 231.697219 
L 125.581818 230.738785 
L 127.460606 229.698183 
L 129.339394 228.569475 
L 131.218182 227.346501 
L 133.09697 226.022914 
L 134.975758 224.592219 
L 136.854545 223.047832 
L 138.733333 221.383138 
L 140.612121 219.591577 
L 142.490909 217.666727 
L 144.369697 215.602415 
L 146.248485 213.392833 
L 148.127273 211.032672 
L 150.006061 208.517261 
L 151.884848 205.842727 
L 153.763636 203.006148 
L 155.642424 200.005726 
L 157.521212 196.840942 
L 159.4 193.512713 
L 161.278788 190.023538 
L 163.157576 186.377617 
L 165.036364 182.58095 
L 166.915152 178.641392 
L 168.793939 174.56868 
L 170.672727 170.374405 
L 172.551515 166.071938 
L 174.430303 161.676303 
L 176.309091 157.204002 
L 178.187879 152.672787 
L 180.066667 148.101394 
L 181.945455 143.509243 
L 183.824242 138.916108 
L 185.70303 134.341781 
L 187.581818 129.805732 
" style="fill:none;stroke:#ffa500;stroke-linecap:square;stroke-width:1.5;"/>
   </g>
   <g id="line2d_12">
    <defs>
     <path d="M 0 3 
C 0.795609 3 1.55874 2.683901 2.12132 2.12132 
C 2.683901 1.55874 3 0.795609 3 0 
C 3 -0.795609 2.683901 -1.55874 2.12132 -2.12132 
C 1.55874 -2.683901 0.795609 -3 0 -3 
C -0.795609 -3 -1.55874 -2.683901 -2.12132 -2.12132 
C -2.683901 -1.55874 -3 -0.795609 -3 0 
C -3 0.795609 -2.683901 1.55874 -2.12132 2.12132 
C -1.55874 2.683901 -0.795609 3 0 3 
z
" id="ma1bbe1ec6e" style="stroke:#0000ff;"/>
    </defs>
    <g clip-path="url(#p5ed5619522)">
     <use style="fill:#0000ff;stroke:#0000ff;" x="69.218182" xlink:href="#ma1bbe1ec6e" y="242.116364"/>
     <use style="fill:#0000ff;stroke:#0000ff;" x="71.09697" xlink:href="#ma1bbe1ec6e" y="242.09845"/>
     <use style="fill:#0000ff;stroke:#0000ff;" x="72.975758" xlink:href="#ma1bbe1ec6e" y="242.09845"/>
     <use style="fill:#0000ff;stroke:#0000ff;" x="74.854545" xlink:href="#ma1bbe1ec6e" y="242.080537"/>
     <use style="fill:#0000ff;stroke:#0000ff;" x="76.733333" xlink:href="#ma1bbe1ec6e" y="242.062624"/>
     <use style="fill:#0000ff;stroke:#0000ff;" x="78.612121" xlink:href="#ma1bbe1ec6e" y="242.044711"/>
     <use style="fill:#0000ff;stroke:#0000ff;" x="80.490909" xlink:href="#ma1bbe1ec6e" y="242.026797"/>
     <use style="fill:#0000ff;stroke:#0000ff;" x="82.369697" xlink:href="#ma1bbe1ec6e" y="241.990971"/>
     <use style="fill:#0000ff;stroke:#0000ff;" x="84.248485" xlink:href="#ma1bbe1ec6e" y="241.919318"/>
     <use style="fill:#0000ff;stroke:#0000ff;" x="86.127273" xlink:href="#ma1bbe1ec6e" y="241.847665"/>
     <use style="fill:#0000ff;stroke:#0000ff;" x="88.006061" xlink:href="#ma1bbe1ec6e" y="241.776012"/>
     <use style="fill:#0000ff;stroke:#0000ff;" x="89.884848" xlink:href="#ma1bbe1ec6e" y="241.632706"/>
     <use style="fill:#0000ff;stroke:#0000ff;" x="91.763636" xlink:href="#ma1bbe1ec6e" y="241.614793"/>
     <use style="fill:#0000ff;stroke:#0000ff;" x="93.642424" xlink:href="#ma1bbe1ec6e" y="241.471486"/>
     <use style="fill:#0000ff;stroke:#0000ff;" x="95.521212" xlink:href="#ma1bbe1ec6e" y="241.238614"/>
     <use style="fill:#0000ff;stroke:#0000ff;" x="97.4" xlink:href="#ma1bbe1ec6e" y="241.059482"/>
     <use style="fill:#0000ff;stroke:#0000ff;" x="99.278788" xlink:href="#ma1bbe1ec6e" y="240.71913"/>
     <use style="fill:#0000ff;stroke:#0000ff;" x="101.157576" xlink:href="#ma1bbe1ec6e" y="240.450431"/>
     <use style="fill:#0000ff;stroke:#0000ff;" x="103.036364" xlink:href="#ma1bbe1ec6e" y="239.89512"/>
     <use style="fill:#0000ff;stroke:#0000ff;" x="104.915152" xlink:href="#ma1bbe1ec6e" y="239.608508"/>
     <use style="fill:#0000ff;stroke:#0000ff;" x="106.793939" xlink:href="#ma1bbe1ec6e" y="239.017371"/>
     <use style="fill:#0000ff;stroke:#0000ff;" x="108.672727" xlink:href="#ma1bbe1ec6e" y="238.659106"/>
     <use style="fill:#0000ff;stroke:#0000ff;" x="110.551515" xlink:href="#ma1bbe1ec6e" y="237.960489"/>
     <use style="fill:#0000ff;stroke:#0000ff;" x="112.430303" xlink:href="#ma1bbe1ec6e" y="237.243958"/>
     <use style="fill:#0000ff;stroke:#0000ff;" x="114.309091" xlink:href="#ma1bbe1ec6e" y="236.831954"/>
     <use style="fill:#0000ff;stroke:#0000ff;" x="116.187879" xlink:href="#ma1bbe1ec6e" y="236.187076"/>
     <use style="fill:#0000ff;stroke:#0000ff;" x="118.066667" xlink:href="#ma1bbe1ec6e" y="234.861496"/>
     <use style="fill:#0000ff;stroke:#0000ff;" x="119.945455" xlink:href="#ma1bbe1ec6e" y="234.091226"/>
     <use style="fill:#0000ff;stroke:#0000ff;" x="121.824242" xlink:href="#ma1bbe1ec6e" y="233.428435"/>
     <use style="fill:#0000ff;stroke:#0000ff;" x="123.70303" xlink:href="#ma1bbe1ec6e" y="232.35364"/>
     <use style="fill:#0000ff;stroke:#0000ff;" x="125.581818" xlink:href="#ma1bbe1ec6e" y="230.490662"/>
     <use style="fill:#0000ff;stroke:#0000ff;" x="127.460606" xlink:href="#ma1bbe1ec6e" y="229.845784"/>
     <use style="fill:#0000ff;stroke:#0000ff;" x="129.339394" xlink:href="#ma1bbe1ec6e" y="229.38004"/>
     <use style="fill:#0000ff;stroke:#0000ff;" x="131.218182" xlink:href="#ma1bbe1ec6e" y="226.782618"/>
     <use style="fill:#0000ff;stroke:#0000ff;" x="133.09697" xlink:href="#ma1bbe1ec6e" y="224.75842"/>
     <use style="fill:#0000ff;stroke:#0000ff;" x="134.975758" xlink:href="#ma1bbe1ec6e" y="222.985008"/>
     <use style="fill:#0000ff;stroke:#0000ff;" x="136.854545" xlink:href="#ma1bbe1ec6e" y="220.262193"/>
     <use style="fill:#0000ff;stroke:#0000ff;" x="138.733333" xlink:href="#ma1bbe1ec6e" y="218.75748"/>
     <use style="fill:#0000ff;stroke:#0000ff;" x="140.612121" xlink:href="#ma1bbe1ec6e" y="217.93347"/>
     <use style="fill:#0000ff;stroke:#0000ff;" x="142.490909" xlink:href="#ma1bbe1ec6e" y="216.44667"/>
     <use style="fill:#0000ff;stroke:#0000ff;" x="144.369697" xlink:href="#ma1bbe1ec6e" y="214.028381"/>
     <use style="fill:#0000ff;stroke:#0000ff;" x="146.248485" xlink:href="#ma1bbe1ec6e" y="211.10852"/>
     <use style="fill:#0000ff;stroke:#0000ff;" x="148.127273" xlink:href="#ma1bbe1ec6e" y="208.833537"/>
     <use style="fill:#0000ff;stroke:#0000ff;" x="150.006061" xlink:href="#ma1bbe1ec6e" y="206.809339"/>
     <use style="fill:#0000ff;stroke:#0000ff;" x="151.884848" xlink:href="#ma1bbe1ec6e" y="205.21506"/>
     <use style="fill:#0000ff;stroke:#0000ff;" x="153.763636" xlink:href="#ma1bbe1ec6e" y="203.549127"/>
     <use style="fill:#0000ff;stroke:#0000ff;" x="155.642424" xlink:href="#ma1bbe1ec6e" y="201.453276"/>
     <use style="fill:#0000ff;stroke:#0000ff;" x="157.521212" xlink:href="#ma1bbe1ec6e" y="197.225748"/>
     <use style="fill:#0000ff;stroke:#0000ff;" x="159.4" xlink:href="#ma1bbe1ec6e" y="193.696837"/>
     <use style="fill:#0000ff;stroke:#0000ff;" x="161.278788" xlink:href="#ma1bbe1ec6e" y="189.093131"/>
     <use style="fill:#0000ff;stroke:#0000ff;" x="163.157576" xlink:href="#ma1bbe1ec6e" y="185.528393"/>
     <use style="fill:#0000ff;stroke:#0000ff;" x="165.036364" xlink:href="#ma1bbe1ec6e" y="182.071135"/>
     <use style="fill:#0000ff;stroke:#0000ff;" x="166.915152" xlink:href="#ma1bbe1ec6e" y="180.064851"/>
     <use style="fill:#0000ff;stroke:#0000ff;" x="168.793939" xlink:href="#ma1bbe1ec6e" y="178.130219"/>
     <use style="fill:#0000ff;stroke:#0000ff;" x="170.672727" xlink:href="#ma1bbe1ec6e" y="171.80684"/>
     <use style="fill:#0000ff;stroke:#0000ff;" x="172.551515" xlink:href="#ma1bbe1ec6e" y="166.540344"/>
     <use style="fill:#0000ff;stroke:#0000ff;" x="174.430303" xlink:href="#ma1bbe1ec6e" y="161.936637"/>
     <use style="fill:#0000ff;stroke:#0000ff;" x="176.309091" xlink:href="#ma1bbe1ec6e" y="156.741794"/>
     <use style="fill:#0000ff;stroke:#0000ff;" x="178.187879" xlink:href="#ma1bbe1ec6e" y="151.761909"/>
     <use style="fill:#0000ff;stroke:#0000ff;" x="180.066667" xlink:href="#ma1bbe1ec6e" y="149.397359"/>
     <use style="fill:#0000ff;stroke:#0000ff;" x="181.945455" xlink:href="#ma1bbe1ec6e" y="146.620805"/>
     <use style="fill:#0000ff;stroke:#0000ff;" x="183.824242" xlink:href="#ma1bbe1ec6e" y="140.637778"/>
     <use style="fill:#0000ff;stroke:#0000ff;" x="185.70303" xlink:href="#ma1bbe1ec6e" y="133.042558"/>
     <use style="fill:#0000ff;stroke:#0000ff;" x="187.581818" xlink:href="#ma1bbe1ec6e" y="125.518991"/>
    </g>
   </g>
   <g id="line2d_13">
    <path clip-path="url(#p5ed5619522)" d="M 187.581818 129.805732 
L 189.460606 125.326779 
L 191.339394 120.922783 
L 193.218182 116.610383 
L 195.09697 112.404756 
L 196.975758 108.319444 
L 198.854545 104.366219 
L 200.733333 100.555003 
L 202.612121 96.893839 
L 204.490909 93.388907 
L 206.369697 90.044582 
L 208.248485 86.863527 
L 210.127273 83.84681 
L 212.006061 80.994048 
L 213.884848 78.303561 
L 215.763636 75.772533 
L 217.642424 73.397176 
L 219.521212 71.172893 
L 221.4 69.09443 
L 223.278788 67.156024 
L 225.157576 65.351531 
L 227.036364 63.674551 
L 228.915152 62.118531 
L 230.793939 60.676859 
L 232.672727 59.342945 
L 234.551515 58.110282 
L 236.430303 56.972506 
L 238.309091 55.923437 
L 240.187879 54.957115 
L 242.066667 54.067822 
L 243.945455 53.250103 
L 245.824242 52.498776 
L 247.70303 51.808938 
L 249.581818 51.175969 
L 251.460606 50.595527 
L 253.339394 50.063544 
L 255.218182 49.576217 
L 257.09697 49.130004 
L 258.975758 48.721608 
L 260.854545 48.347966 
L 262.733333 48.006243 
L 264.612121 47.693811 
L 266.490909 47.408245 
L 268.369697 47.147304 
L 270.248485 46.908922 
L 272.127273 46.6912 
L 274.006061 46.492387 
L 275.884848 46.310875 
L 277.763636 46.145186 
L 279.642424 45.993965 
L 281.521212 45.855968 
L 283.4 45.730056 
L 285.278788 45.615183 
L 287.157576 45.510393 
L 289.036364 45.41481 
L 290.915152 45.327633 
L 292.793939 45.24813 
L 294.672727 45.175631 
L 296.551515 45.109522 
L 298.430303 45.049245 
L 300.309091 44.994288 
L 302.187879 44.944184 
L 304.066667 44.898506 
L 305.945455 44.856867 
L 307.824242 44.818909 
L 309.70303 44.784309 
L 311.581818 44.752771 
L 313.460606 44.724024 
L 315.339394 44.697822 
L 317.218182 44.673941 
L 319.09697 44.652176 
L 320.975758 44.632339 
L 322.854545 44.61426 
L 324.733333 44.597783 
L 326.612121 44.582767 
L 328.490909 44.569082 
L 330.369697 44.556611 
L 332.248485 44.545246 
L 334.127273 44.534889 
L 336.006061 44.52545 
L 337.884848 44.516849 
L 339.763636 44.509011 
L 341.642424 44.501868 
L 343.521212 44.495359 
L 345.4 44.489428 
L 347.278788 44.484023 
L 349.157576 44.479097 
L 351.036364 44.474609 
L 352.915152 44.470519 
L 354.793939 44.466793 
L 356.672727 44.463397 
L 358.551515 44.460302 
L 360.430303 44.457482 
L 362.309091 44.454913 
L 364.187879 44.452571 
L 366.066667 44.450437 
L 367.945455 44.448493 
L 369.824242 44.446722 
L 371.70303 44.445107 
L 373.581818 44.443636 
" style="fill:none;stroke:#ff0000;stroke-linecap:square;stroke-width:1.5;"/>
   </g>
   <g id="patch_3">
    <path d="M 54 252 
L 54 34.56 
" style="fill:none;stroke:#000000;stroke-linecap:square;stroke-linejoin:miter;stroke-width:0.8;"/>
   </g>
   <g id="patch_4">
    <path d="M 388.8 252 
L 388.8 34.56 
" style="fill:none;stroke:#000000;stroke-linecap:square;stroke-linejoin:miter;stroke-width:0.8;"/>
   </g>
   <g id="patch_5">
    <path d="M 54 252 
L 388.8 252 
" style="fill:none;stroke:#000000;stroke-linecap:square;stroke-linejoin:miter;stroke-width:0.8;"/>
   </g>
   <g id="patch_6">
    <path d="M 54 34.56 
L 388.8 34.56 
" style="fill:none;stroke:#000000;stroke-linecap:square;stroke-linejoin:miter;stroke-width:0.8;"/>
   </g>
   <g id="legend_1">
    <g id="patch_7">
     <path d="M 247.382812 178.555781 
L 378.3 178.555781 
Q 381.3 178.555781 381.3 175.555781 
L 381.3 111.004219 
Q 381.3 108.004219 378.3 108.004219 
L 247.382812 108.004219 
Q 244.382812 108.004219 244.382812 111.004219 
L 244.382812 175.555781 
Q 244.382812 178.555781 247.382812 178.555781 
z
" style="fill:#ffffff;opacity:0.8;stroke:#cccccc;stroke-linejoin:miter;"/>
    </g>
    <g id="line2d_14">
     <path d="M 250.382812 120.151875 
L 280.382812 120.151875 
" style="fill:none;stroke:#ffa500;stroke-linecap:square;stroke-width:1.5;"/>
    </g>
    <g id="line2d_15"/>
    <g id="text_13">
     <!-- Model -->
     <defs>
      <path d="M 9.8125 72.90625 
L 24.515625 72.90625 
L 43.109375 23.296875 
L 61.8125 72.90625 
L 76.515625 72.90625 
L 76.515625 0 
L 66.890625 0 
L 66.890625 64.015625 
L 48.09375 14.015625 
L 38.1875 14.015625 
L 19.390625 64.015625 
L 19.390625 0 
L 9.8125 0 
z
" id="DejaVuSans-77"/>
      <path d="M 30.609375 48.390625 
Q 23.390625 48.390625 19.1875 42.75 
Q 14.984375 37.109375 14.984375 27.296875 
Q 14.984375 17.484375 19.15625 11.84375 
Q 23.34375 6.203125 30.609375 6.203125 
Q 37.796875 6.203125 41.984375 11.859375 
Q 46.1875 17.53125 46.1875 27.296875 
Q 46.1875 37.015625 41.984375 42.703125 
Q 37.796875 48.390625 30.609375 48.390625 
z
M 30.609375 56 
Q 42.328125 56 49.015625 48.375 
Q 55.71875 40.765625 55.71875 27.296875 
Q 55.71875 13.875 49.015625 6.21875 
Q 42.328125 -1.421875 30.609375 -1.421875 
Q 18.84375 -1.421875 12.171875 6.21875 
Q 5.515625 13.875 5.515625 27.296875 
Q 5.515625 40.765625 12.171875 48.375 
Q 18.84375 56 30.609375 56 
z
" id="DejaVuSans-111"/>
      <path d="M 45.40625 46.390625 
L 45.40625 75.984375 
L 54.390625 75.984375 
L 54.390625 0 
L 45.40625 0 
L 45.40625 8.203125 
Q 42.578125 3.328125 38.25 0.953125 
Q 33.9375 -1.421875 27.875 -1.421875 
Q 17.96875 -1.421875 11.734375 6.484375 
Q 5.515625 14.40625 5.515625 27.296875 
Q 5.515625 40.1875 11.734375 48.09375 
Q 17.96875 56 27.875 56 
Q 33.9375 56 38.25 53.625 
Q 42.578125 51.265625 45.40625 46.390625 
z
M 14.796875 27.296875 
Q 14.796875 17.390625 18.875 11.75 
Q 22.953125 6.109375 30.078125 6.109375 
Q 37.203125 6.109375 41.296875 11.75 
Q 45.40625 17.390625 45.40625 27.296875 
Q 45.40625 37.203125 41.296875 42.84375 
Q 37.203125 48.484375 30.078125 48.484375 
Q 22.953125 48.484375 18.875 42.84375 
Q 14.796875 37.203125 14.796875 27.296875 
z
" id="DejaVuSans-100"/>
     </defs>
     <g transform="translate(292.382812 125.401875)scale(0.15 -0.15)">
      <use xlink:href="#DejaVuSans-77"/>
      <use x="86.279297" xlink:href="#DejaVuSans-111"/>
      <use x="147.460938" xlink:href="#DejaVuSans-100"/>
      <use x="210.9375" xlink:href="#DejaVuSans-101"/>
      <use x="272.460938" xlink:href="#DejaVuSans-108"/>
     </g>
    </g>
    <g id="line2d_16"/>
    <g id="line2d_17">
     <g>
      <use style="fill:#0000ff;stroke:#0000ff;" x="265.382812" xlink:href="#ma1bbe1ec6e" y="142.169063"/>
     </g>
    </g>
    <g id="text_14">
     <!-- Real -->
     <defs>
      <path d="M 44.390625 34.1875 
Q 47.5625 33.109375 50.5625 29.59375 
Q 53.5625 26.078125 56.59375 19.921875 
L 66.609375 0 
L 56 0 
L 46.6875 18.703125 
Q 43.0625 26.03125 39.671875 28.421875 
Q 36.28125 30.8125 30.421875 30.8125 
L 19.671875 30.8125 
L 19.671875 0 
L 9.8125 0 
L 9.8125 72.90625 
L 32.078125 72.90625 
Q 44.578125 72.90625 50.734375 67.671875 
Q 56.890625 62.453125 56.890625 51.90625 
Q 56.890625 45.015625 53.6875 40.46875 
Q 50.484375 35.9375 44.390625 34.1875 
z
M 19.671875 64.796875 
L 19.671875 38.921875 
L 32.078125 38.921875 
Q 39.203125 38.921875 42.84375 42.21875 
Q 46.484375 45.515625 46.484375 51.90625 
Q 46.484375 58.296875 42.84375 61.546875 
Q 39.203125 64.796875 32.078125 64.796875 
z
" id="DejaVuSans-82"/>
     </defs>
     <g transform="translate(292.382812 147.419063)scale(0.15 -0.15)">
      <use xlink:href="#DejaVuSans-82"/>
      <use x="69.419922" xlink:href="#DejaVuSans-101"/>
      <use x="130.943359" xlink:href="#DejaVuSans-97"/>
      <use x="192.222656" xlink:href="#DejaVuSans-108"/>
     </g>
    </g>
    <g id="line2d_18">
     <path d="M 250.382812 164.18625 
L 280.382812 164.18625 
" style="fill:none;stroke:#ff0000;stroke-linecap:square;stroke-width:1.5;"/>
    </g>
    <g id="line2d_19"/>
    <g id="text_15">
     <!-- Predictions -->
     <defs>
      <path d="M 19.671875 64.796875 
L 19.671875 37.40625 
L 32.078125 37.40625 
Q 38.96875 37.40625 42.71875 40.96875 
Q 46.484375 44.53125 46.484375 51.125 
Q 46.484375 57.671875 42.71875 61.234375 
Q 38.96875 64.796875 32.078125 64.796875 
z
M 9.8125 72.90625 
L 32.078125 72.90625 
Q 44.34375 72.90625 50.609375 67.359375 
Q 56.890625 61.8125 56.890625 51.125 
Q 56.890625 40.328125 50.609375 34.8125 
Q 44.34375 29.296875 32.078125 29.296875 
L 19.671875 29.296875 
L 19.671875 0 
L 9.8125 0 
z
" id="DejaVuSans-80"/>
      <path d="M 41.109375 46.296875 
Q 39.59375 47.171875 37.8125 47.578125 
Q 36.03125 48 33.890625 48 
Q 26.265625 48 22.1875 43.046875 
Q 18.109375 38.09375 18.109375 28.8125 
L 18.109375 0 
L 9.078125 0 
L 9.078125 54.6875 
L 18.109375 54.6875 
L 18.109375 46.1875 
Q 20.953125 51.171875 25.484375 53.578125 
Q 30.03125 56 36.53125 56 
Q 37.453125 56 38.578125 55.875 
Q 39.703125 55.765625 41.0625 55.515625 
z
" id="DejaVuSans-114"/>
      <path d="M 48.78125 52.59375 
L 48.78125 44.1875 
Q 44.96875 46.296875 41.140625 47.34375 
Q 37.3125 48.390625 33.40625 48.390625 
Q 24.65625 48.390625 19.8125 42.84375 
Q 14.984375 37.3125 14.984375 27.296875 
Q 14.984375 17.28125 19.8125 11.734375 
Q 24.65625 6.203125 33.40625 6.203125 
Q 37.3125 6.203125 41.140625 7.25 
Q 44.96875 8.296875 48.78125 10.40625 
L 48.78125 2.09375 
Q 45.015625 0.34375 40.984375 -0.53125 
Q 36.96875 -1.421875 32.421875 -1.421875 
Q 20.0625 -1.421875 12.78125 6.34375 
Q 5.515625 14.109375 5.515625 27.296875 
Q 5.515625 40.671875 12.859375 48.328125 
Q 20.21875 56 33.015625 56 
Q 37.15625 56 41.109375 55.140625 
Q 45.0625 54.296875 48.78125 52.59375 
z
" id="DejaVuSans-99"/>
      <path d="M 54.890625 33.015625 
L 54.890625 0 
L 45.90625 0 
L 45.90625 32.71875 
Q 45.90625 40.484375 42.875 44.328125 
Q 39.84375 48.1875 33.796875 48.1875 
Q 26.515625 48.1875 22.3125 43.546875 
Q 18.109375 38.921875 18.109375 30.90625 
L 18.109375 0 
L 9.078125 0 
L 9.078125 54.6875 
L 18.109375 54.6875 
L 18.109375 46.1875 
Q 21.34375 51.125 25.703125 53.5625 
Q 30.078125 56 35.796875 56 
Q 45.21875 56 50.046875 50.171875 
Q 54.890625 44.34375 54.890625 33.015625 
z
" id="DejaVuSans-110"/>
     </defs>
     <g transform="translate(292.382812 169.43625)scale(0.15 -0.15)">
      <use xlink:href="#DejaVuSans-80"/>
      <use x="60.287109" xlink:href="#DejaVuSans-114"/>
      <use x="101.369141" xlink:href="#DejaVuSans-101"/>
      <use x="162.892578" xlink:href="#DejaVuSans-100"/>
      <use x="226.369141" xlink:href="#DejaVuSans-105"/>
      <use x="254.152344" xlink:href="#DejaVuSans-99"/>
      <use x="309.132812" xlink:href="#DejaVuSans-116"/>
      <use x="348.341797" xlink:href="#DejaVuSans-105"/>
      <use x="376.125" xlink:href="#DejaVuSans-111"/>
      <use x="437.306641" xlink:href="#DejaVuSans-110"/>
      <use x="500.685547" xlink:href="#DejaVuSans-115"/>
     </g>
    </g>
   </g>
  </g>
 </g>
 <defs>
  <clipPath id="p5ed5619522">
   <rect height="217.44" width="334.8" x="54" y="34.56"/>
  </clipPath>
 </defs>
</svg>
