<?xml version="1.0" encoding="utf-8" standalone="no"?>
<!DOCTYPE svg PUBLIC "-//W3C//DTD SVG 1.1//EN"
  "http://www.w3.org/Graphics/SVG/1.1/DTD/svg11.dtd">
<!-- Created with matplotlib (https://matplotlib.org/) -->
<svg height="288pt" version="1.1" viewBox="0 0 432 288" width="432pt" xmlns="http://www.w3.org/2000/svg" xmlns:xlink="http://www.w3.org/1999/xlink">
 <defs>
  <style type="text/css">
*{stroke-linecap:butt;stroke-linejoin:round;}
  </style>
 </defs>
 <g id="figure_1">
  <g id="patch_1">
   <path d="M 0 288 
L 432 288 
L 432 0 
L 0 0 
z
" style="fill:#ffffff;"/>
  </g>
  <g id="axes_1">
   <g id="patch_2">
    <path d="M 54 252 
L 388.8 252 
L 388.8 34.56 
L 54 34.56 
z
" style="fill:#ffffff;"/>
   </g>
   <g id="matplotlib.axis_1">
    <g id="xtick_1">
     <g id="line2d_1">
      <defs>
       <path d="M 0 0 
L 0 3.5 
" id="m0cb1eb026e" style="stroke:#000000;stroke-width:0.8;"/>
      </defs>
      <g>
       <use style="stroke:#000000;stroke-width:0.8;" x="69.218182" xlink:href="#m0cb1eb026e" y="252"/>
      </g>
     </g>
     <g id="text_1">
      <!-- 0 -->
      <defs>
       <path d="M 31.78125 66.40625 
Q 24.171875 66.40625 20.328125 58.90625 
Q 16.5 51.421875 16.5 36.375 
Q 16.5 21.390625 20.328125 13.890625 
Q 24.171875 6.390625 31.78125 6.390625 
Q 39.453125 6.390625 43.28125 13.890625 
Q 47.125 21.390625 47.125 36.375 
Q 47.125 51.421875 43.28125 58.90625 
Q 39.453125 66.40625 31.78125 66.40625 
z
M 31.78125 74.21875 
Q 44.046875 74.21875 50.515625 64.515625 
Q 56.984375 54.828125 56.984375 36.375 
Q 56.984375 17.96875 50.515625 8.265625 
Q 44.046875 -1.421875 31.78125 -1.421875 
Q 19.53125 -1.421875 13.0625 8.265625 
Q 6.59375 17.96875 6.59375 36.375 
Q 6.59375 54.828125 13.0625 64.515625 
Q 19.53125 74.21875 31.78125 74.21875 
z
" id="DejaVuSans-48"/>
      </defs>
      <g transform="translate(64.446307 270.397656)scale(0.15 -0.15)">
       <use xlink:href="#DejaVuSans-48"/>
      </g>
     </g>
    </g>
    <g id="xtick_2">
     <g id="line2d_2">
      <g>
       <use style="stroke:#000000;stroke-width:0.8;" x="152.834565" xlink:href="#m0cb1eb026e" y="252"/>
      </g>
     </g>
     <g id="text_2">
      <!-- 50 -->
      <defs>
       <path d="M 10.796875 72.90625 
L 49.515625 72.90625 
L 49.515625 64.59375 
L 19.828125 64.59375 
L 19.828125 46.734375 
Q 21.96875 47.46875 24.109375 47.828125 
Q 26.265625 48.1875 28.421875 48.1875 
Q 40.625 48.1875 47.75 41.5 
Q 54.890625 34.8125 54.890625 23.390625 
Q 54.890625 11.625 47.5625 5.09375 
Q 40.234375 -1.421875 26.90625 -1.421875 
Q 22.3125 -1.421875 17.546875 -0.640625 
Q 12.796875 0.140625 7.71875 1.703125 
L 7.71875 11.625 
Q 12.109375 9.234375 16.796875 8.0625 
Q 21.484375 6.890625 26.703125 6.890625 
Q 35.15625 6.890625 40.078125 11.328125 
Q 45.015625 15.765625 45.015625 23.390625 
Q 45.015625 31 40.078125 35.4375 
Q 35.15625 39.890625 26.703125 39.890625 
Q 22.75 39.890625 18.8125 39.015625 
Q 14.890625 38.140625 10.796875 36.28125 
z
" id="DejaVuSans-53"/>
      </defs>
      <g transform="translate(143.290815 270.397656)scale(0.15 -0.15)">
       <use xlink:href="#DejaVuSans-53"/>
       <use x="63.623047" xlink:href="#DejaVuSans-48"/>
      </g>
     </g>
    </g>
    <g id="xtick_3">
     <g id="line2d_3">
      <g>
       <use style="stroke:#000000;stroke-width:0.8;" x="236.450949" xlink:href="#m0cb1eb026e" y="252"/>
      </g>
     </g>
     <g id="text_3">
      <!-- 100 -->
      <defs>
       <path d="M 12.40625 8.296875 
L 28.515625 8.296875 
L 28.515625 63.921875 
L 10.984375 60.40625 
L 10.984375 69.390625 
L 28.421875 72.90625 
L 38.28125 72.90625 
L 38.28125 8.296875 
L 54.390625 8.296875 
L 54.390625 0 
L 12.40625 0 
z
" id="DejaVuSans-49"/>
      </defs>
      <g transform="translate(222.135324 270.397656)scale(0.15 -0.15)">
       <use xlink:href="#DejaVuSans-49"/>
       <use x="63.623047" xlink:href="#DejaVuSans-48"/>
       <use x="127.246094" xlink:href="#DejaVuSans-48"/>
      </g>
     </g>
    </g>
    <g id="xtick_4">
     <g id="line2d_4">
      <g>
       <use style="stroke:#000000;stroke-width:0.8;" x="320.067333" xlink:href="#m0cb1eb026e" y="252"/>
      </g>
     </g>
     <g id="text_4">
      <!-- 150 -->
      <g transform="translate(305.751708 270.397656)scale(0.15 -0.15)">
       <use xlink:href="#DejaVuSans-49"/>
       <use x="63.623047" xlink:href="#DejaVuSans-53"/>
       <use x="127.246094" xlink:href="#DejaVuSans-48"/>
      </g>
     </g>
    </g>
    <g id="text_5">
     <!-- Date -->
     <defs>
      <path d="M 19.671875 64.796875 
L 19.671875 8.109375 
L 31.59375 8.109375 
Q 46.6875 8.109375 53.6875 14.9375 
Q 60.6875 21.78125 60.6875 36.53125 
Q 60.6875 51.171875 53.6875 57.984375 
Q 46.6875 64.796875 31.59375 64.796875 
z
M 9.8125 72.90625 
L 30.078125 72.90625 
Q 51.265625 72.90625 61.171875 64.09375 
Q 71.09375 55.28125 71.09375 36.53125 
Q 71.09375 17.671875 61.125 8.828125 
Q 51.171875 0 30.078125 0 
L 9.8125 0 
z
" id="DejaVuSans-68"/>
      <path d="M 34.28125 27.484375 
Q 23.390625 27.484375 19.1875 25 
Q 14.984375 22.515625 14.984375 16.5 
Q 14.984375 11.71875 18.140625 8.90625 
Q 21.296875 6.109375 26.703125 6.109375 
Q 34.1875 6.109375 38.703125 11.40625 
Q 43.21875 16.703125 43.21875 25.484375 
L 43.21875 27.484375 
z
M 52.203125 31.203125 
L 52.203125 0 
L 43.21875 0 
L 43.21875 8.296875 
Q 40.140625 3.328125 35.546875 0.953125 
Q 30.953125 -1.421875 24.3125 -1.421875 
Q 15.921875 -1.421875 10.953125 3.296875 
Q 6 8.015625 6 15.921875 
Q 6 25.140625 12.171875 29.828125 
Q 18.359375 34.515625 30.609375 34.515625 
L 43.21875 34.515625 
L 43.21875 35.40625 
Q 43.21875 41.609375 39.140625 45 
Q 35.0625 48.390625 27.6875 48.390625 
Q 23 48.390625 18.546875 47.265625 
Q 14.109375 46.140625 10.015625 43.890625 
L 10.015625 52.203125 
Q 14.9375 54.109375 19.578125 55.046875 
Q 24.21875 56 28.609375 56 
Q 40.484375 56 46.34375 49.84375 
Q 52.203125 43.703125 52.203125 31.203125 
z
" id="DejaVuSans-97"/>
      <path d="M 18.3125 70.21875 
L 18.3125 54.6875 
L 36.8125 54.6875 
L 36.8125 47.703125 
L 18.3125 47.703125 
L 18.3125 18.015625 
Q 18.3125 11.328125 20.140625 9.421875 
Q 21.96875 7.515625 27.59375 7.515625 
L 36.8125 7.515625 
L 36.8125 0 
L 27.59375 0 
Q 17.1875 0 13.234375 3.875 
Q 9.28125 7.765625 9.28125 18.015625 
L 9.28125 47.703125 
L 2.6875 47.703125 
L 2.6875 54.6875 
L 9.28125 54.6875 
L 9.28125 70.21875 
z
" id="DejaVuSans-116"/>
      <path d="M 56.203125 29.59375 
L 56.203125 25.203125 
L 14.890625 25.203125 
Q 15.484375 15.921875 20.484375 11.0625 
Q 25.484375 6.203125 34.421875 6.203125 
Q 39.59375 6.203125 44.453125 7.46875 
Q 49.3125 8.734375 54.109375 11.28125 
L 54.109375 2.78125 
Q 49.265625 0.734375 44.1875 -0.34375 
Q 39.109375 -1.421875 33.890625 -1.421875 
Q 20.796875 -1.421875 13.15625 6.1875 
Q 5.515625 13.8125 5.515625 26.8125 
Q 5.515625 40.234375 12.765625 48.109375 
Q 20.015625 56 32.328125 56 
Q 43.359375 56 49.78125 48.890625 
Q 56.203125 41.796875 56.203125 29.59375 
z
M 47.21875 32.234375 
Q 47.125 39.59375 43.09375 43.984375 
Q 39.0625 48.390625 32.421875 48.390625 
Q 24.90625 48.390625 20.390625 44.140625 
Q 15.875 39.890625 15.1875 32.171875 
z
" id="DejaVuSans-101"/>
     </defs>
     <g transform="translate(203.473828 288.914844)scale(0.15 -0.15)">
      <use xlink:href="#DejaVuSans-68"/>
      <use x="77.001953" xlink:href="#DejaVuSans-97"/>
      <use x="138.28125" xlink:href="#DejaVuSans-116"/>
      <use x="177.490234" xlink:href="#DejaVuSans-101"/>
     </g>
    </g>
   </g>
   <g id="matplotlib.axis_2">
    <g id="ytick_1">
     <g id="line2d_5">
      <defs>
       <path d="M 0 0 
L -3.5 0 
" id="m1d027b56f6" style="stroke:#000000;stroke-width:0.8;"/>
      </defs>
      <g>
       <use style="stroke:#000000;stroke-width:0.8;" x="54" xlink:href="#m1d027b56f6" y="242.118349"/>
      </g>
     </g>
     <g id="text_6">
      <!-- 0 -->
      <g transform="translate(37.45625 247.817177)scale(0.15 -0.15)">
       <use xlink:href="#DejaVuSans-48"/>
      </g>
     </g>
    </g>
    <g id="ytick_2">
     <g id="line2d_6">
      <g>
       <use style="stroke:#000000;stroke-width:0.8;" x="54" xlink:href="#m1d027b56f6" y="202.415784"/>
      </g>
     </g>
     <g id="text_7">
      <!-- 20000 -->
      <defs>
       <path d="M 19.1875 8.296875 
L 53.609375 8.296875 
L 53.609375 0 
L 7.328125 0 
L 7.328125 8.296875 
Q 12.9375 14.109375 22.625 23.890625 
Q 32.328125 33.6875 34.8125 36.53125 
Q 39.546875 41.84375 41.421875 45.53125 
Q 43.3125 49.21875 43.3125 52.78125 
Q 43.3125 58.59375 39.234375 62.25 
Q 35.15625 65.921875 28.609375 65.921875 
Q 23.96875 65.921875 18.8125 64.3125 
Q 13.671875 62.703125 7.8125 59.421875 
L 7.8125 69.390625 
Q 13.765625 71.78125 18.9375 73 
Q 24.125 74.21875 28.421875 74.21875 
Q 39.75 74.21875 46.484375 68.546875 
Q 53.21875 62.890625 53.21875 53.421875 
Q 53.21875 48.921875 51.53125 44.890625 
Q 49.859375 40.875 45.40625 35.40625 
Q 44.1875 33.984375 37.640625 27.21875 
Q 31.109375 20.453125 19.1875 8.296875 
z
" id="DejaVuSans-50"/>
      </defs>
      <g transform="translate(-0.71875 208.114613)scale(0.15 -0.15)">
       <use xlink:href="#DejaVuSans-50"/>
       <use x="63.623047" xlink:href="#DejaVuSans-48"/>
       <use x="127.246094" xlink:href="#DejaVuSans-48"/>
       <use x="190.869141" xlink:href="#DejaVuSans-48"/>
       <use x="254.492188" xlink:href="#DejaVuSans-48"/>
      </g>
     </g>
    </g>
    <g id="ytick_3">
     <g id="line2d_7">
      <g>
       <use style="stroke:#000000;stroke-width:0.8;" x="54" xlink:href="#m1d027b56f6" y="162.71322"/>
      </g>
     </g>
     <g id="text_8">
      <!-- 40000 -->
      <defs>
       <path d="M 37.796875 64.3125 
L 12.890625 25.390625 
L 37.796875 25.390625 
z
M 35.203125 72.90625 
L 47.609375 72.90625 
L 47.609375 25.390625 
L 58.015625 25.390625 
L 58.015625 17.1875 
L 47.609375 17.1875 
L 47.609375 0 
L 37.796875 0 
L 37.796875 17.1875 
L 4.890625 17.1875 
L 4.890625 26.703125 
z
" id="DejaVuSans-52"/>
      </defs>
      <g transform="translate(-0.71875 168.412048)scale(0.15 -0.15)">
       <use xlink:href="#DejaVuSans-52"/>
       <use x="63.623047" xlink:href="#DejaVuSans-48"/>
       <use x="127.246094" xlink:href="#DejaVuSans-48"/>
       <use x="190.869141" xlink:href="#DejaVuSans-48"/>
       <use x="254.492188" xlink:href="#DejaVuSans-48"/>
      </g>
     </g>
    </g>
    <g id="ytick_4">
     <g id="line2d_8">
      <g>
       <use style="stroke:#000000;stroke-width:0.8;" x="54" xlink:href="#m1d027b56f6" y="123.010656"/>
      </g>
     </g>
     <g id="text_9">
      <!-- 60000 -->
      <defs>
       <path d="M 33.015625 40.375 
Q 26.375 40.375 22.484375 35.828125 
Q 18.609375 31.296875 18.609375 23.390625 
Q 18.609375 15.53125 22.484375 10.953125 
Q 26.375 6.390625 33.015625 6.390625 
Q 39.65625 6.390625 43.53125 10.953125 
Q 47.40625 15.53125 47.40625 23.390625 
Q 47.40625 31.296875 43.53125 35.828125 
Q 39.65625 40.375 33.015625 40.375 
z
M 52.59375 71.296875 
L 52.59375 62.3125 
Q 48.875 64.0625 45.09375 64.984375 
Q 41.3125 65.921875 37.59375 65.921875 
Q 27.828125 65.921875 22.671875 59.328125 
Q 17.53125 52.734375 16.796875 39.40625 
Q 19.671875 43.65625 24.015625 45.921875 
Q 28.375 48.1875 33.59375 48.1875 
Q 44.578125 48.1875 50.953125 41.515625 
Q 57.328125 34.859375 57.328125 23.390625 
Q 57.328125 12.15625 50.6875 5.359375 
Q 44.046875 -1.421875 33.015625 -1.421875 
Q 20.359375 -1.421875 13.671875 8.265625 
Q 6.984375 17.96875 6.984375 36.375 
Q 6.984375 53.65625 15.1875 63.9375 
Q 23.390625 74.21875 37.203125 74.21875 
Q 40.921875 74.21875 44.703125 73.484375 
Q 48.484375 72.75 52.59375 71.296875 
z
" id="DejaVuSans-54"/>
      </defs>
      <g transform="translate(-0.71875 128.709484)scale(0.15 -0.15)">
       <use xlink:href="#DejaVuSans-54"/>
       <use x="63.623047" xlink:href="#DejaVuSans-48"/>
       <use x="127.246094" xlink:href="#DejaVuSans-48"/>
       <use x="190.869141" xlink:href="#DejaVuSans-48"/>
       <use x="254.492188" xlink:href="#DejaVuSans-48"/>
      </g>
     </g>
    </g>
    <g id="ytick_5">
     <g id="line2d_9">
      <g>
       <use style="stroke:#000000;stroke-width:0.8;" x="54" xlink:href="#m1d027b56f6" y="83.308091"/>
      </g>
     </g>
     <g id="text_10">
      <!-- 80000 -->
      <defs>
       <path d="M 31.78125 34.625 
Q 24.75 34.625 20.71875 30.859375 
Q 16.703125 27.09375 16.703125 20.515625 
Q 16.703125 13.921875 20.71875 10.15625 
Q 24.75 6.390625 31.78125 6.390625 
Q 38.8125 6.390625 42.859375 10.171875 
Q 46.921875 13.96875 46.921875 20.515625 
Q 46.921875 27.09375 42.890625 30.859375 
Q 38.875 34.625 31.78125 34.625 
z
M 21.921875 38.8125 
Q 15.578125 40.375 12.03125 44.71875 
Q 8.5 49.078125 8.5 55.328125 
Q 8.5 64.0625 14.71875 69.140625 
Q 20.953125 74.21875 31.78125 74.21875 
Q 42.671875 74.21875 48.875 69.140625 
Q 55.078125 64.0625 55.078125 55.328125 
Q 55.078125 49.078125 51.53125 44.71875 
Q 48 40.375 41.703125 38.8125 
Q 48.828125 37.15625 52.796875 32.3125 
Q 56.78125 27.484375 56.78125 20.515625 
Q 56.78125 9.90625 50.3125 4.234375 
Q 43.84375 -1.421875 31.78125 -1.421875 
Q 19.734375 -1.421875 13.25 4.234375 
Q 6.78125 9.90625 6.78125 20.515625 
Q 6.78125 27.484375 10.78125 32.3125 
Q 14.796875 37.15625 21.921875 38.8125 
z
M 18.3125 54.390625 
Q 18.3125 48.734375 21.84375 45.5625 
Q 25.390625 42.390625 31.78125 42.390625 
Q 38.140625 42.390625 41.71875 45.5625 
Q 45.3125 48.734375 45.3125 54.390625 
Q 45.3125 60.0625 41.71875 63.234375 
Q 38.140625 66.40625 31.78125 66.40625 
Q 25.390625 66.40625 21.84375 63.234375 
Q 18.3125 60.0625 18.3125 54.390625 
z
" id="DejaVuSans-56"/>
      </defs>
      <g transform="translate(-0.71875 89.006919)scale(0.15 -0.15)">
       <use xlink:href="#DejaVuSans-56"/>
       <use x="63.623047" xlink:href="#DejaVuSans-48"/>
       <use x="127.246094" xlink:href="#DejaVuSans-48"/>
       <use x="190.869141" xlink:href="#DejaVuSans-48"/>
       <use x="254.492188" xlink:href="#DejaVuSans-48"/>
      </g>
     </g>
    </g>
    <g id="ytick_6">
     <g id="line2d_10">
      <g>
       <use style="stroke:#000000;stroke-width:0.8;" x="54" xlink:href="#m1d027b56f6" y="43.605527"/>
      </g>
     </g>
     <g id="text_11">
      <!-- 100000 -->
      <g transform="translate(-10.2625 49.304355)scale(0.15 -0.15)">
       <use xlink:href="#DejaVuSans-49"/>
       <use x="63.623047" xlink:href="#DejaVuSans-48"/>
       <use x="127.246094" xlink:href="#DejaVuSans-48"/>
       <use x="190.869141" xlink:href="#DejaVuSans-48"/>
       <use x="254.492188" xlink:href="#DejaVuSans-48"/>
       <use x="318.115234" xlink:href="#DejaVuSans-48"/>
      </g>
     </g>
    </g>
    <g id="text_12">
     <!-- Confirmed Cases (Cum) -->
     <defs>
      <path d="M 64.40625 67.28125 
L 64.40625 56.890625 
Q 59.421875 61.53125 53.78125 63.8125 
Q 48.140625 66.109375 41.796875 66.109375 
Q 29.296875 66.109375 22.65625 58.46875 
Q 16.015625 50.828125 16.015625 36.375 
Q 16.015625 21.96875 22.65625 14.328125 
Q 29.296875 6.6875 41.796875 6.6875 
Q 48.140625 6.6875 53.78125 8.984375 
Q 59.421875 11.28125 64.40625 15.921875 
L 64.40625 5.609375 
Q 59.234375 2.09375 53.4375 0.328125 
Q 47.65625 -1.421875 41.21875 -1.421875 
Q 24.65625 -1.421875 15.125 8.703125 
Q 5.609375 18.84375 5.609375 36.375 
Q 5.609375 53.953125 15.125 64.078125 
Q 24.65625 74.21875 41.21875 74.21875 
Q 47.75 74.21875 53.53125 72.484375 
Q 59.328125 70.75 64.40625 67.28125 
z
" id="DejaVuSans-67"/>
      <path d="M 30.609375 48.390625 
Q 23.390625 48.390625 19.1875 42.75 
Q 14.984375 37.109375 14.984375 27.296875 
Q 14.984375 17.484375 19.15625 11.84375 
Q 23.34375 6.203125 30.609375 6.203125 
Q 37.796875 6.203125 41.984375 11.859375 
Q 46.1875 17.53125 46.1875 27.296875 
Q 46.1875 37.015625 41.984375 42.703125 
Q 37.796875 48.390625 30.609375 48.390625 
z
M 30.609375 56 
Q 42.328125 56 49.015625 48.375 
Q 55.71875 40.765625 55.71875 27.296875 
Q 55.71875 13.875 49.015625 6.21875 
Q 42.328125 -1.421875 30.609375 -1.421875 
Q 18.84375 -1.421875 12.171875 6.21875 
Q 5.515625 13.875 5.515625 27.296875 
Q 5.515625 40.765625 12.171875 48.375 
Q 18.84375 56 30.609375 56 
z
" id="DejaVuSans-111"/>
      <path d="M 54.890625 33.015625 
L 54.890625 0 
L 45.90625 0 
L 45.90625 32.71875 
Q 45.90625 40.484375 42.875 44.328125 
Q 39.84375 48.1875 33.796875 48.1875 
Q 26.515625 48.1875 22.3125 43.546875 
Q 18.109375 38.921875 18.109375 30.90625 
L 18.109375 0 
L 9.078125 0 
L 9.078125 54.6875 
L 18.109375 54.6875 
L 18.109375 46.1875 
Q 21.34375 51.125 25.703125 53.5625 
Q 30.078125 56 35.796875 56 
Q 45.21875 56 50.046875 50.171875 
Q 54.890625 44.34375 54.890625 33.015625 
z
" id="DejaVuSans-110"/>
      <path d="M 37.109375 75.984375 
L 37.109375 68.5 
L 28.515625 68.5 
Q 23.6875 68.5 21.796875 66.546875 
Q 19.921875 64.59375 19.921875 59.515625 
L 19.921875 54.6875 
L 34.71875 54.6875 
L 34.71875 47.703125 
L 19.921875 47.703125 
L 19.921875 0 
L 10.890625 0 
L 10.890625 47.703125 
L 2.296875 47.703125 
L 2.296875 54.6875 
L 10.890625 54.6875 
L 10.890625 58.5 
Q 10.890625 67.625 15.140625 71.796875 
Q 19.390625 75.984375 28.609375 75.984375 
z
" id="DejaVuSans-102"/>
      <path d="M 9.421875 54.6875 
L 18.40625 54.6875 
L 18.40625 0 
L 9.421875 0 
z
M 9.421875 75.984375 
L 18.40625 75.984375 
L 18.40625 64.59375 
L 9.421875 64.59375 
z
" id="DejaVuSans-105"/>
      <path d="M 41.109375 46.296875 
Q 39.59375 47.171875 37.8125 47.578125 
Q 36.03125 48 33.890625 48 
Q 26.265625 48 22.1875 43.046875 
Q 18.109375 38.09375 18.109375 28.8125 
L 18.109375 0 
L 9.078125 0 
L 9.078125 54.6875 
L 18.109375 54.6875 
L 18.109375 46.1875 
Q 20.953125 51.171875 25.484375 53.578125 
Q 30.03125 56 36.53125 56 
Q 37.453125 56 38.578125 55.875 
Q 39.703125 55.765625 41.0625 55.515625 
z
" id="DejaVuSans-114"/>
      <path d="M 52 44.1875 
Q 55.375 50.25 60.0625 53.125 
Q 64.75 56 71.09375 56 
Q 79.640625 56 84.28125 50.015625 
Q 88.921875 44.046875 88.921875 33.015625 
L 88.921875 0 
L 79.890625 0 
L 79.890625 32.71875 
Q 79.890625 40.578125 77.09375 44.375 
Q 74.3125 48.1875 68.609375 48.1875 
Q 61.625 48.1875 57.5625 43.546875 
Q 53.515625 38.921875 53.515625 30.90625 
L 53.515625 0 
L 44.484375 0 
L 44.484375 32.71875 
Q 44.484375 40.625 41.703125 44.40625 
Q 38.921875 48.1875 33.109375 48.1875 
Q 26.21875 48.1875 22.15625 43.53125 
Q 18.109375 38.875 18.109375 30.90625 
L 18.109375 0 
L 9.078125 0 
L 9.078125 54.6875 
L 18.109375 54.6875 
L 18.109375 46.1875 
Q 21.1875 51.21875 25.484375 53.609375 
Q 29.78125 56 35.6875 56 
Q 41.65625 56 45.828125 52.96875 
Q 50 49.953125 52 44.1875 
z
" id="DejaVuSans-109"/>
      <path d="M 45.40625 46.390625 
L 45.40625 75.984375 
L 54.390625 75.984375 
L 54.390625 0 
L 45.40625 0 
L 45.40625 8.203125 
Q 42.578125 3.328125 38.25 0.953125 
Q 33.9375 -1.421875 27.875 -1.421875 
Q 17.96875 -1.421875 11.734375 6.484375 
Q 5.515625 14.40625 5.515625 27.296875 
Q 5.515625 40.1875 11.734375 48.09375 
Q 17.96875 56 27.875 56 
Q 33.9375 56 38.25 53.625 
Q 42.578125 51.265625 45.40625 46.390625 
z
M 14.796875 27.296875 
Q 14.796875 17.390625 18.875 11.75 
Q 22.953125 6.109375 30.078125 6.109375 
Q 37.203125 6.109375 41.296875 11.75 
Q 45.40625 17.390625 45.40625 27.296875 
Q 45.40625 37.203125 41.296875 42.84375 
Q 37.203125 48.484375 30.078125 48.484375 
Q 22.953125 48.484375 18.875 42.84375 
Q 14.796875 37.203125 14.796875 27.296875 
z
" id="DejaVuSans-100"/>
      <path id="DejaVuSans-32"/>
      <path d="M 44.28125 53.078125 
L 44.28125 44.578125 
Q 40.484375 46.53125 36.375 47.5 
Q 32.28125 48.484375 27.875 48.484375 
Q 21.1875 48.484375 17.84375 46.4375 
Q 14.5 44.390625 14.5 40.28125 
Q 14.5 37.15625 16.890625 35.375 
Q 19.28125 33.59375 26.515625 31.984375 
L 29.59375 31.296875 
Q 39.15625 29.25 43.1875 25.515625 
Q 47.21875 21.78125 47.21875 15.09375 
Q 47.21875 7.46875 41.1875 3.015625 
Q 35.15625 -1.421875 24.609375 -1.421875 
Q 20.21875 -1.421875 15.453125 -0.5625 
Q 10.6875 0.296875 5.421875 2 
L 5.421875 11.28125 
Q 10.40625 8.6875 15.234375 7.390625 
Q 20.0625 6.109375 24.8125 6.109375 
Q 31.15625 6.109375 34.5625 8.28125 
Q 37.984375 10.453125 37.984375 14.40625 
Q 37.984375 18.0625 35.515625 20.015625 
Q 33.0625 21.96875 24.703125 23.78125 
L 21.578125 24.515625 
Q 13.234375 26.265625 9.515625 29.90625 
Q 5.8125 33.546875 5.8125 39.890625 
Q 5.8125 47.609375 11.28125 51.796875 
Q 16.75 56 26.8125 56 
Q 31.78125 56 36.171875 55.265625 
Q 40.578125 54.546875 44.28125 53.078125 
z
" id="DejaVuSans-115"/>
      <path d="M 31 75.875 
Q 24.46875 64.65625 21.28125 53.65625 
Q 18.109375 42.671875 18.109375 31.390625 
Q 18.109375 20.125 21.3125 9.0625 
Q 24.515625 -2 31 -13.1875 
L 23.1875 -13.1875 
Q 15.875 -1.703125 12.234375 9.375 
Q 8.59375 20.453125 8.59375 31.390625 
Q 8.59375 42.28125 12.203125 53.3125 
Q 15.828125 64.359375 23.1875 75.875 
z
" id="DejaVuSans-40"/>
      <path d="M 8.5 21.578125 
L 8.5 54.6875 
L 17.484375 54.6875 
L 17.484375 21.921875 
Q 17.484375 14.15625 20.5 10.265625 
Q 23.53125 6.390625 29.59375 6.390625 
Q 36.859375 6.390625 41.078125 11.03125 
Q 45.3125 15.671875 45.3125 23.6875 
L 45.3125 54.6875 
L 54.296875 54.6875 
L 54.296875 0 
L 45.3125 0 
L 45.3125 8.40625 
Q 42.046875 3.421875 37.71875 1 
Q 33.40625 -1.421875 27.6875 -1.421875 
Q 18.265625 -1.421875 13.375 4.4375 
Q 8.5 10.296875 8.5 21.578125 
z
M 31.109375 56 
z
" id="DejaVuSans-117"/>
      <path d="M 8.015625 75.875 
L 15.828125 75.875 
Q 23.140625 64.359375 26.78125 53.3125 
Q 30.421875 42.28125 30.421875 31.390625 
Q 30.421875 20.453125 26.78125 9.375 
Q 23.140625 -1.703125 15.828125 -13.1875 
L 8.015625 -13.1875 
Q 14.5 -2 17.703125 9.0625 
Q 20.90625 20.125 20.90625 31.390625 
Q 20.90625 42.671875 17.703125 53.65625 
Q 14.5 64.65625 8.015625 75.875 
z
" id="DejaVuSans-41"/>
     </defs>
     <g transform="translate(-17.382031 232.524141)rotate(-90)scale(0.15 -0.15)">
      <use xlink:href="#DejaVuSans-67"/>
      <use x="69.824219" xlink:href="#DejaVuSans-111"/>
      <use x="131.005859" xlink:href="#DejaVuSans-110"/>
      <use x="194.384766" xlink:href="#DejaVuSans-102"/>
      <use x="229.589844" xlink:href="#DejaVuSans-105"/>
      <use x="257.373047" xlink:href="#DejaVuSans-114"/>
      <use x="298.470703" xlink:href="#DejaVuSans-109"/>
      <use x="395.882812" xlink:href="#DejaVuSans-101"/>
      <use x="457.40625" xlink:href="#DejaVuSans-100"/>
      <use x="520.882812" xlink:href="#DejaVuSans-32"/>
      <use x="552.669922" xlink:href="#DejaVuSans-67"/>
      <use x="622.494141" xlink:href="#DejaVuSans-97"/>
      <use x="683.773438" xlink:href="#DejaVuSans-115"/>
      <use x="735.873047" xlink:href="#DejaVuSans-101"/>
      <use x="797.396484" xlink:href="#DejaVuSans-115"/>
      <use x="849.496094" xlink:href="#DejaVuSans-32"/>
      <use x="881.283203" xlink:href="#DejaVuSans-40"/>
      <use x="920.296875" xlink:href="#DejaVuSans-67"/>
      <use x="990.121094" xlink:href="#DejaVuSans-117"/>
      <use x="1053.5" xlink:href="#DejaVuSans-109"/>
      <use x="1150.912109" xlink:href="#DejaVuSans-41"/>
     </g>
    </g>
   </g>
   <g id="line2d_11">
    <path clip-path="url(#p4988916215)" d="M 69.218182 241.895487 
L 70.890509 241.87553 
L 72.562837 241.853788 
L 74.235165 241.830102 
L 75.907493 241.804299 
L 77.57982 241.77619 
L 79.252148 241.74557 
L 80.924476 241.712215 
L 82.596803 241.675883 
L 84.269131 241.636308 
L 85.941459 241.593204 
L 87.613786 241.546255 
L 89.286114 241.495123 
L 90.958442 241.439437 
L 92.630769 241.378793 
L 94.303097 241.312755 
L 95.975425 241.240846 
L 97.647752 241.16255 
L 99.32008 241.077305 
L 100.992408 240.9845 
L 102.664735 240.883474 
L 104.337063 240.773509 
L 106.009391 240.653824 
L 107.681718 240.523574 
L 109.354046 240.381843 
L 111.026374 240.227637 
L 112.698701 240.059881 
L 114.371029 239.877411 
L 116.043357 239.678968 
L 117.715684 239.463191 
L 119.388012 239.22861 
L 121.06034 238.973638 
L 122.732667 238.696563 
L 124.404995 238.395544 
L 126.077323 238.068595 
L 127.74965 237.713584 
L 129.421978 237.328223 
L 131.094306 236.910055 
L 132.766633 236.456454 
L 134.438961 235.96461 
L 136.111289 235.431529 
L 137.783616 234.854019 
L 139.455944 234.228692 
L 141.128272 233.551957 
L 142.800599 232.820019 
L 144.472927 232.028879 
L 146.145255 231.174335 
L 147.817582 230.251991 
L 149.48991 229.257267 
L 151.162238 228.18541 
L 152.834565 227.031514 
L 154.506893 225.790546 
L 156.179221 224.457373 
L 157.851548 223.026804 
L 159.523876 221.493632 
L 161.196204 219.852684 
L 162.868531 218.098888 
L 164.540859 216.227338 
L 166.213187 214.233373 
L 167.885514 212.112663 
L 169.557842 209.861306 
L 171.23017 207.475922 
L 172.902498 204.953765 
L 174.574825 202.29283 
L 176.247153 199.491963 
L 177.919481 196.550968 
L 179.591808 193.470714 
L 181.264136 190.253225 
L 182.936464 186.901767 
L 184.608791 183.420907 
L 186.281119 179.816559 
L 187.953447 176.096006 
L 189.625774 172.267888 
L 191.298102 168.342166 
L 192.97043 164.330048 
L 194.642757 160.243891 
L 196.315085 156.097066 
L 197.987413 151.903795 
L 199.65974 147.678965 
L 201.332068 143.437922 
L 203.004396 139.196249 
L 204.676723 134.969537 
L 206.349051 130.77316 
L 208.021379 126.622049 
" style="fill:none;stroke:#ffa500;stroke-linecap:square;stroke-width:1.5;"/>
   </g>
   <g id="line2d_12">
    <defs>
     <path d="M 0 3 
C 0.795609 3 1.55874 2.683901 2.12132 2.12132 
C 2.683901 1.55874 3 0.795609 3 0 
C 3 -0.795609 2.683901 -1.55874 2.12132 -2.12132 
C 1.55874 -2.683901 0.795609 -3 0 -3 
C -0.795609 -3 -1.55874 -2.683901 -2.12132 -2.12132 
C -2.683901 -1.55874 -3 -0.795609 -3 0 
C -3 0.795609 -2.683901 1.55874 -2.12132 2.12132 
C -1.55874 2.683901 -0.795609 3 0 3 
z
" id="m11043a73fd" style="stroke:#0000ff;"/>
    </defs>
    <g clip-path="url(#p4988916215)">
     <use style="fill:#0000ff;stroke:#0000ff;" x="69.218182" xlink:href="#m11043a73fd" y="242.116364"/>
     <use style="fill:#0000ff;stroke:#0000ff;" x="70.890509" xlink:href="#m11043a73fd" y="242.110408"/>
     <use style="fill:#0000ff;stroke:#0000ff;" x="72.562837" xlink:href="#m11043a73fd" y="242.108423"/>
     <use style="fill:#0000ff;stroke:#0000ff;" x="74.235165" xlink:href="#m11043a73fd" y="242.108423"/>
     <use style="fill:#0000ff;stroke:#0000ff;" x="75.907493" xlink:href="#m11043a73fd" y="242.108423"/>
     <use style="fill:#0000ff;stroke:#0000ff;" x="77.57982" xlink:href="#m11043a73fd" y="242.108423"/>
     <use style="fill:#0000ff;stroke:#0000ff;" x="79.252148" xlink:href="#m11043a73fd" y="242.108423"/>
     <use style="fill:#0000ff;stroke:#0000ff;" x="80.924476" xlink:href="#m11043a73fd" y="242.106438"/>
     <use style="fill:#0000ff;stroke:#0000ff;" x="82.596803" xlink:href="#m11043a73fd" y="242.106438"/>
     <use style="fill:#0000ff;stroke:#0000ff;" x="84.269131" xlink:href="#m11043a73fd" y="242.104453"/>
     <use style="fill:#0000ff;stroke:#0000ff;" x="85.941459" xlink:href="#m11043a73fd" y="242.104453"/>
     <use style="fill:#0000ff;stroke:#0000ff;" x="87.613786" xlink:href="#m11043a73fd" y="242.104453"/>
     <use style="fill:#0000ff;stroke:#0000ff;" x="89.286114" xlink:href="#m11043a73fd" y="242.102468"/>
     <use style="fill:#0000ff;stroke:#0000ff;" x="90.958442" xlink:href="#m11043a73fd" y="242.094527"/>
     <use style="fill:#0000ff;stroke:#0000ff;" x="92.630769" xlink:href="#m11043a73fd" y="242.066735"/>
     <use style="fill:#0000ff;stroke:#0000ff;" x="94.303097" xlink:href="#m11043a73fd" y="242.036959"/>
     <use style="fill:#0000ff;stroke:#0000ff;" x="95.975425" xlink:href="#m11043a73fd" y="242.013137"/>
     <use style="fill:#0000ff;stroke:#0000ff;" x="97.647752" xlink:href="#m11043a73fd" y="241.955568"/>
     <use style="fill:#0000ff;stroke:#0000ff;" x="99.32008" xlink:href="#m11043a73fd" y="241.933732"/>
     <use style="fill:#0000ff;stroke:#0000ff;" x="100.992408" xlink:href="#m11043a73fd" y="241.884104"/>
     <use style="fill:#0000ff;stroke:#0000ff;" x="102.664735" xlink:href="#m11043a73fd" y="241.792788"/>
     <use style="fill:#0000ff;stroke:#0000ff;" x="104.337063" xlink:href="#m11043a73fd" y="241.715368"/>
     <use style="fill:#0000ff;stroke:#0000ff;" x="106.009391" xlink:href="#m11043a73fd" y="241.620082"/>
     <use style="fill:#0000ff;stroke:#0000ff;" x="107.681718" xlink:href="#m11043a73fd" y="241.491048"/>
     <use style="fill:#0000ff;stroke:#0000ff;" x="109.354046" xlink:href="#m11043a73fd" y="241.389807"/>
     <use style="fill:#0000ff;stroke:#0000ff;" x="111.026374" xlink:href="#m11043a73fd" y="241.314372"/>
     <use style="fill:#0000ff;stroke:#0000ff;" x="112.698701" xlink:href="#m11043a73fd" y="241.175413"/>
     <use style="fill:#0000ff;stroke:#0000ff;" x="114.371029" xlink:href="#m11043a73fd" y="240.957049"/>
     <use style="fill:#0000ff;stroke:#0000ff;" x="116.043357" xlink:href="#m11043a73fd" y="240.695012"/>
     <use style="fill:#0000ff;stroke:#0000ff;" x="117.715684" xlink:href="#m11043a73fd" y="240.43496"/>
     <use style="fill:#0000ff;stroke:#0000ff;" x="119.388012" xlink:href="#m11043a73fd" y="240.147116"/>
     <use style="fill:#0000ff;stroke:#0000ff;" x="121.06034" xlink:href="#m11043a73fd" y="239.946618"/>
     <use style="fill:#0000ff;stroke:#0000ff;" x="122.732667" xlink:href="#m11043a73fd" y="239.706418"/>
     <use style="fill:#0000ff;stroke:#0000ff;" x="124.404995" xlink:href="#m11043a73fd" y="239.382842"/>
     <use style="fill:#0000ff;stroke:#0000ff;" x="126.077323" xlink:href="#m11043a73fd" y="239.120805"/>
     <use style="fill:#0000ff;stroke:#0000ff;" x="127.74965" xlink:href="#m11043a73fd" y="238.767452"/>
     <use style="fill:#0000ff;stroke:#0000ff;" x="129.421978" xlink:href="#m11043a73fd" y="238.366456"/>
     <use style="fill:#0000ff;stroke:#0000ff;" x="131.094306" xlink:href="#m11043a73fd" y="237.864219"/>
     <use style="fill:#0000ff;stroke:#0000ff;" x="132.766633" xlink:href="#m11043a73fd" y="237.276621"/>
     <use style="fill:#0000ff;stroke:#0000ff;" x="134.438961" xlink:href="#m11043a73fd" y="236.589767"/>
     <use style="fill:#0000ff;stroke:#0000ff;" x="136.111289" xlink:href="#m11043a73fd" y="235.803656"/>
     <use style="fill:#0000ff;stroke:#0000ff;" x="137.783616" xlink:href="#m11043a73fd" y="235.287523"/>
     <use style="fill:#0000ff;stroke:#0000ff;" x="139.455944" xlink:href="#m11043a73fd" y="234.487516"/>
     <use style="fill:#0000ff;stroke:#0000ff;" x="141.128272" xlink:href="#m11043a73fd" y="233.743093"/>
     <use style="fill:#0000ff;stroke:#0000ff;" x="142.800599" xlink:href="#m11043a73fd" y="232.865666"/>
     <use style="fill:#0000ff;stroke:#0000ff;" x="144.472927" xlink:href="#m11043a73fd" y="232.164916"/>
     <use style="fill:#0000ff;stroke:#0000ff;" x="146.145255" xlink:href="#m11043a73fd" y="231.400642"/>
     <use style="fill:#0000ff;stroke:#0000ff;" x="147.817582" xlink:href="#m11043a73fd" y="230.511304"/>
     <use style="fill:#0000ff;stroke:#0000ff;" x="149.48991" xlink:href="#m11043a73fd" y="229.617996"/>
     <use style="fill:#0000ff;stroke:#0000ff;" x="151.162238" xlink:href="#m11043a73fd" y="228.470592"/>
     <use style="fill:#0000ff;stroke:#0000ff;" x="152.834565" xlink:href="#m11043a73fd" y="227.235843"/>
     <use style="fill:#0000ff;stroke:#0000ff;" x="154.506893" xlink:href="#m11043a73fd" y="225.719205"/>
     <use style="fill:#0000ff;stroke:#0000ff;" x="156.179221" xlink:href="#m11043a73fd" y="224.704804"/>
     <use style="fill:#0000ff;stroke:#0000ff;" x="157.851548" xlink:href="#m11043a73fd" y="223.257646"/>
     <use style="fill:#0000ff;stroke:#0000ff;" x="159.523876" xlink:href="#m11043a73fd" y="221.187157"/>
     <use style="fill:#0000ff;stroke:#0000ff;" x="161.196204" xlink:href="#m11043a73fd" y="219.025352"/>
     <use style="fill:#0000ff;stroke:#0000ff;" x="162.868531" xlink:href="#m11043a73fd" y="216.565778"/>
     <use style="fill:#0000ff;stroke:#0000ff;" x="164.540859" xlink:href="#m11043a73fd" y="214.640204"/>
     <use style="fill:#0000ff;stroke:#0000ff;" x="166.213187" xlink:href="#m11043a73fd" y="212.982622"/>
     <use style="fill:#0000ff;stroke:#0000ff;" x="167.885514" xlink:href="#m11043a73fd" y="211.291293"/>
     <use style="fill:#0000ff;stroke:#0000ff;" x="169.557842" xlink:href="#m11043a73fd" y="208.863481"/>
     <use style="fill:#0000ff;stroke:#0000ff;" x="171.23017" xlink:href="#m11043a73fd" y="206.785052"/>
     <use style="fill:#0000ff;stroke:#0000ff;" x="172.902498" xlink:href="#m11043a73fd" y="203.956244"/>
     <use style="fill:#0000ff;stroke:#0000ff;" x="174.574825" xlink:href="#m11043a73fd" y="200.948775"/>
     <use style="fill:#0000ff;stroke:#0000ff;" x="176.247153" xlink:href="#m11043a73fd" y="198.270837"/>
     <use style="fill:#0000ff;stroke:#0000ff;" x="177.919481" xlink:href="#m11043a73fd" y="195.525404"/>
     <use style="fill:#0000ff;stroke:#0000ff;" x="179.591808" xlink:href="#m11043a73fd" y="192.67873"/>
     <use style="fill:#0000ff;stroke:#0000ff;" x="181.264136" xlink:href="#m11043a73fd" y="190.455387"/>
     <use style="fill:#0000ff;stroke:#0000ff;" x="182.936464" xlink:href="#m11043a73fd" y="187.261316"/>
     <use style="fill:#0000ff;stroke:#0000ff;" x="184.608791" xlink:href="#m11043a73fd" y="183.326791"/>
     <use style="fill:#0000ff;stroke:#0000ff;" x="186.281119" xlink:href="#m11043a73fd" y="179.543137"/>
     <use style="fill:#0000ff;stroke:#0000ff;" x="187.953447" xlink:href="#m11043a73fd" y="175.695959"/>
     <use style="fill:#0000ff;stroke:#0000ff;" x="189.625774" xlink:href="#m11043a73fd" y="172.595188"/>
     <use style="fill:#0000ff;stroke:#0000ff;" x="191.298102" xlink:href="#m11043a73fd" y="170.004596"/>
     <use style="fill:#0000ff;stroke:#0000ff;" x="192.97043" xlink:href="#m11043a73fd" y="166.040295"/>
     <use style="fill:#0000ff;stroke:#0000ff;" x="194.642757" xlink:href="#m11043a73fd" y="162.343986"/>
     <use style="fill:#0000ff;stroke:#0000ff;" x="196.315085" xlink:href="#m11043a73fd" y="157.561812"/>
     <use style="fill:#0000ff;stroke:#0000ff;" x="197.987413" xlink:href="#m11043a73fd" y="152.724055"/>
     <use style="fill:#0000ff;stroke:#0000ff;" x="199.65974" xlink:href="#m11043a73fd" y="148.531464"/>
     <use style="fill:#0000ff;stroke:#0000ff;" x="201.332068" xlink:href="#m11043a73fd" y="144.412323"/>
     <use style="fill:#0000ff;stroke:#0000ff;" x="203.004396" xlink:href="#m11043a73fd" y="139.620223"/>
     <use style="fill:#0000ff;stroke:#0000ff;" x="204.676723" xlink:href="#m11043a73fd" y="134.234571"/>
     <use style="fill:#0000ff;stroke:#0000ff;" x="206.349051" xlink:href="#m11043a73fd" y="129.772002"/>
     <use style="fill:#0000ff;stroke:#0000ff;" x="208.021379" xlink:href="#m11043a73fd" y="123.870216"/>
    </g>
   </g>
   <g id="line2d_13">
    <path clip-path="url(#p4988916215)" d="M 208.021379 126.622049 
L 209.693706 122.530488 
L 211.366034 118.511923 
L 213.038362 114.578797 
L 214.710689 110.742416 
L 216.383017 107.012845 
L 218.055345 103.398831 
L 219.727672 99.907768 
L 221.4 96.545681 
L 223.072328 93.317244 
L 224.744655 90.225825 
L 226.416983 87.273545 
L 228.089311 84.461364 
L 229.761638 81.789167 
L 231.433966 79.255876 
L 233.106294 76.859547 
L 234.778621 74.597492 
L 236.450949 72.466379 
L 238.123277 70.462341 
L 239.795604 68.581082 
L 241.467932 66.817963 
L 243.14026 65.168096 
L 244.812587 63.626417 
L 246.484915 62.187762 
L 248.157243 60.846923 
L 249.82957 59.598705 
L 251.501898 58.437971 
L 253.174226 57.359678 
L 254.846553 56.358908 
L 256.518881 55.430896 
L 258.191209 54.571047 
L 259.863536 53.774948 
L 261.535864 53.038384 
L 263.208192 52.357338 
L 264.880519 51.727999 
L 266.552847 51.146759 
L 268.225175 50.610213 
L 269.897502 50.115155 
L 271.56983 49.658575 
L 273.242158 49.237647 
L 274.914486 48.849732 
L 276.586813 48.492359 
L 278.259141 48.163227 
L 279.931469 47.860191 
L 281.603796 47.581254 
L 283.276124 47.324564 
L 284.948452 47.088397 
L 286.620779 46.871159 
L 288.293107 46.671369 
L 289.965435 46.487658 
L 291.637762 46.31876 
L 293.31009 46.163501 
L 294.982418 46.020801 
L 296.654745 45.88966 
L 298.327073 45.769155 
L 299.999401 45.658435 
L 301.671728 45.556715 
L 303.344056 45.463272 
L 305.016384 45.37744 
L 306.688711 45.298605 
L 308.361039 45.2262 
L 310.033367 45.159706 
L 311.705694 45.098644 
L 313.378022 45.042573 
L 315.05035 44.991088 
L 316.722677 44.943815 
L 318.395005 44.900412 
L 320.067333 44.860563 
L 321.73966 44.82398 
L 323.411988 44.790394 
L 325.084316 44.759562 
L 326.756643 44.731258 
L 328.428971 44.705276 
L 330.101299 44.681426 
L 331.773626 44.659533 
L 333.445954 44.639438 
L 335.118282 44.620992 
L 336.790609 44.604061 
L 338.462937 44.588521 
L 340.135265 44.574257 
L 341.807592 44.561165 
L 343.47992 44.549148 
L 345.152248 44.53812 
L 346.824575 44.527997 
L 348.496903 44.518707 
L 350.169231 44.51018 
L 351.841558 44.502354 
L 353.513886 44.495172 
L 355.186214 44.48858 
L 356.858541 44.48253 
L 358.530869 44.476977 
L 360.203197 44.471881 
L 361.875524 44.467205 
L 363.547852 44.462912 
L 365.22018 44.458973 
L 366.892507 44.455358 
L 368.564835 44.45204 
L 370.237163 44.448995 
L 371.909491 44.446201 
L 373.581818 44.443636 
" style="fill:none;stroke:#ff0000;stroke-linecap:square;stroke-width:1.5;"/>
   </g>
   <g id="patch_3">
    <path d="M 54 252 
L 54 34.56 
" style="fill:none;stroke:#000000;stroke-linecap:square;stroke-linejoin:miter;stroke-width:0.8;"/>
   </g>
   <g id="patch_4">
    <path d="M 388.8 252 
L 388.8 34.56 
" style="fill:none;stroke:#000000;stroke-linecap:square;stroke-linejoin:miter;stroke-width:0.8;"/>
   </g>
   <g id="patch_5">
    <path d="M 54 252 
L 388.8 252 
" style="fill:none;stroke:#000000;stroke-linecap:square;stroke-linejoin:miter;stroke-width:0.8;"/>
   </g>
   <g id="patch_6">
    <path d="M 54 34.56 
L 388.8 34.56 
" style="fill:none;stroke:#000000;stroke-linecap:square;stroke-linejoin:miter;stroke-width:0.8;"/>
   </g>
   <g id="legend_1">
    <g id="patch_7">
     <path d="M 247.382812 178.555781 
L 378.3 178.555781 
Q 381.3 178.555781 381.3 175.555781 
L 381.3 111.004219 
Q 381.3 108.004219 378.3 108.004219 
L 247.382812 108.004219 
Q 244.382812 108.004219 244.382812 111.004219 
L 244.382812 175.555781 
Q 244.382812 178.555781 247.382812 178.555781 
z
" style="fill:#ffffff;opacity:0.8;stroke:#cccccc;stroke-linejoin:miter;"/>
    </g>
    <g id="line2d_14">
     <path d="M 250.382812 120.151875 
L 280.382812 120.151875 
" style="fill:none;stroke:#ffa500;stroke-linecap:square;stroke-width:1.5;"/>
    </g>
    <g id="line2d_15"/>
    <g id="text_13">
     <!-- Model -->
     <defs>
      <path d="M 9.8125 72.90625 
L 24.515625 72.90625 
L 43.109375 23.296875 
L 61.8125 72.90625 
L 76.515625 72.90625 
L 76.515625 0 
L 66.890625 0 
L 66.890625 64.015625 
L 48.09375 14.015625 
L 38.1875 14.015625 
L 19.390625 64.015625 
L 19.390625 0 
L 9.8125 0 
z
" id="DejaVuSans-77"/>
      <path d="M 9.421875 75.984375 
L 18.40625 75.984375 
L 18.40625 0 
L 9.421875 0 
z
" id="DejaVuSans-108"/>
     </defs>
     <g transform="translate(292.382812 125.401875)scale(0.15 -0.15)">
      <use xlink:href="#DejaVuSans-77"/>
      <use x="86.279297" xlink:href="#DejaVuSans-111"/>
      <use x="147.460938" xlink:href="#DejaVuSans-100"/>
      <use x="210.9375" xlink:href="#DejaVuSans-101"/>
      <use x="272.460938" xlink:href="#DejaVuSans-108"/>
     </g>
    </g>
    <g id="line2d_16"/>
    <g id="line2d_17">
     <g>
      <use style="fill:#0000ff;stroke:#0000ff;" x="265.382812" xlink:href="#m11043a73fd" y="142.169063"/>
     </g>
    </g>
    <g id="text_14">
     <!-- Real -->
     <defs>
      <path d="M 44.390625 34.1875 
Q 47.5625 33.109375 50.5625 29.59375 
Q 53.5625 26.078125 56.59375 19.921875 
L 66.609375 0 
L 56 0 
L 46.6875 18.703125 
Q 43.0625 26.03125 39.671875 28.421875 
Q 36.28125 30.8125 30.421875 30.8125 
L 19.671875 30.8125 
L 19.671875 0 
L 9.8125 0 
L 9.8125 72.90625 
L 32.078125 72.90625 
Q 44.578125 72.90625 50.734375 67.671875 
Q 56.890625 62.453125 56.890625 51.90625 
Q 56.890625 45.015625 53.6875 40.46875 
Q 50.484375 35.9375 44.390625 34.1875 
z
M 19.671875 64.796875 
L 19.671875 38.921875 
L 32.078125 38.921875 
Q 39.203125 38.921875 42.84375 42.21875 
Q 46.484375 45.515625 46.484375 51.90625 
Q 46.484375 58.296875 42.84375 61.546875 
Q 39.203125 64.796875 32.078125 64.796875 
z
" id="DejaVuSans-82"/>
     </defs>
     <g transform="translate(292.382812 147.419063)scale(0.15 -0.15)">
      <use xlink:href="#DejaVuSans-82"/>
      <use x="69.419922" xlink:href="#DejaVuSans-101"/>
      <use x="130.943359" xlink:href="#DejaVuSans-97"/>
      <use x="192.222656" xlink:href="#DejaVuSans-108"/>
     </g>
    </g>
    <g id="line2d_18">
     <path d="M 250.382812 164.18625 
L 280.382812 164.18625 
" style="fill:none;stroke:#ff0000;stroke-linecap:square;stroke-width:1.5;"/>
    </g>
    <g id="line2d_19"/>
    <g id="text_15">
     <!-- Predictions -->
     <defs>
      <path d="M 19.671875 64.796875 
L 19.671875 37.40625 
L 32.078125 37.40625 
Q 38.96875 37.40625 42.71875 40.96875 
Q 46.484375 44.53125 46.484375 51.125 
Q 46.484375 57.671875 42.71875 61.234375 
Q 38.96875 64.796875 32.078125 64.796875 
z
M 9.8125 72.90625 
L 32.078125 72.90625 
Q 44.34375 72.90625 50.609375 67.359375 
Q 56.890625 61.8125 56.890625 51.125 
Q 56.890625 40.328125 50.609375 34.8125 
Q 44.34375 29.296875 32.078125 29.296875 
L 19.671875 29.296875 
L 19.671875 0 
L 9.8125 0 
z
" id="DejaVuSans-80"/>
      <path d="M 48.78125 52.59375 
L 48.78125 44.1875 
Q 44.96875 46.296875 41.140625 47.34375 
Q 37.3125 48.390625 33.40625 48.390625 
Q 24.65625 48.390625 19.8125 42.84375 
Q 14.984375 37.3125 14.984375 27.296875 
Q 14.984375 17.28125 19.8125 11.734375 
Q 24.65625 6.203125 33.40625 6.203125 
Q 37.3125 6.203125 41.140625 7.25 
Q 44.96875 8.296875 48.78125 10.40625 
L 48.78125 2.09375 
Q 45.015625 0.34375 40.984375 -0.53125 
Q 36.96875 -1.421875 32.421875 -1.421875 
Q 20.0625 -1.421875 12.78125 6.34375 
Q 5.515625 14.109375 5.515625 27.296875 
Q 5.515625 40.671875 12.859375 48.328125 
Q 20.21875 56 33.015625 56 
Q 37.15625 56 41.109375 55.140625 
Q 45.0625 54.296875 48.78125 52.59375 
z
" id="DejaVuSans-99"/>
     </defs>
     <g transform="translate(292.382812 169.43625)scale(0.15 -0.15)">
      <use xlink:href="#DejaVuSans-80"/>
      <use x="60.287109" xlink:href="#DejaVuSans-114"/>
      <use x="101.369141" xlink:href="#DejaVuSans-101"/>
      <use x="162.892578" xlink:href="#DejaVuSans-100"/>
      <use x="226.369141" xlink:href="#DejaVuSans-105"/>
      <use x="254.152344" xlink:href="#DejaVuSans-99"/>
      <use x="309.132812" xlink:href="#DejaVuSans-116"/>
      <use x="348.341797" xlink:href="#DejaVuSans-105"/>
      <use x="376.125" xlink:href="#DejaVuSans-111"/>
      <use x="437.306641" xlink:href="#DejaVuSans-110"/>
      <use x="500.685547" xlink:href="#DejaVuSans-115"/>
     </g>
    </g>
   </g>
  </g>
 </g>
 <defs>
  <clipPath id="p4988916215">
   <rect height="217.44" width="334.8" x="54" y="34.56"/>
  </clipPath>
 </defs>
</svg>
