<?xml version="1.0" encoding="utf-8" standalone="no"?>
<!DOCTYPE svg PUBLIC "-//W3C//DTD SVG 1.1//EN"
  "http://www.w3.org/Graphics/SVG/1.1/DTD/svg11.dtd">
<!-- Created with matplotlib (https://matplotlib.org/) -->
<svg height="504pt" version="1.1" viewBox="0 0 720 504" width="720pt" xmlns="http://www.w3.org/2000/svg" xmlns:xlink="http://www.w3.org/1999/xlink">
 <defs>
  <style type="text/css">
*{stroke-linecap:butt;stroke-linejoin:round;}
  </style>
 </defs>
 <g id="figure_1">
  <g id="patch_1">
   <path d="M 0 504 
L 720 504 
L 720 0 
L 0 0 
z
" style="fill:#ffffff;"/>
  </g>
  <g id="axes_1">
   <g id="patch_2">
    <path d="M 90 441 
L 648 441 
L 648 60.48 
L 90 60.48 
z
" style="fill:#ffffff;"/>
   </g>
   <g id="patch_3">
    <path clip-path="url(#p29924cba32)" d="M 88.228571 441 
L 91.771429 441 
L 91.771429 440.964663 
L 88.228571 440.964663 
z
" style="fill:#0000ff;opacity:0.1;"/>
   </g>
   <g id="patch_4">
    <path clip-path="url(#p29924cba32)" d="M 92.657143 441 
L 96.2 441 
L 96.2 440.958359 
L 92.657143 440.958359 
z
" style="fill:#0000ff;opacity:0.1;"/>
   </g>
   <g id="patch_5">
    <path clip-path="url(#p29924cba32)" d="M 97.085714 441 
L 100.628571 441 
L 100.628571 440.940086 
L 97.085714 440.940086 
z
" style="fill:#0000ff;opacity:0.1;"/>
   </g>
   <g id="patch_6">
    <path clip-path="url(#p29924cba32)" d="M 101.514286 441 
L 105.057143 441 
L 105.057143 440.908696 
L 101.514286 440.908696 
z
" style="fill:#0000ff;opacity:0.1;"/>
   </g>
   <g id="patch_7">
    <path clip-path="url(#p29924cba32)" d="M 105.942857 441 
L 109.485714 441 
L 109.485714 440.865146 
L 105.942857 440.865146 
z
" style="fill:#0000ff;opacity:0.1;"/>
   </g>
   <g id="patch_8">
    <path clip-path="url(#p29924cba32)" d="M 110.371429 441 
L 113.914286 441 
L 113.914286 440.813636 
L 110.371429 440.813636 
z
" style="fill:#0000ff;opacity:0.1;"/>
   </g>
   <g id="patch_9">
    <path clip-path="url(#p29924cba32)" d="M 114.8 441 
L 118.342857 441 
L 118.342857 440.644845 
L 114.8 440.644845 
z
" style="fill:#0000ff;opacity:0.1;"/>
   </g>
   <g id="patch_10">
    <path clip-path="url(#p29924cba32)" d="M 119.228571 441 
L 122.771429 441 
L 122.771429 440.607407 
L 119.228571 440.607407 
z
" style="fill:#0000ff;opacity:0.1;"/>
   </g>
   <g id="patch_11">
    <path clip-path="url(#p29924cba32)" d="M 123.657143 441 
L 127.2 441 
L 127.2 440.475736 
L 123.657143 440.475736 
z
" style="fill:#0000ff;opacity:0.1;"/>
   </g>
   <g id="patch_12">
    <path clip-path="url(#p29924cba32)" d="M 128.085714 441 
L 131.628571 441 
L 131.628571 440.367941 
L 128.085714 440.367941 
z
" style="fill:#0000ff;opacity:0.1;"/>
   </g>
   <g id="patch_13">
    <path clip-path="url(#p29924cba32)" d="M 132.514286 441 
L 136.057143 441 
L 136.057143 440.233533 
L 132.514286 440.233533 
z
" style="fill:#0000ff;opacity:0.1;"/>
   </g>
   <g id="patch_14">
    <path clip-path="url(#p29924cba32)" d="M 136.942857 441 
L 140.485714 441 
L 140.485714 439.931161 
L 136.942857 439.931161 
z
" style="fill:#0000ff;opacity:0.1;"/>
   </g>
   <g id="patch_15">
    <path clip-path="url(#p29924cba32)" d="M 141.371429 441 
L 144.914286 441 
L 144.914286 439.734164 
L 141.371429 439.734164 
z
" style="fill:#0000ff;opacity:0.1;"/>
   </g>
   <g id="patch_16">
    <path clip-path="url(#p29924cba32)" d="M 145.8 441 
L 149.342857 441 
L 149.342857 439.478781 
L 145.8 439.478781 
z
" style="fill:#0000ff;opacity:0.1;"/>
   </g>
   <g id="patch_17">
    <path clip-path="url(#p29924cba32)" d="M 150.228571 441 
L 153.771429 441 
L 153.771429 439.240461 
L 150.228571 439.240461 
z
" style="fill:#0000ff;opacity:0.1;"/>
   </g>
   <g id="patch_18">
    <path clip-path="url(#p29924cba32)" d="M 154.657143 441 
L 158.2 441 
L 158.2 439.039326 
L 154.657143 439.039326 
z
" style="fill:#0000ff;opacity:0.1;"/>
   </g>
   <g id="patch_19">
    <path clip-path="url(#p29924cba32)" d="M 159.085714 441 
L 162.628571 441 
L 162.628571 438.810302 
L 159.085714 438.810302 
z
" style="fill:#0000ff;opacity:0.1;"/>
   </g>
   <g id="patch_20">
    <path clip-path="url(#p29924cba32)" d="M 163.514286 441 
L 167.057143 441 
L 167.057143 438.636545 
L 163.514286 438.636545 
z
" style="fill:#0000ff;opacity:0.1;"/>
   </g>
   <g id="patch_21">
    <path clip-path="url(#p29924cba32)" d="M 167.942857 441 
L 171.485714 441 
L 171.485714 438.443623 
L 167.942857 438.443623 
z
" style="fill:#0000ff;opacity:0.1;"/>
   </g>
   <g id="patch_22">
    <path clip-path="url(#p29924cba32)" d="M 172.371429 441 
L 175.914286 441 
L 175.914286 438.277315 
L 172.371429 438.277315 
z
" style="fill:#0000ff;opacity:0.1;"/>
   </g>
   <g id="patch_23">
    <path clip-path="url(#p29924cba32)" d="M 176.8 441 
L 180.342857 441 
L 180.342857 438.147427 
L 176.8 438.147427 
z
" style="fill:#0000ff;opacity:0.1;"/>
   </g>
   <g id="patch_24">
    <path clip-path="url(#p29924cba32)" d="M 181.228571 441 
L 184.771429 441 
L 184.771429 438.120749 
L 181.228571 438.120749 
z
" style="fill:#0000ff;opacity:0.1;"/>
   </g>
   <g id="patch_25">
    <path clip-path="url(#p29924cba32)" d="M 185.657143 441 
L 189.2 441 
L 189.2 437.15633 
L 185.657143 437.15633 
z
" style="fill:#0000ff;opacity:0.1;"/>
   </g>
   <g id="patch_26">
    <path clip-path="url(#p29924cba32)" d="M 190.085714 441 
L 193.628571 441 
L 193.628571 436.741388 
L 190.085714 436.741388 
z
" style="fill:#0000ff;opacity:0.1;"/>
   </g>
   <g id="patch_27">
    <path clip-path="url(#p29924cba32)" d="M 194.514286 441 
L 198.057143 441 
L 198.057143 436.604815 
L 194.514286 436.604815 
z
" style="fill:#0000ff;opacity:0.1;"/>
   </g>
   <g id="patch_28">
    <path clip-path="url(#p29924cba32)" d="M 198.942857 441 
L 202.485714 441 
L 202.485714 436.465121 
L 198.942857 436.465121 
z
" style="fill:#0000ff;opacity:0.1;"/>
   </g>
   <g id="patch_29">
    <path clip-path="url(#p29924cba32)" d="M 203.371429 441 
L 206.914286 441 
L 206.914286 436.335615 
L 203.371429 436.335615 
z
" style="fill:#0000ff;opacity:0.1;"/>
   </g>
   <g id="patch_30">
    <path clip-path="url(#p29924cba32)" d="M 207.8 441 
L 211.342857 441 
L 211.342857 436.216042 
L 207.8 436.216042 
z
" style="fill:#0000ff;opacity:0.1;"/>
   </g>
   <g id="patch_31">
    <path clip-path="url(#p29924cba32)" d="M 212.228571 441 
L 215.771429 441 
L 215.771429 436.184015 
L 212.228571 436.184015 
z
" style="fill:#0000ff;opacity:0.1;"/>
   </g>
   <g id="patch_32">
    <path clip-path="url(#p29924cba32)" d="M 216.657143 441 
L 220.2 441 
L 220.2 436.148487 
L 216.657143 436.148487 
z
" style="fill:#0000ff;opacity:0.1;"/>
   </g>
   <g id="patch_33">
    <path clip-path="url(#p29924cba32)" d="M 221.085714 441 
L 224.628571 441 
L 224.628571 436.108884 
L 221.085714 436.108884 
z
" style="fill:#0000ff;opacity:0.1;"/>
   </g>
   <g id="patch_34">
    <path clip-path="url(#p29924cba32)" d="M 225.514286 441 
L 229.057143 441 
L 229.057143 435.997269 
L 225.514286 435.997269 
z
" style="fill:#0000ff;opacity:0.1;"/>
   </g>
   <g id="patch_35">
    <path clip-path="url(#p29924cba32)" d="M 229.942857 441 
L 233.485714 441 
L 233.485714 435.972692 
L 229.942857 435.972692 
z
" style="fill:#0000ff;opacity:0.1;"/>
   </g>
   <g id="patch_36">
    <path clip-path="url(#p29924cba32)" d="M 234.371429 441 
L 237.914286 441 
L 237.914286 435.934299 
L 234.371429 435.934299 
z
" style="fill:#0000ff;opacity:0.1;"/>
   </g>
   <g id="patch_37">
    <path clip-path="url(#p29924cba32)" d="M 238.8 441 
L 242.342857 441 
L 242.342857 435.880497 
L 238.8 435.880497 
z
" style="fill:#0000ff;opacity:0.1;"/>
   </g>
   <g id="patch_38">
    <path clip-path="url(#p29924cba32)" d="M 243.228571 441 
L 246.771429 441 
L 246.771429 435.817973 
L 243.228571 435.817973 
z
" style="fill:#0000ff;opacity:0.1;"/>
   </g>
   <g id="patch_39">
    <path clip-path="url(#p29924cba32)" d="M 247.657143 441 
L 251.2 441 
L 251.2 435.731508 
L 247.657143 435.731508 
z
" style="fill:#0000ff;opacity:0.1;"/>
   </g>
   <g id="patch_40">
    <path clip-path="url(#p29924cba32)" d="M 252.085714 441 
L 255.628571 441 
L 255.628571 435.644534 
L 252.085714 435.644534 
z
" style="fill:#0000ff;opacity:0.1;"/>
   </g>
   <g id="patch_41">
    <path clip-path="url(#p29924cba32)" d="M 256.514286 441 
L 260.057143 441 
L 260.057143 435.523623 
L 256.514286 435.523623 
z
" style="fill:#0000ff;opacity:0.1;"/>
   </g>
   <g id="patch_42">
    <path clip-path="url(#p29924cba32)" d="M 260.942857 441 
L 264.485714 441 
L 264.485714 435.373488 
L 260.942857 435.373488 
z
" style="fill:#0000ff;opacity:0.1;"/>
   </g>
   <g id="patch_43">
    <path clip-path="url(#p29924cba32)" d="M 265.371429 441 
L 268.914286 441 
L 268.914286 435.250158 
L 265.371429 435.250158 
z
" style="fill:#0000ff;opacity:0.1;"/>
   </g>
   <g id="patch_44">
    <path clip-path="url(#p29924cba32)" d="M 269.8 441 
L 273.342857 441 
L 273.342857 435.088816 
L 269.8 435.088816 
z
" style="fill:#0000ff;opacity:0.1;"/>
   </g>
   <g id="patch_45">
    <path clip-path="url(#p29924cba32)" d="M 274.228571 441 
L 277.771429 441 
L 277.771429 434.943647 
L 274.228571 434.943647 
z
" style="fill:#0000ff;opacity:0.1;"/>
   </g>
   <g id="patch_46">
    <path clip-path="url(#p29924cba32)" d="M 278.657143 441 
L 282.2 441 
L 282.2 434.767407 
L 278.657143 434.767407 
z
" style="fill:#0000ff;opacity:0.1;"/>
   </g>
   <g id="patch_47">
    <path clip-path="url(#p29924cba32)" d="M 283.085714 441 
L 286.628571 441 
L 286.628571 434.517945 
L 283.085714 434.517945 
z
" style="fill:#0000ff;opacity:0.1;"/>
   </g>
   <g id="patch_48">
    <path clip-path="url(#p29924cba32)" d="M 287.514286 441 
L 291.057143 441 
L 291.057143 434.260588 
L 287.514286 434.260588 
z
" style="fill:#0000ff;opacity:0.1;"/>
   </g>
   <g id="patch_49">
    <path clip-path="url(#p29924cba32)" d="M 291.942857 441 
L 295.485714 441 
L 295.485714 434.007561 
L 291.942857 434.007561 
z
" style="fill:#0000ff;opacity:0.1;"/>
   </g>
   <g id="patch_50">
    <path clip-path="url(#p29924cba32)" d="M 296.371429 441 
L 299.914286 441 
L 299.914286 433.767332 
L 296.371429 433.767332 
z
" style="fill:#0000ff;opacity:0.1;"/>
   </g>
   <g id="patch_51">
    <path clip-path="url(#p29924cba32)" d="M 300.8 441 
L 304.342857 441 
L 304.342857 433.447196 
L 300.8 433.447196 
z
" style="fill:#0000ff;opacity:0.1;"/>
   </g>
   <g id="patch_52">
    <path clip-path="url(#p29924cba32)" d="M 305.228571 441 
L 308.771429 441 
L 308.771429 432.985202 
L 305.228571 432.985202 
z
" style="fill:#0000ff;opacity:0.1;"/>
   </g>
   <g id="patch_53">
    <path clip-path="url(#p29924cba32)" d="M 309.657143 441 
L 313.2 441 
L 313.2 432.658698 
L 309.657143 432.658698 
z
" style="fill:#0000ff;opacity:0.1;"/>
   </g>
   <g id="patch_54">
    <path clip-path="url(#p29924cba32)" d="M 314.085714 441 
L 317.628571 441 
L 317.628571 431.753429 
L 314.085714 431.753429 
z
" style="fill:#0000ff;opacity:0.1;"/>
   </g>
   <g id="patch_55">
    <path clip-path="url(#p29924cba32)" d="M 318.514286 441 
L 322.057143 441 
L 322.057143 431.059737 
L 318.514286 431.059737 
z
" style="fill:#0000ff;opacity:0.1;"/>
   </g>
   <g id="patch_56">
    <path clip-path="url(#p29924cba32)" d="M 322.942857 441 
L 326.485714 441 
L 326.485714 430.33472 
L 322.942857 430.33472 
z
" style="fill:#0000ff;opacity:0.1;"/>
   </g>
   <g id="patch_57">
    <path clip-path="url(#p29924cba32)" d="M 327.371429 441 
L 330.914286 441 
L 330.914286 429.434034 
L 327.371429 429.434034 
z
" style="fill:#0000ff;opacity:0.1;"/>
   </g>
   <g id="patch_58">
    <path clip-path="url(#p29924cba32)" d="M 331.8 441 
L 335.342857 441 
L 335.342857 428.44733 
L 331.8 428.44733 
z
" style="fill:#0000ff;opacity:0.1;"/>
   </g>
   <g id="patch_59">
    <path clip-path="url(#p29924cba32)" d="M 336.228571 441 
L 339.771429 441 
L 339.771429 427.318895 
L 336.228571 427.318895 
z
" style="fill:#0000ff;opacity:0.1;"/>
   </g>
   <g id="patch_60">
    <path clip-path="url(#p29924cba32)" d="M 340.657143 441 
L 344.2 441 
L 344.2 425.551462 
L 340.657143 425.551462 
z
" style="fill:#0000ff;opacity:0.1;"/>
   </g>
   <g id="patch_61">
    <path clip-path="url(#p29924cba32)" d="M 345.085714 441 
L 348.628571 441 
L 348.628571 423.664773 
L 345.085714 423.664773 
z
" style="fill:#0000ff;opacity:0.1;"/>
   </g>
   <g id="patch_62">
    <path clip-path="url(#p29924cba32)" d="M 349.514286 441 
L 353.057143 441 
L 353.057143 421.607192 
L 349.514286 421.607192 
z
" style="fill:#0000ff;opacity:0.1;"/>
   </g>
   <g id="patch_63">
    <path clip-path="url(#p29924cba32)" d="M 353.942857 441 
L 357.485714 441 
L 357.485714 419.541588 
L 353.942857 419.541588 
z
" style="fill:#0000ff;opacity:0.1;"/>
   </g>
   <g id="patch_64">
    <path clip-path="url(#p29924cba32)" d="M 358.371429 441 
L 361.914286 441 
L 361.914286 416.913327 
L 358.371429 416.913327 
z
" style="fill:#0000ff;opacity:0.1;"/>
   </g>
   <g id="patch_65">
    <path clip-path="url(#p29924cba32)" d="M 362.8 441 
L 366.342857 441 
L 366.342857 414.366883 
L 362.8 414.366883 
z
" style="fill:#0000ff;opacity:0.1;"/>
   </g>
   <g id="patch_66">
    <path clip-path="url(#p29924cba32)" d="M 367.228571 441 
L 370.771429 441 
L 370.771429 411.213785 
L 367.228571 411.213785 
z
" style="fill:#0000ff;opacity:0.1;"/>
   </g>
   <g id="patch_67">
    <path clip-path="url(#p29924cba32)" d="M 371.657143 441 
L 375.2 441 
L 375.2 407.272253 
L 371.657143 407.272253 
z
" style="fill:#0000ff;opacity:0.1;"/>
   </g>
   <g id="patch_68">
    <path clip-path="url(#p29924cba32)" d="M 376.085714 441 
L 379.628571 441 
L 379.628571 403.194657 
L 376.085714 403.194657 
z
" style="fill:#0000ff;opacity:0.1;"/>
   </g>
   <g id="patch_69">
    <path clip-path="url(#p29924cba32)" d="M 380.514286 441 
L 384.057143 441 
L 384.057143 398.902618 
L 380.514286 398.902618 
z
" style="fill:#0000ff;opacity:0.1;"/>
   </g>
   <g id="patch_70">
    <path clip-path="url(#p29924cba32)" d="M 384.942857 441 
L 388.485714 441 
L 388.485714 395.1386 
L 384.942857 395.1386 
z
" style="fill:#0000ff;opacity:0.1;"/>
   </g>
   <g id="patch_71">
    <path clip-path="url(#p29924cba32)" d="M 389.371429 441 
L 392.914286 441 
L 392.914286 391.157592 
L 389.371429 391.157592 
z
" style="fill:#0000ff;opacity:0.1;"/>
   </g>
   <g id="patch_72">
    <path clip-path="url(#p29924cba32)" d="M 393.8 441 
L 397.342857 441 
L 397.342857 386.395537 
L 393.8 386.395537 
z
" style="fill:#0000ff;opacity:0.1;"/>
   </g>
   <g id="patch_73">
    <path clip-path="url(#p29924cba32)" d="M 398.228571 441 
L 401.771429 441 
L 401.771429 381.594642 
L 398.228571 381.594642 
z
" style="fill:#0000ff;opacity:0.1;"/>
   </g>
   <g id="patch_74">
    <path clip-path="url(#p29924cba32)" d="M 402.657143 441 
L 406.2 441 
L 406.2 376.446678 
L 402.657143 376.446678 
z
" style="fill:#0000ff;opacity:0.1;"/>
   </g>
   <g id="patch_75">
    <path clip-path="url(#p29924cba32)" d="M 407.085714 441 
L 410.628571 441 
L 410.628571 371.196332 
L 407.085714 371.196332 
z
" style="fill:#0000ff;opacity:0.1;"/>
   </g>
   <g id="patch_76">
    <path clip-path="url(#p29924cba32)" d="M 411.514286 441 
L 415.057143 441 
L 415.057143 366.095549 
L 411.514286 366.095549 
z
" style="fill:#0000ff;opacity:0.1;"/>
   </g>
   <g id="patch_77">
    <path clip-path="url(#p29924cba32)" d="M 415.942857 441 
L 419.485714 441 
L 419.485714 361.428044 
L 415.942857 361.428044 
z
" style="fill:#0000ff;opacity:0.1;"/>
   </g>
   <g id="patch_78">
    <path clip-path="url(#p29924cba32)" d="M 420.371429 441 
L 423.914286 441 
L 423.914286 356.863304 
L 420.371429 356.863304 
z
" style="fill:#0000ff;opacity:0.1;"/>
   </g>
   <g id="patch_79">
    <path clip-path="url(#p29924cba32)" d="M 424.8 441 
L 428.342857 441 
L 428.342857 352.087877 
L 424.8 352.087877 
z
" style="fill:#0000ff;opacity:0.1;"/>
   </g>
   <g id="patch_80">
    <path clip-path="url(#p29924cba32)" d="M 429.228571 441 
L 432.771429 441 
L 432.771429 346.752658 
L 429.228571 346.752658 
z
" style="fill:#0000ff;opacity:0.1;"/>
   </g>
   <g id="patch_81">
    <path clip-path="url(#p29924cba32)" d="M 433.657143 441 
L 437.2 441 
L 437.2 341.285259 
L 433.657143 341.285259 
z
" style="fill:#0000ff;opacity:0.1;"/>
   </g>
   <g id="patch_82">
    <path clip-path="url(#p29924cba32)" d="M 438.085714 441 
L 441.628571 441 
L 441.628571 335.417435 
L 438.085714 335.417435 
z
" style="fill:#0000ff;opacity:0.1;"/>
   </g>
   <g id="patch_83">
    <path clip-path="url(#p29924cba32)" d="M 442.514286 441 
L 446.057143 441 
L 446.057143 330.44151 
L 442.514286 330.44151 
z
" style="fill:#0000ff;opacity:0.1;"/>
   </g>
   <g id="patch_84">
    <path clip-path="url(#p29924cba32)" d="M 446.942857 441 
L 450.485714 441 
L 450.485714 324.155115 
L 446.942857 324.155115 
z
" style="fill:#0000ff;opacity:0.1;"/>
   </g>
   <g id="patch_85">
    <path clip-path="url(#p29924cba32)" d="M 451.371429 441 
L 454.914286 441 
L 454.914286 319.696896 
L 451.371429 319.696896 
z
" style="fill:#0000ff;opacity:0.1;"/>
   </g>
   <g id="patch_86">
    <path clip-path="url(#p29924cba32)" d="M 455.8 441 
L 459.342857 441 
L 459.342857 315.214418 
L 455.8 315.214418 
z
" style="fill:#0000ff;opacity:0.1;"/>
   </g>
   <g id="patch_87">
    <path clip-path="url(#p29924cba32)" d="M 460.228571 441 
L 463.771429 441 
L 463.771429 310.109177 
L 460.228571 310.109177 
z
" style="fill:#0000ff;opacity:0.1;"/>
   </g>
   <g id="patch_88">
    <path clip-path="url(#p29924cba32)" d="M 464.657143 441 
L 468.2 441 
L 468.2 303.969225 
L 464.657143 303.969225 
z
" style="fill:#0000ff;opacity:0.1;"/>
   </g>
   <g id="patch_89">
    <path clip-path="url(#p29924cba32)" d="M 469.085714 441 
L 472.628571 441 
L 472.628571 298.378368 
L 469.085714 298.378368 
z
" style="fill:#0000ff;opacity:0.1;"/>
   </g>
   <g id="patch_90">
    <path clip-path="url(#p29924cba32)" d="M 473.514286 441 
L 477.057143 441 
L 477.057143 293.434597 
L 473.514286 293.434597 
z
" style="fill:#0000ff;opacity:0.1;"/>
   </g>
   <g id="patch_91">
    <path clip-path="url(#p29924cba32)" d="M 477.942857 441 
L 481.485714 441 
L 481.485714 288.140318 
L 477.942857 288.140318 
z
" style="fill:#0000ff;opacity:0.1;"/>
   </g>
   <g id="patch_92">
    <path clip-path="url(#p29924cba32)" d="M 482.371429 441 
L 485.914286 441 
L 485.914286 283.5992 
L 482.371429 283.5992 
z
" style="fill:#0000ff;opacity:0.1;"/>
   </g>
   <g id="patch_93">
    <path clip-path="url(#p29924cba32)" d="M 486.8 441 
L 490.342857 441 
L 490.342857 278.70057 
L 486.8 278.70057 
z
" style="fill:#0000ff;opacity:0.1;"/>
   </g>
   <g id="patch_94">
    <path clip-path="url(#p29924cba32)" d="M 491.228571 441 
L 494.771429 441 
L 494.771429 273.889488 
L 491.228571 273.889488 
z
" style="fill:#0000ff;opacity:0.1;"/>
   </g>
   <g id="patch_95">
    <path clip-path="url(#p29924cba32)" d="M 495.657143 441 
L 499.2 441 
L 499.2 268.554206 
L 495.657143 268.554206 
z
" style="fill:#0000ff;opacity:0.1;"/>
   </g>
   <g id="patch_96">
    <path clip-path="url(#p29924cba32)" d="M 500.085714 441 
L 503.628571 441 
L 503.628571 262.993975 
L 500.085714 262.993975 
z
" style="fill:#0000ff;opacity:0.1;"/>
   </g>
   <g id="patch_97">
    <path clip-path="url(#p29924cba32)" d="M 504.514286 441 
L 508.057143 441 
L 508.057143 257.555928 
L 504.514286 257.555928 
z
" style="fill:#0000ff;opacity:0.1;"/>
   </g>
   <g id="patch_98">
    <path clip-path="url(#p29924cba32)" d="M 508.942857 441 
L 512.485714 441 
L 512.485714 252.851112 
L 508.942857 252.851112 
z
" style="fill:#0000ff;opacity:0.1;"/>
   </g>
   <g id="patch_99">
    <path clip-path="url(#p29924cba32)" d="M 513.371429 441 
L 516.914286 441 
L 516.914286 248.477638 
L 513.371429 248.477638 
z
" style="fill:#0000ff;opacity:0.1;"/>
   </g>
   <g id="patch_100">
    <path clip-path="url(#p29924cba32)" d="M 517.8 441 
L 521.342857 441 
L 521.342857 243.797399 
L 517.8 243.797399 
z
" style="fill:#0000ff;opacity:0.1;"/>
   </g>
   <g id="patch_101">
    <path clip-path="url(#p29924cba32)" d="M 522.228571 441 
L 525.771429 441 
L 525.771429 239.018407 
L 522.228571 239.018407 
z
" style="fill:#0000ff;opacity:0.1;"/>
   </g>
   <g id="patch_102">
    <path clip-path="url(#p29924cba32)" d="M 526.657143 441 
L 530.2 441 
L 530.2 233.630406 
L 526.657143 233.630406 
z
" style="fill:#0000ff;opacity:0.1;"/>
   </g>
   <g id="patch_103">
    <path clip-path="url(#p29924cba32)" d="M 531.085714 441 
L 534.628571 441 
L 534.628571 227.986129 
L 531.085714 227.986129 
z
" style="fill:#0000ff;opacity:0.1;"/>
   </g>
   <g id="patch_104">
    <path clip-path="url(#p29924cba32)" d="M 535.514286 441 
L 539.057143 441 
L 539.057143 222.76348 
L 535.514286 222.76348 
z
" style="fill:#0000ff;opacity:0.1;"/>
   </g>
   <g id="patch_105">
    <path clip-path="url(#p29924cba32)" d="M 539.942857 441 
L 543.485714 441 
L 543.485714 217.724266 
L 539.942857 217.724266 
z
" style="fill:#0000ff;opacity:0.1;"/>
   </g>
   <g id="patch_106">
    <path clip-path="url(#p29924cba32)" d="M 544.371429 441 
L 547.914286 441 
L 547.914286 212.86454 
L 544.371429 212.86454 
z
" style="fill:#0000ff;opacity:0.1;"/>
   </g>
   <g id="patch_107">
    <path clip-path="url(#p29924cba32)" d="M 548.8 441 
L 552.342857 441 
L 552.342857 207.794063 
L 548.8 207.794063 
z
" style="fill:#0000ff;opacity:0.1;"/>
   </g>
   <g id="patch_108">
    <path clip-path="url(#p29924cba32)" d="M 553.228571 441 
L 556.771429 441 
L 556.771429 201.848625 
L 553.228571 201.848625 
z
" style="fill:#0000ff;opacity:0.1;"/>
   </g>
   <g id="patch_109">
    <path clip-path="url(#p29924cba32)" d="M 557.657143 441 
L 561.2 441 
L 561.2 196.140614 
L 557.657143 196.140614 
z
" style="fill:#0000ff;opacity:0.1;"/>
   </g>
   <g id="patch_110">
    <path clip-path="url(#p29924cba32)" d="M 562.085714 441 
L 565.628571 441 
L 565.628571 190.260884 
L 562.085714 190.260884 
z
" style="fill:#0000ff;opacity:0.1;"/>
   </g>
   <g id="patch_111">
    <path clip-path="url(#p29924cba32)" d="M 566.514286 441 
L 570.057143 441 
L 570.057143 184.788709 
L 566.514286 184.788709 
z
" style="fill:#0000ff;opacity:0.1;"/>
   </g>
   <g id="patch_112">
    <path clip-path="url(#p29924cba32)" d="M 570.942857 441 
L 574.485714 441 
L 574.485714 179.842136 
L 570.942857 179.842136 
z
" style="fill:#0000ff;opacity:0.1;"/>
   </g>
   <g id="patch_113">
    <path clip-path="url(#p29924cba32)" d="M 575.371429 441 
L 578.914286 441 
L 578.914286 175.01571 
L 575.371429 175.01571 
z
" style="fill:#0000ff;opacity:0.1;"/>
   </g>
   <g id="patch_114">
    <path clip-path="url(#p29924cba32)" d="M 579.8 441 
L 583.342857 441 
L 583.342857 169.651775 
L 579.8 169.651775 
z
" style="fill:#0000ff;opacity:0.1;"/>
   </g>
   <g id="patch_115">
    <path clip-path="url(#p29924cba32)" d="M 584.228571 441 
L 587.771429 441 
L 587.771429 164.222515 
L 584.228571 164.222515 
z
" style="fill:#0000ff;opacity:0.1;"/>
   </g>
   <g id="patch_116">
    <path clip-path="url(#p29924cba32)" d="M 588.657143 441 
L 592.2 441 
L 592.2 158.16457 
L 588.657143 158.16457 
z
" style="fill:#0000ff;opacity:0.1;"/>
   </g>
   <g id="patch_117">
    <path clip-path="url(#p29924cba32)" d="M 593.085714 441 
L 596.628571 441 
L 596.628571 151.785789 
L 593.085714 151.785789 
z
" style="fill:#0000ff;opacity:0.1;"/>
   </g>
   <g id="patch_118">
    <path clip-path="url(#p29924cba32)" d="M 597.514286 441 
L 601.057143 441 
L 601.057143 145.945853 
L 597.514286 145.945853 
z
" style="fill:#0000ff;opacity:0.1;"/>
   </g>
   <g id="patch_119">
    <path clip-path="url(#p29924cba32)" d="M 601.942857 441 
L 605.485714 441 
L 605.485714 140.880725 
L 601.942857 140.880725 
z
" style="fill:#0000ff;opacity:0.1;"/>
   </g>
   <g id="patch_120">
    <path clip-path="url(#p29924cba32)" d="M 606.371429 441 
L 609.914286 441 
L 609.914286 135.257142 
L 606.371429 135.257142 
z
" style="fill:#0000ff;opacity:0.1;"/>
   </g>
   <g id="patch_121">
    <path clip-path="url(#p29924cba32)" d="M 610.8 441 
L 614.342857 441 
L 614.342857 129.173474 
L 610.8 129.173474 
z
" style="fill:#0000ff;opacity:0.1;"/>
   </g>
   <g id="patch_122">
    <path clip-path="url(#p29924cba32)" d="M 615.228571 441 
L 618.771429 441 
L 618.771429 122.871353 
L 615.228571 122.871353 
z
" style="fill:#0000ff;opacity:0.1;"/>
   </g>
   <g id="patch_123">
    <path clip-path="url(#p29924cba32)" d="M 619.657143 441 
L 623.2 441 
L 623.2 116.12532 
L 619.657143 116.12532 
z
" style="fill:#0000ff;opacity:0.1;"/>
   </g>
   <g id="patch_124">
    <path clip-path="url(#p29924cba32)" d="M 624.085714 441 
L 627.628571 441 
L 627.628571 109.202282 
L 624.085714 109.202282 
z
" style="fill:#0000ff;opacity:0.1;"/>
   </g>
   <g id="patch_125">
    <path clip-path="url(#p29924cba32)" d="M 628.514286 441 
L 632.057143 441 
L 632.057143 102.843875 
L 628.514286 102.843875 
z
" style="fill:#0000ff;opacity:0.1;"/>
   </g>
   <g id="patch_126">
    <path clip-path="url(#p29924cba32)" d="M 632.942857 441 
L 636.485714 441 
L 636.485714 96.693736 
L 632.942857 96.693736 
z
" style="fill:#0000ff;opacity:0.1;"/>
   </g>
   <g id="patch_127">
    <path clip-path="url(#p29924cba32)" d="M 637.371429 441 
L 640.914286 441 
L 640.914286 91.125864 
L 637.371429 91.125864 
z
" style="fill:#0000ff;opacity:0.1;"/>
   </g>
   <g id="patch_128">
    <path clip-path="url(#p29924cba32)" d="M 641.8 441 
L 645.342857 441 
L 645.342857 85.104849 
L 641.8 85.104849 
z
" style="fill:#0000ff;opacity:0.1;"/>
   </g>
   <g id="patch_129">
    <path clip-path="url(#p29924cba32)" d="M 646.228571 441 
L 649.771429 441 
L 649.771429 78.6 
L 646.228571 78.6 
z
" style="fill:#0000ff;opacity:0.1;"/>
   </g>
   <g id="matplotlib.axis_1">
    <g id="xtick_1">
     <g id="line2d_1">
      <defs>
       <path d="M 0 0 
L 0 3.5 
" id="mc88c7a6d32" style="stroke:#000000;stroke-width:0.8;"/>
      </defs>
      <g>
       <use style="stroke:#000000;stroke-width:0.8;" x="90" xlink:href="#mc88c7a6d32" y="441"/>
      </g>
     </g>
    </g>
    <g id="xtick_2">
     <g id="line2d_2">
      <g>
       <use style="stroke:#000000;stroke-width:0.8;" x="134.285714" xlink:href="#mc88c7a6d32" y="441"/>
      </g>
     </g>
     <g id="text_1">
      <!-- Feb -->
      <defs>
       <path d="M 9.8125 72.90625 
L 51.703125 72.90625 
L 51.703125 64.59375 
L 19.671875 64.59375 
L 19.671875 43.109375 
L 48.578125 43.109375 
L 48.578125 34.8125 
L 19.671875 34.8125 
L 19.671875 0 
L 9.8125 0 
z
" id="DejaVuSans-70"/>
       <path d="M 56.203125 29.59375 
L 56.203125 25.203125 
L 14.890625 25.203125 
Q 15.484375 15.921875 20.484375 11.0625 
Q 25.484375 6.203125 34.421875 6.203125 
Q 39.59375 6.203125 44.453125 7.46875 
Q 49.3125 8.734375 54.109375 11.28125 
L 54.109375 2.78125 
Q 49.265625 0.734375 44.1875 -0.34375 
Q 39.109375 -1.421875 33.890625 -1.421875 
Q 20.796875 -1.421875 13.15625 6.1875 
Q 5.515625 13.8125 5.515625 26.8125 
Q 5.515625 40.234375 12.765625 48.109375 
Q 20.015625 56 32.328125 56 
Q 43.359375 56 49.78125 48.890625 
Q 56.203125 41.796875 56.203125 29.59375 
z
M 47.21875 32.234375 
Q 47.125 39.59375 43.09375 43.984375 
Q 39.0625 48.390625 32.421875 48.390625 
Q 24.90625 48.390625 20.390625 44.140625 
Q 15.875 39.890625 15.1875 32.171875 
z
" id="DejaVuSans-101"/>
       <path d="M 48.6875 27.296875 
Q 48.6875 37.203125 44.609375 42.84375 
Q 40.53125 48.484375 33.40625 48.484375 
Q 26.265625 48.484375 22.1875 42.84375 
Q 18.109375 37.203125 18.109375 27.296875 
Q 18.109375 17.390625 22.1875 11.75 
Q 26.265625 6.109375 33.40625 6.109375 
Q 40.53125 6.109375 44.609375 11.75 
Q 48.6875 17.390625 48.6875 27.296875 
z
M 18.109375 46.390625 
Q 20.953125 51.265625 25.265625 53.625 
Q 29.59375 56 35.59375 56 
Q 45.5625 56 51.78125 48.09375 
Q 58.015625 40.1875 58.015625 27.296875 
Q 58.015625 14.40625 51.78125 6.484375 
Q 45.5625 -1.421875 35.59375 -1.421875 
Q 29.59375 -1.421875 25.265625 0.953125 
Q 20.953125 3.328125 18.109375 8.203125 
L 18.109375 0 
L 9.078125 0 
L 9.078125 75.984375 
L 18.109375 75.984375 
z
" id="DejaVuSans-98"/>
      </defs>
      <g transform="translate(120.60173 459.397656)scale(0.15 -0.15)">
       <use xlink:href="#DejaVuSans-70"/>
       <use x="57.441406" xlink:href="#DejaVuSans-101"/>
       <use x="118.964844" xlink:href="#DejaVuSans-98"/>
      </g>
      <!-- 2020 -->
      <defs>
       <path d="M 19.1875 8.296875 
L 53.609375 8.296875 
L 53.609375 0 
L 7.328125 0 
L 7.328125 8.296875 
Q 12.9375 14.109375 22.625 23.890625 
Q 32.328125 33.6875 34.8125 36.53125 
Q 39.546875 41.84375 41.421875 45.53125 
Q 43.3125 49.21875 43.3125 52.78125 
Q 43.3125 58.59375 39.234375 62.25 
Q 35.15625 65.921875 28.609375 65.921875 
Q 23.96875 65.921875 18.8125 64.3125 
Q 13.671875 62.703125 7.8125 59.421875 
L 7.8125 69.390625 
Q 13.765625 71.78125 18.9375 73 
Q 24.125 74.21875 28.421875 74.21875 
Q 39.75 74.21875 46.484375 68.546875 
Q 53.21875 62.890625 53.21875 53.421875 
Q 53.21875 48.921875 51.53125 44.890625 
Q 49.859375 40.875 45.40625 35.40625 
Q 44.1875 33.984375 37.640625 27.21875 
Q 31.109375 20.453125 19.1875 8.296875 
z
" id="DejaVuSans-50"/>
       <path d="M 31.78125 66.40625 
Q 24.171875 66.40625 20.328125 58.90625 
Q 16.5 51.421875 16.5 36.375 
Q 16.5 21.390625 20.328125 13.890625 
Q 24.171875 6.390625 31.78125 6.390625 
Q 39.453125 6.390625 43.28125 13.890625 
Q 47.125 21.390625 47.125 36.375 
Q 47.125 51.421875 43.28125 58.90625 
Q 39.453125 66.40625 31.78125 66.40625 
z
M 31.78125 74.21875 
Q 44.046875 74.21875 50.515625 64.515625 
Q 56.984375 54.828125 56.984375 36.375 
Q 56.984375 17.96875 50.515625 8.265625 
Q 44.046875 -1.421875 31.78125 -1.421875 
Q 19.53125 -1.421875 13.0625 8.265625 
Q 6.59375 17.96875 6.59375 36.375 
Q 6.59375 54.828125 13.0625 64.515625 
Q 19.53125 74.21875 31.78125 74.21875 
z
" id="DejaVuSans-48"/>
      </defs>
      <g transform="translate(115.198214 476.194375)scale(0.15 -0.15)">
       <use xlink:href="#DejaVuSans-50"/>
       <use x="63.623047" xlink:href="#DejaVuSans-48"/>
       <use x="127.246094" xlink:href="#DejaVuSans-50"/>
       <use x="190.869141" xlink:href="#DejaVuSans-48"/>
      </g>
     </g>
    </g>
    <g id="xtick_3">
     <g id="line2d_3">
      <g>
       <use style="stroke:#000000;stroke-width:0.8;" x="262.714286" xlink:href="#mc88c7a6d32" y="441"/>
      </g>
     </g>
     <g id="text_2">
      <!-- Mar -->
      <defs>
       <path d="M 9.8125 72.90625 
L 24.515625 72.90625 
L 43.109375 23.296875 
L 61.8125 72.90625 
L 76.515625 72.90625 
L 76.515625 0 
L 66.890625 0 
L 66.890625 64.015625 
L 48.09375 14.015625 
L 38.1875 14.015625 
L 19.390625 64.015625 
L 19.390625 0 
L 9.8125 0 
z
" id="DejaVuSans-77"/>
       <path d="M 34.28125 27.484375 
Q 23.390625 27.484375 19.1875 25 
Q 14.984375 22.515625 14.984375 16.5 
Q 14.984375 11.71875 18.140625 8.90625 
Q 21.296875 6.109375 26.703125 6.109375 
Q 34.1875 6.109375 38.703125 11.40625 
Q 43.21875 16.703125 43.21875 25.484375 
L 43.21875 27.484375 
z
M 52.203125 31.203125 
L 52.203125 0 
L 43.21875 0 
L 43.21875 8.296875 
Q 40.140625 3.328125 35.546875 0.953125 
Q 30.953125 -1.421875 24.3125 -1.421875 
Q 15.921875 -1.421875 10.953125 3.296875 
Q 6 8.015625 6 15.921875 
Q 6 25.140625 12.171875 29.828125 
Q 18.359375 34.515625 30.609375 34.515625 
L 43.21875 34.515625 
L 43.21875 35.40625 
Q 43.21875 41.609375 39.140625 45 
Q 35.0625 48.390625 27.6875 48.390625 
Q 23 48.390625 18.546875 47.265625 
Q 14.109375 46.140625 10.015625 43.890625 
L 10.015625 52.203125 
Q 14.9375 54.109375 19.578125 55.046875 
Q 24.21875 56 28.609375 56 
Q 40.484375 56 46.34375 49.84375 
Q 52.203125 43.703125 52.203125 31.203125 
z
" id="DejaVuSans-97"/>
       <path d="M 41.109375 46.296875 
Q 39.59375 47.171875 37.8125 47.578125 
Q 36.03125 48 33.890625 48 
Q 26.265625 48 22.1875 43.046875 
Q 18.109375 38.09375 18.109375 28.8125 
L 18.109375 0 
L 9.078125 0 
L 9.078125 54.6875 
L 18.109375 54.6875 
L 18.109375 46.1875 
Q 20.953125 51.171875 25.484375 53.578125 
Q 30.03125 56 36.53125 56 
Q 37.453125 56 38.578125 55.875 
Q 39.703125 55.765625 41.0625 55.515625 
z
" id="DejaVuSans-114"/>
      </defs>
      <g transform="translate(248.563895 459.397656)scale(0.15 -0.15)">
       <use xlink:href="#DejaVuSans-77"/>
       <use x="86.279297" xlink:href="#DejaVuSans-97"/>
       <use x="147.558594" xlink:href="#DejaVuSans-114"/>
      </g>
     </g>
    </g>
    <g id="xtick_4">
     <g id="line2d_4">
      <g>
       <use style="stroke:#000000;stroke-width:0.8;" x="400" xlink:href="#mc88c7a6d32" y="441"/>
      </g>
     </g>
     <g id="text_3">
      <!-- Apr -->
      <defs>
       <path d="M 34.1875 63.1875 
L 20.796875 26.90625 
L 47.609375 26.90625 
z
M 28.609375 72.90625 
L 39.796875 72.90625 
L 67.578125 0 
L 57.328125 0 
L 50.6875 18.703125 
L 17.828125 18.703125 
L 11.1875 0 
L 0.78125 0 
z
" id="DejaVuSans-65"/>
       <path d="M 18.109375 8.203125 
L 18.109375 -20.796875 
L 9.078125 -20.796875 
L 9.078125 54.6875 
L 18.109375 54.6875 
L 18.109375 46.390625 
Q 20.953125 51.265625 25.265625 53.625 
Q 29.59375 56 35.59375 56 
Q 45.5625 56 51.78125 48.09375 
Q 58.015625 40.1875 58.015625 27.296875 
Q 58.015625 14.40625 51.78125 6.484375 
Q 45.5625 -1.421875 35.59375 -1.421875 
Q 29.59375 -1.421875 25.265625 0.953125 
Q 20.953125 3.328125 18.109375 8.203125 
z
M 48.6875 27.296875 
Q 48.6875 37.203125 44.609375 42.84375 
Q 40.53125 48.484375 33.40625 48.484375 
Q 26.265625 48.484375 22.1875 42.84375 
Q 18.109375 37.203125 18.109375 27.296875 
Q 18.109375 17.390625 22.1875 11.75 
Q 26.265625 6.109375 33.40625 6.109375 
Q 40.53125 6.109375 44.609375 11.75 
Q 48.6875 17.390625 48.6875 27.296875 
z
" id="DejaVuSans-112"/>
      </defs>
      <g transform="translate(387.025 459.397656)scale(0.15 -0.15)">
       <use xlink:href="#DejaVuSans-65"/>
       <use x="68.408203" xlink:href="#DejaVuSans-112"/>
       <use x="131.884766" xlink:href="#DejaVuSans-114"/>
      </g>
     </g>
    </g>
    <g id="xtick_5">
     <g id="line2d_5">
      <g>
       <use style="stroke:#000000;stroke-width:0.8;" x="532.857143" xlink:href="#mc88c7a6d32" y="441"/>
      </g>
     </g>
     <g id="text_4">
      <!-- May -->
      <defs>
       <path d="M 32.171875 -5.078125 
Q 28.375 -14.84375 24.75 -17.8125 
Q 21.140625 -20.796875 15.09375 -20.796875 
L 7.90625 -20.796875 
L 7.90625 -13.28125 
L 13.1875 -13.28125 
Q 16.890625 -13.28125 18.9375 -11.515625 
Q 21 -9.765625 23.484375 -3.21875 
L 25.09375 0.875 
L 2.984375 54.6875 
L 12.5 54.6875 
L 29.59375 11.921875 
L 46.6875 54.6875 
L 56.203125 54.6875 
z
" id="DejaVuSans-121"/>
      </defs>
      <g transform="translate(517.350893 459.397656)scale(0.15 -0.15)">
       <use xlink:href="#DejaVuSans-77"/>
       <use x="86.279297" xlink:href="#DejaVuSans-97"/>
       <use x="147.558594" xlink:href="#DejaVuSans-121"/>
      </g>
     </g>
    </g>
    <g id="xtick_6">
     <g id="line2d_6">
      <g>
       <use style="stroke:#000000;stroke-width:0.8;" x="648" xlink:href="#mc88c7a6d32" y="441"/>
      </g>
     </g>
    </g>
    <g id="xtick_7">
     <g id="line2d_7">
      <defs>
       <path d="M 0 0 
L 0 2 
" id="m14531264e5" style="stroke:#000000;stroke-width:0.6;"/>
      </defs>
      <g>
       <use style="stroke:#000000;stroke-width:0.6;" x="112.142857" xlink:href="#m14531264e5" y="441"/>
      </g>
     </g>
    </g>
    <g id="xtick_8">
     <g id="line2d_8">
      <g>
       <use style="stroke:#000000;stroke-width:0.6;" x="143.142857" xlink:href="#m14531264e5" y="441"/>
      </g>
     </g>
    </g>
    <g id="xtick_9">
     <g id="line2d_9">
      <g>
       <use style="stroke:#000000;stroke-width:0.6;" x="174.142857" xlink:href="#m14531264e5" y="441"/>
      </g>
     </g>
    </g>
    <g id="xtick_10">
     <g id="line2d_10">
      <g>
       <use style="stroke:#000000;stroke-width:0.6;" x="205.142857" xlink:href="#m14531264e5" y="441"/>
      </g>
     </g>
    </g>
    <g id="xtick_11">
     <g id="line2d_11">
      <g>
       <use style="stroke:#000000;stroke-width:0.6;" x="236.142857" xlink:href="#m14531264e5" y="441"/>
      </g>
     </g>
    </g>
    <g id="xtick_12">
     <g id="line2d_12">
      <g>
       <use style="stroke:#000000;stroke-width:0.6;" x="267.142857" xlink:href="#m14531264e5" y="441"/>
      </g>
     </g>
    </g>
    <g id="xtick_13">
     <g id="line2d_13">
      <g>
       <use style="stroke:#000000;stroke-width:0.6;" x="298.142857" xlink:href="#m14531264e5" y="441"/>
      </g>
     </g>
    </g>
    <g id="xtick_14">
     <g id="line2d_14">
      <g>
       <use style="stroke:#000000;stroke-width:0.6;" x="329.142857" xlink:href="#m14531264e5" y="441"/>
      </g>
     </g>
    </g>
    <g id="xtick_15">
     <g id="line2d_15">
      <g>
       <use style="stroke:#000000;stroke-width:0.6;" x="360.142857" xlink:href="#m14531264e5" y="441"/>
      </g>
     </g>
    </g>
    <g id="xtick_16">
     <g id="line2d_16">
      <g>
       <use style="stroke:#000000;stroke-width:0.6;" x="391.142857" xlink:href="#m14531264e5" y="441"/>
      </g>
     </g>
    </g>
    <g id="xtick_17">
     <g id="line2d_17">
      <g>
       <use style="stroke:#000000;stroke-width:0.6;" x="422.142857" xlink:href="#m14531264e5" y="441"/>
      </g>
     </g>
    </g>
    <g id="xtick_18">
     <g id="line2d_18">
      <g>
       <use style="stroke:#000000;stroke-width:0.6;" x="453.142857" xlink:href="#m14531264e5" y="441"/>
      </g>
     </g>
    </g>
    <g id="xtick_19">
     <g id="line2d_19">
      <g>
       <use style="stroke:#000000;stroke-width:0.6;" x="484.142857" xlink:href="#m14531264e5" y="441"/>
      </g>
     </g>
    </g>
    <g id="xtick_20">
     <g id="line2d_20">
      <g>
       <use style="stroke:#000000;stroke-width:0.6;" x="515.142857" xlink:href="#m14531264e5" y="441"/>
      </g>
     </g>
    </g>
    <g id="xtick_21">
     <g id="line2d_21">
      <g>
       <use style="stroke:#000000;stroke-width:0.6;" x="546.142857" xlink:href="#m14531264e5" y="441"/>
      </g>
     </g>
    </g>
    <g id="xtick_22">
     <g id="line2d_22">
      <g>
       <use style="stroke:#000000;stroke-width:0.6;" x="577.142857" xlink:href="#m14531264e5" y="441"/>
      </g>
     </g>
    </g>
    <g id="xtick_23">
     <g id="line2d_23">
      <g>
       <use style="stroke:#000000;stroke-width:0.6;" x="608.142857" xlink:href="#m14531264e5" y="441"/>
      </g>
     </g>
    </g>
    <g id="xtick_24">
     <g id="line2d_24">
      <g>
       <use style="stroke:#000000;stroke-width:0.6;" x="639.142857" xlink:href="#m14531264e5" y="441"/>
      </g>
     </g>
    </g>
    <g id="text_5">
     <!-- Date -->
     <defs>
      <path d="M 19.671875 64.796875 
L 19.671875 8.109375 
L 31.59375 8.109375 
Q 46.6875 8.109375 53.6875 14.9375 
Q 60.6875 21.78125 60.6875 36.53125 
Q 60.6875 51.171875 53.6875 57.984375 
Q 46.6875 64.796875 31.59375 64.796875 
z
M 9.8125 72.90625 
L 30.078125 72.90625 
Q 51.265625 72.90625 61.171875 64.09375 
Q 71.09375 55.28125 71.09375 36.53125 
Q 71.09375 17.671875 61.125 8.828125 
Q 51.171875 0 30.078125 0 
L 9.8125 0 
z
" id="DejaVuSans-68"/>
      <path d="M 18.3125 70.21875 
L 18.3125 54.6875 
L 36.8125 54.6875 
L 36.8125 47.703125 
L 18.3125 47.703125 
L 18.3125 18.015625 
Q 18.3125 11.328125 20.140625 9.421875 
Q 21.96875 7.515625 27.59375 7.515625 
L 36.8125 7.515625 
L 36.8125 0 
L 27.59375 0 
Q 17.1875 0 13.234375 3.875 
Q 9.28125 7.765625 9.28125 18.015625 
L 9.28125 47.703125 
L 2.6875 47.703125 
L 2.6875 54.6875 
L 9.28125 54.6875 
L 9.28125 70.21875 
z
" id="DejaVuSans-116"/>
     </defs>
     <g transform="translate(351.073828 494.711563)scale(0.15 -0.15)">
      <use xlink:href="#DejaVuSans-68"/>
      <use x="77.001953" xlink:href="#DejaVuSans-97"/>
      <use x="138.28125" xlink:href="#DejaVuSans-116"/>
      <use x="177.490234" xlink:href="#DejaVuSans-101"/>
     </g>
    </g>
   </g>
   <g id="matplotlib.axis_2">
    <g id="ytick_1">
     <g id="line2d_25">
      <defs>
       <path d="M 0 0 
L -3.5 0 
" id="m1605e4c090" style="stroke:#000000;stroke-width:0.8;"/>
      </defs>
      <g>
       <use style="stroke:#000000;stroke-width:0.8;" x="90" xlink:href="#m1605e4c090" y="441"/>
      </g>
     </g>
     <g id="text_6">
      <!-- 0 -->
      <g transform="translate(73.45625 446.698828)scale(0.15 -0.15)">
       <use xlink:href="#DejaVuSans-48"/>
      </g>
     </g>
    </g>
    <g id="ytick_2">
     <g id="line2d_26">
      <g>
       <use style="stroke:#000000;stroke-width:0.8;" x="90" xlink:href="#m1605e4c090" y="377.329345"/>
      </g>
     </g>
     <g id="text_7">
      <!-- 1 -->
      <defs>
       <path d="M 12.40625 8.296875 
L 28.515625 8.296875 
L 28.515625 63.921875 
L 10.984375 60.40625 
L 10.984375 69.390625 
L 28.421875 72.90625 
L 38.28125 72.90625 
L 38.28125 8.296875 
L 54.390625 8.296875 
L 54.390625 0 
L 12.40625 0 
z
" id="DejaVuSans-49"/>
      </defs>
      <g transform="translate(73.45625 383.028173)scale(0.15 -0.15)">
       <use xlink:href="#DejaVuSans-49"/>
      </g>
     </g>
    </g>
    <g id="ytick_3">
     <g id="line2d_27">
      <g>
       <use style="stroke:#000000;stroke-width:0.8;" x="90" xlink:href="#m1605e4c090" y="313.658689"/>
      </g>
     </g>
     <g id="text_8">
      <!-- 2 -->
      <g transform="translate(73.45625 319.357517)scale(0.15 -0.15)">
       <use xlink:href="#DejaVuSans-50"/>
      </g>
     </g>
    </g>
    <g id="ytick_4">
     <g id="line2d_28">
      <g>
       <use style="stroke:#000000;stroke-width:0.8;" x="90" xlink:href="#m1605e4c090" y="249.988034"/>
      </g>
     </g>
     <g id="text_9">
      <!-- 3 -->
      <defs>
       <path d="M 40.578125 39.3125 
Q 47.65625 37.796875 51.625 33 
Q 55.609375 28.21875 55.609375 21.1875 
Q 55.609375 10.40625 48.1875 4.484375 
Q 40.765625 -1.421875 27.09375 -1.421875 
Q 22.515625 -1.421875 17.65625 -0.515625 
Q 12.796875 0.390625 7.625 2.203125 
L 7.625 11.71875 
Q 11.71875 9.328125 16.59375 8.109375 
Q 21.484375 6.890625 26.8125 6.890625 
Q 36.078125 6.890625 40.9375 10.546875 
Q 45.796875 14.203125 45.796875 21.1875 
Q 45.796875 27.640625 41.28125 31.265625 
Q 36.765625 34.90625 28.71875 34.90625 
L 20.21875 34.90625 
L 20.21875 43.015625 
L 29.109375 43.015625 
Q 36.375 43.015625 40.234375 45.921875 
Q 44.09375 48.828125 44.09375 54.296875 
Q 44.09375 59.90625 40.109375 62.90625 
Q 36.140625 65.921875 28.71875 65.921875 
Q 24.65625 65.921875 20.015625 65.03125 
Q 15.375 64.15625 9.8125 62.3125 
L 9.8125 71.09375 
Q 15.4375 72.65625 20.34375 73.4375 
Q 25.25 74.21875 29.59375 74.21875 
Q 40.828125 74.21875 47.359375 69.109375 
Q 53.90625 64.015625 53.90625 55.328125 
Q 53.90625 49.265625 50.4375 45.09375 
Q 46.96875 40.921875 40.578125 39.3125 
z
" id="DejaVuSans-51"/>
      </defs>
      <g transform="translate(73.45625 255.686862)scale(0.15 -0.15)">
       <use xlink:href="#DejaVuSans-51"/>
      </g>
     </g>
    </g>
    <g id="ytick_5">
     <g id="line2d_29">
      <g>
       <use style="stroke:#000000;stroke-width:0.8;" x="90" xlink:href="#m1605e4c090" y="186.317378"/>
      </g>
     </g>
     <g id="text_10">
      <!-- 4 -->
      <defs>
       <path d="M 37.796875 64.3125 
L 12.890625 25.390625 
L 37.796875 25.390625 
z
M 35.203125 72.90625 
L 47.609375 72.90625 
L 47.609375 25.390625 
L 58.015625 25.390625 
L 58.015625 17.1875 
L 47.609375 17.1875 
L 47.609375 0 
L 37.796875 0 
L 37.796875 17.1875 
L 4.890625 17.1875 
L 4.890625 26.703125 
z
" id="DejaVuSans-52"/>
      </defs>
      <g transform="translate(73.45625 192.016206)scale(0.15 -0.15)">
       <use xlink:href="#DejaVuSans-52"/>
      </g>
     </g>
    </g>
    <g id="ytick_6">
     <g id="line2d_30">
      <g>
       <use style="stroke:#000000;stroke-width:0.8;" x="90" xlink:href="#m1605e4c090" y="122.646723"/>
      </g>
     </g>
     <g id="text_11">
      <!-- 5 -->
      <defs>
       <path d="M 10.796875 72.90625 
L 49.515625 72.90625 
L 49.515625 64.59375 
L 19.828125 64.59375 
L 19.828125 46.734375 
Q 21.96875 47.46875 24.109375 47.828125 
Q 26.265625 48.1875 28.421875 48.1875 
Q 40.625 48.1875 47.75 41.5 
Q 54.890625 34.8125 54.890625 23.390625 
Q 54.890625 11.625 47.5625 5.09375 
Q 40.234375 -1.421875 26.90625 -1.421875 
Q 22.3125 -1.421875 17.546875 -0.640625 
Q 12.796875 0.140625 7.71875 1.703125 
L 7.71875 11.625 
Q 12.109375 9.234375 16.796875 8.0625 
Q 21.484375 6.890625 26.703125 6.890625 
Q 35.15625 6.890625 40.078125 11.328125 
Q 45.015625 15.765625 45.015625 23.390625 
Q 45.015625 31 40.078125 35.4375 
Q 35.15625 39.890625 26.703125 39.890625 
Q 22.75 39.890625 18.8125 39.015625 
Q 14.890625 38.140625 10.796875 36.28125 
z
" id="DejaVuSans-53"/>
      </defs>
      <g transform="translate(73.45625 128.345551)scale(0.15 -0.15)">
       <use xlink:href="#DejaVuSans-53"/>
      </g>
     </g>
    </g>
    <g id="text_12">
     <!-- Number of cases -->
     <defs>
      <path d="M 9.8125 72.90625 
L 23.09375 72.90625 
L 55.421875 11.921875 
L 55.421875 72.90625 
L 64.984375 72.90625 
L 64.984375 0 
L 51.703125 0 
L 19.390625 60.984375 
L 19.390625 0 
L 9.8125 0 
z
" id="DejaVuSans-78"/>
      <path d="M 8.5 21.578125 
L 8.5 54.6875 
L 17.484375 54.6875 
L 17.484375 21.921875 
Q 17.484375 14.15625 20.5 10.265625 
Q 23.53125 6.390625 29.59375 6.390625 
Q 36.859375 6.390625 41.078125 11.03125 
Q 45.3125 15.671875 45.3125 23.6875 
L 45.3125 54.6875 
L 54.296875 54.6875 
L 54.296875 0 
L 45.3125 0 
L 45.3125 8.40625 
Q 42.046875 3.421875 37.71875 1 
Q 33.40625 -1.421875 27.6875 -1.421875 
Q 18.265625 -1.421875 13.375 4.4375 
Q 8.5 10.296875 8.5 21.578125 
z
M 31.109375 56 
z
" id="DejaVuSans-117"/>
      <path d="M 52 44.1875 
Q 55.375 50.25 60.0625 53.125 
Q 64.75 56 71.09375 56 
Q 79.640625 56 84.28125 50.015625 
Q 88.921875 44.046875 88.921875 33.015625 
L 88.921875 0 
L 79.890625 0 
L 79.890625 32.71875 
Q 79.890625 40.578125 77.09375 44.375 
Q 74.3125 48.1875 68.609375 48.1875 
Q 61.625 48.1875 57.5625 43.546875 
Q 53.515625 38.921875 53.515625 30.90625 
L 53.515625 0 
L 44.484375 0 
L 44.484375 32.71875 
Q 44.484375 40.625 41.703125 44.40625 
Q 38.921875 48.1875 33.109375 48.1875 
Q 26.21875 48.1875 22.15625 43.53125 
Q 18.109375 38.875 18.109375 30.90625 
L 18.109375 0 
L 9.078125 0 
L 9.078125 54.6875 
L 18.109375 54.6875 
L 18.109375 46.1875 
Q 21.1875 51.21875 25.484375 53.609375 
Q 29.78125 56 35.6875 56 
Q 41.65625 56 45.828125 52.96875 
Q 50 49.953125 52 44.1875 
z
" id="DejaVuSans-109"/>
      <path id="DejaVuSans-32"/>
      <path d="M 30.609375 48.390625 
Q 23.390625 48.390625 19.1875 42.75 
Q 14.984375 37.109375 14.984375 27.296875 
Q 14.984375 17.484375 19.15625 11.84375 
Q 23.34375 6.203125 30.609375 6.203125 
Q 37.796875 6.203125 41.984375 11.859375 
Q 46.1875 17.53125 46.1875 27.296875 
Q 46.1875 37.015625 41.984375 42.703125 
Q 37.796875 48.390625 30.609375 48.390625 
z
M 30.609375 56 
Q 42.328125 56 49.015625 48.375 
Q 55.71875 40.765625 55.71875 27.296875 
Q 55.71875 13.875 49.015625 6.21875 
Q 42.328125 -1.421875 30.609375 -1.421875 
Q 18.84375 -1.421875 12.171875 6.21875 
Q 5.515625 13.875 5.515625 27.296875 
Q 5.515625 40.765625 12.171875 48.375 
Q 18.84375 56 30.609375 56 
z
" id="DejaVuSans-111"/>
      <path d="M 37.109375 75.984375 
L 37.109375 68.5 
L 28.515625 68.5 
Q 23.6875 68.5 21.796875 66.546875 
Q 19.921875 64.59375 19.921875 59.515625 
L 19.921875 54.6875 
L 34.71875 54.6875 
L 34.71875 47.703125 
L 19.921875 47.703125 
L 19.921875 0 
L 10.890625 0 
L 10.890625 47.703125 
L 2.296875 47.703125 
L 2.296875 54.6875 
L 10.890625 54.6875 
L 10.890625 58.5 
Q 10.890625 67.625 15.140625 71.796875 
Q 19.390625 75.984375 28.609375 75.984375 
z
" id="DejaVuSans-102"/>
      <path d="M 48.78125 52.59375 
L 48.78125 44.1875 
Q 44.96875 46.296875 41.140625 47.34375 
Q 37.3125 48.390625 33.40625 48.390625 
Q 24.65625 48.390625 19.8125 42.84375 
Q 14.984375 37.3125 14.984375 27.296875 
Q 14.984375 17.28125 19.8125 11.734375 
Q 24.65625 6.203125 33.40625 6.203125 
Q 37.3125 6.203125 41.140625 7.25 
Q 44.96875 8.296875 48.78125 10.40625 
L 48.78125 2.09375 
Q 45.015625 0.34375 40.984375 -0.53125 
Q 36.96875 -1.421875 32.421875 -1.421875 
Q 20.0625 -1.421875 12.78125 6.34375 
Q 5.515625 14.109375 5.515625 27.296875 
Q 5.515625 40.671875 12.859375 48.328125 
Q 20.21875 56 33.015625 56 
Q 37.15625 56 41.109375 55.140625 
Q 45.0625 54.296875 48.78125 52.59375 
z
" id="DejaVuSans-99"/>
      <path d="M 44.28125 53.078125 
L 44.28125 44.578125 
Q 40.484375 46.53125 36.375 47.5 
Q 32.28125 48.484375 27.875 48.484375 
Q 21.1875 48.484375 17.84375 46.4375 
Q 14.5 44.390625 14.5 40.28125 
Q 14.5 37.15625 16.890625 35.375 
Q 19.28125 33.59375 26.515625 31.984375 
L 29.59375 31.296875 
Q 39.15625 29.25 43.1875 25.515625 
Q 47.21875 21.78125 47.21875 15.09375 
Q 47.21875 7.46875 41.1875 3.015625 
Q 35.15625 -1.421875 24.609375 -1.421875 
Q 20.21875 -1.421875 15.453125 -0.5625 
Q 10.6875 0.296875 5.421875 2 
L 5.421875 11.28125 
Q 10.40625 8.6875 15.234375 7.390625 
Q 20.0625 6.109375 24.8125 6.109375 
Q 31.15625 6.109375 34.5625 8.28125 
Q 37.984375 10.453125 37.984375 14.40625 
Q 37.984375 18.0625 35.515625 20.015625 
Q 33.0625 21.96875 24.703125 23.78125 
L 21.578125 24.515625 
Q 13.234375 26.265625 9.515625 29.90625 
Q 5.8125 33.546875 5.8125 39.890625 
Q 5.8125 47.609375 11.28125 51.796875 
Q 16.75 56 26.8125 56 
Q 31.78125 56 36.171875 55.265625 
Q 40.578125 54.546875 44.28125 53.078125 
z
" id="DejaVuSans-115"/>
     </defs>
     <g transform="translate(66.336719 314.014219)rotate(-90)scale(0.15 -0.15)">
      <use xlink:href="#DejaVuSans-78"/>
      <use x="74.804688" xlink:href="#DejaVuSans-117"/>
      <use x="138.183594" xlink:href="#DejaVuSans-109"/>
      <use x="235.595703" xlink:href="#DejaVuSans-98"/>
      <use x="299.072266" xlink:href="#DejaVuSans-101"/>
      <use x="360.595703" xlink:href="#DejaVuSans-114"/>
      <use x="401.708984" xlink:href="#DejaVuSans-32"/>
      <use x="433.496094" xlink:href="#DejaVuSans-111"/>
      <use x="494.677734" xlink:href="#DejaVuSans-102"/>
      <use x="529.882812" xlink:href="#DejaVuSans-32"/>
      <use x="561.669922" xlink:href="#DejaVuSans-99"/>
      <use x="616.650391" xlink:href="#DejaVuSans-97"/>
      <use x="677.929688" xlink:href="#DejaVuSans-115"/>
      <use x="730.029297" xlink:href="#DejaVuSans-101"/>
      <use x="791.552734" xlink:href="#DejaVuSans-115"/>
     </g>
    </g>
    <g id="text_13">
     <!-- 1e6 -->
     <defs>
      <path d="M 33.015625 40.375 
Q 26.375 40.375 22.484375 35.828125 
Q 18.609375 31.296875 18.609375 23.390625 
Q 18.609375 15.53125 22.484375 10.953125 
Q 26.375 6.390625 33.015625 6.390625 
Q 39.65625 6.390625 43.53125 10.953125 
Q 47.40625 15.53125 47.40625 23.390625 
Q 47.40625 31.296875 43.53125 35.828125 
Q 39.65625 40.375 33.015625 40.375 
z
M 52.59375 71.296875 
L 52.59375 62.3125 
Q 48.875 64.0625 45.09375 64.984375 
Q 41.3125 65.921875 37.59375 65.921875 
Q 27.828125 65.921875 22.671875 59.328125 
Q 17.53125 52.734375 16.796875 39.40625 
Q 19.671875 43.65625 24.015625 45.921875 
Q 28.375 48.1875 33.59375 48.1875 
Q 44.578125 48.1875 50.953125 41.515625 
Q 57.328125 34.859375 57.328125 23.390625 
Q 57.328125 12.15625 50.6875 5.359375 
Q 44.046875 -1.421875 33.015625 -1.421875 
Q 20.359375 -1.421875 13.671875 8.265625 
Q 6.984375 17.96875 6.984375 36.375 
Q 6.984375 53.65625 15.1875 63.9375 
Q 23.390625 74.21875 37.203125 74.21875 
Q 40.921875 74.21875 44.703125 73.484375 
Q 48.484375 72.75 52.59375 71.296875 
z
" id="DejaVuSans-54"/>
     </defs>
     <g transform="translate(90 57.48)scale(0.15 -0.15)">
      <use xlink:href="#DejaVuSans-49"/>
      <use x="63.623047" xlink:href="#DejaVuSans-101"/>
      <use x="125.146484" xlink:href="#DejaVuSans-54"/>
     </g>
    </g>
   </g>
   <g id="line2d_31">
    <path clip-path="url(#p29924cba32)" d="M 90 440.964663 
L 94.428571 440.958359 
L 98.857143 440.940086 
L 103.285714 440.908696 
L 107.714286 440.865146 
L 112.142857 440.813636 
L 116.571429 440.644845 
L 121 440.607407 
L 125.428571 440.475736 
L 129.857143 440.367941 
L 134.285714 440.233533 
L 138.714286 439.931161 
L 143.142857 439.734164 
L 147.571429 439.478781 
L 152 439.240461 
L 156.428571 439.039326 
L 160.857143 438.810302 
L 165.285714 438.636545 
L 169.714286 438.443623 
L 174.142857 438.277315 
L 178.571429 438.147427 
L 183 438.120749 
L 187.428571 437.15633 
L 191.857143 436.741388 
L 196.285714 436.604815 
L 200.714286 436.465121 
L 205.142857 436.335615 
L 209.571429 436.216042 
L 214 436.184015 
L 218.428571 436.148487 
L 222.857143 436.108884 
L 227.285714 435.997269 
L 231.714286 435.972692 
L 236.142857 435.934299 
L 240.571429 435.880497 
L 245 435.817973 
L 249.428571 435.731508 
L 253.857143 435.644534 
L 258.285714 435.523623 
L 262.714286 435.373488 
L 267.142857 435.250158 
L 271.571429 435.088816 
L 276 434.943647 
L 280.428571 434.767407 
L 284.857143 434.517945 
L 289.285714 434.260588 
L 293.714286 434.007561 
L 298.142857 433.767332 
L 302.571429 433.447196 
L 307 432.985202 
L 311.428571 432.658698 
L 315.857143 431.753429 
L 320.285714 431.059737 
L 324.714286 430.33472 
L 329.142857 429.434034 
L 333.571429 428.44733 
L 338 427.318895 
L 342.428571 425.551462 
L 346.857143 423.664773 
L 351.285714 421.607192 
L 355.714286 419.541588 
L 360.142857 416.913327 
L 364.571429 414.366883 
L 369 411.213785 
L 373.428571 407.272253 
L 377.857143 403.194657 
L 382.285714 398.902618 
L 386.714286 395.1386 
L 391.142857 391.157592 
L 395.571429 386.395537 
L 400 381.594642 
L 404.428571 376.446678 
L 408.857143 371.196332 
L 413.285714 366.095549 
L 417.714286 361.428044 
L 422.142857 356.863304 
L 426.571429 352.087877 
L 431 346.752658 
L 435.428571 341.285259 
L 439.857143 335.417435 
L 444.285714 330.44151 
L 448.714286 324.155115 
L 453.142857 319.696896 
L 457.571429 315.214418 
L 462 310.109177 
L 466.428571 303.969225 
L 470.857143 298.378368 
L 475.285714 293.434597 
L 479.714286 288.140318 
L 484.142857 283.5992 
L 488.571429 278.70057 
L 493 273.889488 
L 497.428571 268.554206 
L 501.857143 262.993975 
L 506.285714 257.555928 
L 510.714286 252.851112 
L 515.142857 248.477638 
L 519.571429 243.797399 
L 524 239.018407 
L 528.428571 233.630406 
L 532.857143 227.986129 
L 537.285714 222.76348 
L 541.714286 217.724266 
L 546.142857 212.86454 
L 550.571429 207.794063 
L 555 201.848625 
L 559.428571 196.140614 
L 563.857143 190.260884 
L 568.285714 184.788709 
L 572.714286 179.842136 
L 577.142857 175.01571 
L 581.571429 169.651775 
L 586 164.222515 
L 590.428571 158.16457 
L 594.857143 151.785789 
L 599.285714 145.945853 
L 603.714286 140.880725 
L 608.142857 135.257142 
L 612.571429 129.173474 
L 617 122.871353 
L 621.428571 116.12532 
L 625.857143 109.202282 
L 630.285714 102.843875 
L 634.714286 96.693736 
L 639.142857 91.125864 
L 643.571429 85.104849 
L 648 78.6 
" style="fill:none;stroke:#1f77b4;stroke-linecap:square;stroke-width:2;"/>
    <defs>
     <path d="M -3 3 
L 3 3 
L 3 -3 
L -3 -3 
z
" id="m6211cfcab9" style="stroke:#1f77b4;stroke-linejoin:miter;"/>
    </defs>
    <g clip-path="url(#p29924cba32)">
     <use style="fill:#1f77b4;stroke:#1f77b4;stroke-linejoin:miter;" x="90" xlink:href="#m6211cfcab9" y="440.964663"/>
     <use style="fill:#1f77b4;stroke:#1f77b4;stroke-linejoin:miter;" x="94.428571" xlink:href="#m6211cfcab9" y="440.958359"/>
     <use style="fill:#1f77b4;stroke:#1f77b4;stroke-linejoin:miter;" x="98.857143" xlink:href="#m6211cfcab9" y="440.940086"/>
     <use style="fill:#1f77b4;stroke:#1f77b4;stroke-linejoin:miter;" x="103.285714" xlink:href="#m6211cfcab9" y="440.908696"/>
     <use style="fill:#1f77b4;stroke:#1f77b4;stroke-linejoin:miter;" x="107.714286" xlink:href="#m6211cfcab9" y="440.865146"/>
     <use style="fill:#1f77b4;stroke:#1f77b4;stroke-linejoin:miter;" x="112.142857" xlink:href="#m6211cfcab9" y="440.813636"/>
     <use style="fill:#1f77b4;stroke:#1f77b4;stroke-linejoin:miter;" x="116.571429" xlink:href="#m6211cfcab9" y="440.644845"/>
     <use style="fill:#1f77b4;stroke:#1f77b4;stroke-linejoin:miter;" x="121" xlink:href="#m6211cfcab9" y="440.607407"/>
     <use style="fill:#1f77b4;stroke:#1f77b4;stroke-linejoin:miter;" x="125.428571" xlink:href="#m6211cfcab9" y="440.475736"/>
     <use style="fill:#1f77b4;stroke:#1f77b4;stroke-linejoin:miter;" x="129.857143" xlink:href="#m6211cfcab9" y="440.367941"/>
     <use style="fill:#1f77b4;stroke:#1f77b4;stroke-linejoin:miter;" x="134.285714" xlink:href="#m6211cfcab9" y="440.233533"/>
     <use style="fill:#1f77b4;stroke:#1f77b4;stroke-linejoin:miter;" x="138.714286" xlink:href="#m6211cfcab9" y="439.931161"/>
     <use style="fill:#1f77b4;stroke:#1f77b4;stroke-linejoin:miter;" x="143.142857" xlink:href="#m6211cfcab9" y="439.734164"/>
     <use style="fill:#1f77b4;stroke:#1f77b4;stroke-linejoin:miter;" x="147.571429" xlink:href="#m6211cfcab9" y="439.478781"/>
     <use style="fill:#1f77b4;stroke:#1f77b4;stroke-linejoin:miter;" x="152" xlink:href="#m6211cfcab9" y="439.240461"/>
     <use style="fill:#1f77b4;stroke:#1f77b4;stroke-linejoin:miter;" x="156.428571" xlink:href="#m6211cfcab9" y="439.039326"/>
     <use style="fill:#1f77b4;stroke:#1f77b4;stroke-linejoin:miter;" x="160.857143" xlink:href="#m6211cfcab9" y="438.810302"/>
     <use style="fill:#1f77b4;stroke:#1f77b4;stroke-linejoin:miter;" x="165.285714" xlink:href="#m6211cfcab9" y="438.636545"/>
     <use style="fill:#1f77b4;stroke:#1f77b4;stroke-linejoin:miter;" x="169.714286" xlink:href="#m6211cfcab9" y="438.443623"/>
     <use style="fill:#1f77b4;stroke:#1f77b4;stroke-linejoin:miter;" x="174.142857" xlink:href="#m6211cfcab9" y="438.277315"/>
     <use style="fill:#1f77b4;stroke:#1f77b4;stroke-linejoin:miter;" x="178.571429" xlink:href="#m6211cfcab9" y="438.147427"/>
     <use style="fill:#1f77b4;stroke:#1f77b4;stroke-linejoin:miter;" x="183" xlink:href="#m6211cfcab9" y="438.120749"/>
     <use style="fill:#1f77b4;stroke:#1f77b4;stroke-linejoin:miter;" x="187.428571" xlink:href="#m6211cfcab9" y="437.15633"/>
     <use style="fill:#1f77b4;stroke:#1f77b4;stroke-linejoin:miter;" x="191.857143" xlink:href="#m6211cfcab9" y="436.741388"/>
     <use style="fill:#1f77b4;stroke:#1f77b4;stroke-linejoin:miter;" x="196.285714" xlink:href="#m6211cfcab9" y="436.604815"/>
     <use style="fill:#1f77b4;stroke:#1f77b4;stroke-linejoin:miter;" x="200.714286" xlink:href="#m6211cfcab9" y="436.465121"/>
     <use style="fill:#1f77b4;stroke:#1f77b4;stroke-linejoin:miter;" x="205.142857" xlink:href="#m6211cfcab9" y="436.335615"/>
     <use style="fill:#1f77b4;stroke:#1f77b4;stroke-linejoin:miter;" x="209.571429" xlink:href="#m6211cfcab9" y="436.216042"/>
     <use style="fill:#1f77b4;stroke:#1f77b4;stroke-linejoin:miter;" x="214" xlink:href="#m6211cfcab9" y="436.184015"/>
     <use style="fill:#1f77b4;stroke:#1f77b4;stroke-linejoin:miter;" x="218.428571" xlink:href="#m6211cfcab9" y="436.148487"/>
     <use style="fill:#1f77b4;stroke:#1f77b4;stroke-linejoin:miter;" x="222.857143" xlink:href="#m6211cfcab9" y="436.108884"/>
     <use style="fill:#1f77b4;stroke:#1f77b4;stroke-linejoin:miter;" x="227.285714" xlink:href="#m6211cfcab9" y="435.997269"/>
     <use style="fill:#1f77b4;stroke:#1f77b4;stroke-linejoin:miter;" x="231.714286" xlink:href="#m6211cfcab9" y="435.972692"/>
     <use style="fill:#1f77b4;stroke:#1f77b4;stroke-linejoin:miter;" x="236.142857" xlink:href="#m6211cfcab9" y="435.934299"/>
     <use style="fill:#1f77b4;stroke:#1f77b4;stroke-linejoin:miter;" x="240.571429" xlink:href="#m6211cfcab9" y="435.880497"/>
     <use style="fill:#1f77b4;stroke:#1f77b4;stroke-linejoin:miter;" x="245" xlink:href="#m6211cfcab9" y="435.817973"/>
     <use style="fill:#1f77b4;stroke:#1f77b4;stroke-linejoin:miter;" x="249.428571" xlink:href="#m6211cfcab9" y="435.731508"/>
     <use style="fill:#1f77b4;stroke:#1f77b4;stroke-linejoin:miter;" x="253.857143" xlink:href="#m6211cfcab9" y="435.644534"/>
     <use style="fill:#1f77b4;stroke:#1f77b4;stroke-linejoin:miter;" x="258.285714" xlink:href="#m6211cfcab9" y="435.523623"/>
     <use style="fill:#1f77b4;stroke:#1f77b4;stroke-linejoin:miter;" x="262.714286" xlink:href="#m6211cfcab9" y="435.373488"/>
     <use style="fill:#1f77b4;stroke:#1f77b4;stroke-linejoin:miter;" x="267.142857" xlink:href="#m6211cfcab9" y="435.250158"/>
     <use style="fill:#1f77b4;stroke:#1f77b4;stroke-linejoin:miter;" x="271.571429" xlink:href="#m6211cfcab9" y="435.088816"/>
     <use style="fill:#1f77b4;stroke:#1f77b4;stroke-linejoin:miter;" x="276" xlink:href="#m6211cfcab9" y="434.943647"/>
     <use style="fill:#1f77b4;stroke:#1f77b4;stroke-linejoin:miter;" x="280.428571" xlink:href="#m6211cfcab9" y="434.767407"/>
     <use style="fill:#1f77b4;stroke:#1f77b4;stroke-linejoin:miter;" x="284.857143" xlink:href="#m6211cfcab9" y="434.517945"/>
     <use style="fill:#1f77b4;stroke:#1f77b4;stroke-linejoin:miter;" x="289.285714" xlink:href="#m6211cfcab9" y="434.260588"/>
     <use style="fill:#1f77b4;stroke:#1f77b4;stroke-linejoin:miter;" x="293.714286" xlink:href="#m6211cfcab9" y="434.007561"/>
     <use style="fill:#1f77b4;stroke:#1f77b4;stroke-linejoin:miter;" x="298.142857" xlink:href="#m6211cfcab9" y="433.767332"/>
     <use style="fill:#1f77b4;stroke:#1f77b4;stroke-linejoin:miter;" x="302.571429" xlink:href="#m6211cfcab9" y="433.447196"/>
     <use style="fill:#1f77b4;stroke:#1f77b4;stroke-linejoin:miter;" x="307" xlink:href="#m6211cfcab9" y="432.985202"/>
     <use style="fill:#1f77b4;stroke:#1f77b4;stroke-linejoin:miter;" x="311.428571" xlink:href="#m6211cfcab9" y="432.658698"/>
     <use style="fill:#1f77b4;stroke:#1f77b4;stroke-linejoin:miter;" x="315.857143" xlink:href="#m6211cfcab9" y="431.753429"/>
     <use style="fill:#1f77b4;stroke:#1f77b4;stroke-linejoin:miter;" x="320.285714" xlink:href="#m6211cfcab9" y="431.059737"/>
     <use style="fill:#1f77b4;stroke:#1f77b4;stroke-linejoin:miter;" x="324.714286" xlink:href="#m6211cfcab9" y="430.33472"/>
     <use style="fill:#1f77b4;stroke:#1f77b4;stroke-linejoin:miter;" x="329.142857" xlink:href="#m6211cfcab9" y="429.434034"/>
     <use style="fill:#1f77b4;stroke:#1f77b4;stroke-linejoin:miter;" x="333.571429" xlink:href="#m6211cfcab9" y="428.44733"/>
     <use style="fill:#1f77b4;stroke:#1f77b4;stroke-linejoin:miter;" x="338" xlink:href="#m6211cfcab9" y="427.318895"/>
     <use style="fill:#1f77b4;stroke:#1f77b4;stroke-linejoin:miter;" x="342.428571" xlink:href="#m6211cfcab9" y="425.551462"/>
     <use style="fill:#1f77b4;stroke:#1f77b4;stroke-linejoin:miter;" x="346.857143" xlink:href="#m6211cfcab9" y="423.664773"/>
     <use style="fill:#1f77b4;stroke:#1f77b4;stroke-linejoin:miter;" x="351.285714" xlink:href="#m6211cfcab9" y="421.607192"/>
     <use style="fill:#1f77b4;stroke:#1f77b4;stroke-linejoin:miter;" x="355.714286" xlink:href="#m6211cfcab9" y="419.541588"/>
     <use style="fill:#1f77b4;stroke:#1f77b4;stroke-linejoin:miter;" x="360.142857" xlink:href="#m6211cfcab9" y="416.913327"/>
     <use style="fill:#1f77b4;stroke:#1f77b4;stroke-linejoin:miter;" x="364.571429" xlink:href="#m6211cfcab9" y="414.366883"/>
     <use style="fill:#1f77b4;stroke:#1f77b4;stroke-linejoin:miter;" x="369" xlink:href="#m6211cfcab9" y="411.213785"/>
     <use style="fill:#1f77b4;stroke:#1f77b4;stroke-linejoin:miter;" x="373.428571" xlink:href="#m6211cfcab9" y="407.272253"/>
     <use style="fill:#1f77b4;stroke:#1f77b4;stroke-linejoin:miter;" x="377.857143" xlink:href="#m6211cfcab9" y="403.194657"/>
     <use style="fill:#1f77b4;stroke:#1f77b4;stroke-linejoin:miter;" x="382.285714" xlink:href="#m6211cfcab9" y="398.902618"/>
     <use style="fill:#1f77b4;stroke:#1f77b4;stroke-linejoin:miter;" x="386.714286" xlink:href="#m6211cfcab9" y="395.1386"/>
     <use style="fill:#1f77b4;stroke:#1f77b4;stroke-linejoin:miter;" x="391.142857" xlink:href="#m6211cfcab9" y="391.157592"/>
     <use style="fill:#1f77b4;stroke:#1f77b4;stroke-linejoin:miter;" x="395.571429" xlink:href="#m6211cfcab9" y="386.395537"/>
     <use style="fill:#1f77b4;stroke:#1f77b4;stroke-linejoin:miter;" x="400" xlink:href="#m6211cfcab9" y="381.594642"/>
     <use style="fill:#1f77b4;stroke:#1f77b4;stroke-linejoin:miter;" x="404.428571" xlink:href="#m6211cfcab9" y="376.446678"/>
     <use style="fill:#1f77b4;stroke:#1f77b4;stroke-linejoin:miter;" x="408.857143" xlink:href="#m6211cfcab9" y="371.196332"/>
     <use style="fill:#1f77b4;stroke:#1f77b4;stroke-linejoin:miter;" x="413.285714" xlink:href="#m6211cfcab9" y="366.095549"/>
     <use style="fill:#1f77b4;stroke:#1f77b4;stroke-linejoin:miter;" x="417.714286" xlink:href="#m6211cfcab9" y="361.428044"/>
     <use style="fill:#1f77b4;stroke:#1f77b4;stroke-linejoin:miter;" x="422.142857" xlink:href="#m6211cfcab9" y="356.863304"/>
     <use style="fill:#1f77b4;stroke:#1f77b4;stroke-linejoin:miter;" x="426.571429" xlink:href="#m6211cfcab9" y="352.087877"/>
     <use style="fill:#1f77b4;stroke:#1f77b4;stroke-linejoin:miter;" x="431" xlink:href="#m6211cfcab9" y="346.752658"/>
     <use style="fill:#1f77b4;stroke:#1f77b4;stroke-linejoin:miter;" x="435.428571" xlink:href="#m6211cfcab9" y="341.285259"/>
     <use style="fill:#1f77b4;stroke:#1f77b4;stroke-linejoin:miter;" x="439.857143" xlink:href="#m6211cfcab9" y="335.417435"/>
     <use style="fill:#1f77b4;stroke:#1f77b4;stroke-linejoin:miter;" x="444.285714" xlink:href="#m6211cfcab9" y="330.44151"/>
     <use style="fill:#1f77b4;stroke:#1f77b4;stroke-linejoin:miter;" x="448.714286" xlink:href="#m6211cfcab9" y="324.155115"/>
     <use style="fill:#1f77b4;stroke:#1f77b4;stroke-linejoin:miter;" x="453.142857" xlink:href="#m6211cfcab9" y="319.696896"/>
     <use style="fill:#1f77b4;stroke:#1f77b4;stroke-linejoin:miter;" x="457.571429" xlink:href="#m6211cfcab9" y="315.214418"/>
     <use style="fill:#1f77b4;stroke:#1f77b4;stroke-linejoin:miter;" x="462" xlink:href="#m6211cfcab9" y="310.109177"/>
     <use style="fill:#1f77b4;stroke:#1f77b4;stroke-linejoin:miter;" x="466.428571" xlink:href="#m6211cfcab9" y="303.969225"/>
     <use style="fill:#1f77b4;stroke:#1f77b4;stroke-linejoin:miter;" x="470.857143" xlink:href="#m6211cfcab9" y="298.378368"/>
     <use style="fill:#1f77b4;stroke:#1f77b4;stroke-linejoin:miter;" x="475.285714" xlink:href="#m6211cfcab9" y="293.434597"/>
     <use style="fill:#1f77b4;stroke:#1f77b4;stroke-linejoin:miter;" x="479.714286" xlink:href="#m6211cfcab9" y="288.140318"/>
     <use style="fill:#1f77b4;stroke:#1f77b4;stroke-linejoin:miter;" x="484.142857" xlink:href="#m6211cfcab9" y="283.5992"/>
     <use style="fill:#1f77b4;stroke:#1f77b4;stroke-linejoin:miter;" x="488.571429" xlink:href="#m6211cfcab9" y="278.70057"/>
     <use style="fill:#1f77b4;stroke:#1f77b4;stroke-linejoin:miter;" x="493" xlink:href="#m6211cfcab9" y="273.889488"/>
     <use style="fill:#1f77b4;stroke:#1f77b4;stroke-linejoin:miter;" x="497.428571" xlink:href="#m6211cfcab9" y="268.554206"/>
     <use style="fill:#1f77b4;stroke:#1f77b4;stroke-linejoin:miter;" x="501.857143" xlink:href="#m6211cfcab9" y="262.993975"/>
     <use style="fill:#1f77b4;stroke:#1f77b4;stroke-linejoin:miter;" x="506.285714" xlink:href="#m6211cfcab9" y="257.555928"/>
     <use style="fill:#1f77b4;stroke:#1f77b4;stroke-linejoin:miter;" x="510.714286" xlink:href="#m6211cfcab9" y="252.851112"/>
     <use style="fill:#1f77b4;stroke:#1f77b4;stroke-linejoin:miter;" x="515.142857" xlink:href="#m6211cfcab9" y="248.477638"/>
     <use style="fill:#1f77b4;stroke:#1f77b4;stroke-linejoin:miter;" x="519.571429" xlink:href="#m6211cfcab9" y="243.797399"/>
     <use style="fill:#1f77b4;stroke:#1f77b4;stroke-linejoin:miter;" x="524" xlink:href="#m6211cfcab9" y="239.018407"/>
     <use style="fill:#1f77b4;stroke:#1f77b4;stroke-linejoin:miter;" x="528.428571" xlink:href="#m6211cfcab9" y="233.630406"/>
     <use style="fill:#1f77b4;stroke:#1f77b4;stroke-linejoin:miter;" x="532.857143" xlink:href="#m6211cfcab9" y="227.986129"/>
     <use style="fill:#1f77b4;stroke:#1f77b4;stroke-linejoin:miter;" x="537.285714" xlink:href="#m6211cfcab9" y="222.76348"/>
     <use style="fill:#1f77b4;stroke:#1f77b4;stroke-linejoin:miter;" x="541.714286" xlink:href="#m6211cfcab9" y="217.724266"/>
     <use style="fill:#1f77b4;stroke:#1f77b4;stroke-linejoin:miter;" x="546.142857" xlink:href="#m6211cfcab9" y="212.86454"/>
     <use style="fill:#1f77b4;stroke:#1f77b4;stroke-linejoin:miter;" x="550.571429" xlink:href="#m6211cfcab9" y="207.794063"/>
     <use style="fill:#1f77b4;stroke:#1f77b4;stroke-linejoin:miter;" x="555" xlink:href="#m6211cfcab9" y="201.848625"/>
     <use style="fill:#1f77b4;stroke:#1f77b4;stroke-linejoin:miter;" x="559.428571" xlink:href="#m6211cfcab9" y="196.140614"/>
     <use style="fill:#1f77b4;stroke:#1f77b4;stroke-linejoin:miter;" x="563.857143" xlink:href="#m6211cfcab9" y="190.260884"/>
     <use style="fill:#1f77b4;stroke:#1f77b4;stroke-linejoin:miter;" x="568.285714" xlink:href="#m6211cfcab9" y="184.788709"/>
     <use style="fill:#1f77b4;stroke:#1f77b4;stroke-linejoin:miter;" x="572.714286" xlink:href="#m6211cfcab9" y="179.842136"/>
     <use style="fill:#1f77b4;stroke:#1f77b4;stroke-linejoin:miter;" x="577.142857" xlink:href="#m6211cfcab9" y="175.01571"/>
     <use style="fill:#1f77b4;stroke:#1f77b4;stroke-linejoin:miter;" x="581.571429" xlink:href="#m6211cfcab9" y="169.651775"/>
     <use style="fill:#1f77b4;stroke:#1f77b4;stroke-linejoin:miter;" x="586" xlink:href="#m6211cfcab9" y="164.222515"/>
     <use style="fill:#1f77b4;stroke:#1f77b4;stroke-linejoin:miter;" x="590.428571" xlink:href="#m6211cfcab9" y="158.16457"/>
     <use style="fill:#1f77b4;stroke:#1f77b4;stroke-linejoin:miter;" x="594.857143" xlink:href="#m6211cfcab9" y="151.785789"/>
     <use style="fill:#1f77b4;stroke:#1f77b4;stroke-linejoin:miter;" x="599.285714" xlink:href="#m6211cfcab9" y="145.945853"/>
     <use style="fill:#1f77b4;stroke:#1f77b4;stroke-linejoin:miter;" x="603.714286" xlink:href="#m6211cfcab9" y="140.880725"/>
     <use style="fill:#1f77b4;stroke:#1f77b4;stroke-linejoin:miter;" x="608.142857" xlink:href="#m6211cfcab9" y="135.257142"/>
     <use style="fill:#1f77b4;stroke:#1f77b4;stroke-linejoin:miter;" x="612.571429" xlink:href="#m6211cfcab9" y="129.173474"/>
     <use style="fill:#1f77b4;stroke:#1f77b4;stroke-linejoin:miter;" x="617" xlink:href="#m6211cfcab9" y="122.871353"/>
     <use style="fill:#1f77b4;stroke:#1f77b4;stroke-linejoin:miter;" x="621.428571" xlink:href="#m6211cfcab9" y="116.12532"/>
     <use style="fill:#1f77b4;stroke:#1f77b4;stroke-linejoin:miter;" x="625.857143" xlink:href="#m6211cfcab9" y="109.202282"/>
     <use style="fill:#1f77b4;stroke:#1f77b4;stroke-linejoin:miter;" x="630.285714" xlink:href="#m6211cfcab9" y="102.843875"/>
     <use style="fill:#1f77b4;stroke:#1f77b4;stroke-linejoin:miter;" x="634.714286" xlink:href="#m6211cfcab9" y="96.693736"/>
     <use style="fill:#1f77b4;stroke:#1f77b4;stroke-linejoin:miter;" x="639.142857" xlink:href="#m6211cfcab9" y="91.125864"/>
     <use style="fill:#1f77b4;stroke:#1f77b4;stroke-linejoin:miter;" x="643.571429" xlink:href="#m6211cfcab9" y="85.104849"/>
     <use style="fill:#1f77b4;stroke:#1f77b4;stroke-linejoin:miter;" x="648" xlink:href="#m6211cfcab9" y="78.6"/>
    </g>
   </g>
   <g id="line2d_32">
    <path clip-path="url(#p29924cba32)" d="M 90 440.998918 
L 94.428571 440.998854 
L 98.857143 440.998345 
L 103.285714 440.997326 
L 107.714286 440.996434 
L 112.142857 440.994779 
L 116.571429 440.991659 
L 121 440.991532 
L 125.428571 440.989112 
L 129.857143 440.986438 
L 134.285714 440.983509 
L 138.714286 440.976951 
L 143.142857 440.972876 
L 147.571429 440.968674 
L 152 440.96409 
L 156.428571 440.959633 
L 160.857143 440.954221 
L 165.285714 440.948681 
L 169.714286 440.942314 
L 174.142857 440.935502 
L 178.571429 440.929135 
L 183 440.928816 
L 187.428571 440.912708 
L 191.857143 440.90303 
L 196.285714 440.893925 
L 200.714286 440.887303 
L 205.142857 440.881063 
L 209.571429 440.872213 
L 214 440.864891 
L 218.428571 440.856932 
L 222.857143 440.856677 
L 227.285714 440.843498 
L 231.714286 440.842797 
L 236.142857 440.83261 
L 240.571429 440.82758 
L 245 440.823632 
L 249.428571 440.820831 
L 253.857143 440.817138 
L 258.285714 440.812745 
L 262.714286 440.809243 
L 267.142857 440.803576 
L 271.571429 440.798801 
L 276 440.792816 
L 280.428571 440.786894 
L 284.857143 440.779763 
L 289.285714 440.77346 
L 293.714286 440.757988 
L 298.142857 440.746145 
L 302.571429 440.728572 
L 307 440.706224 
L 311.428571 440.68725 
L 315.857143 440.655605 
L 320.285714 440.628673 
L 324.714286 440.58786 
L 329.142857 440.544691 
L 333.571429 440.493373 
L 338 440.43817 
L 342.428571 440.366668 
L 346.857143 440.27269 
L 351.285714 440.164323 
L 355.714286 440.056019 
L 360.142857 439.932943 
L 364.571429 439.789175 
L 369 439.61268 
L 373.428571 439.421732 
L 377.857143 439.19863 
L 382.285714 438.974573 
L 386.714286 438.750961 
L 391.142857 438.488638 
L 395.571429 438.183338 
L 400 437.836523 
L 404.428571 437.445013 
L 408.857143 437.063498 
L 413.285714 436.67065 
L 417.714286 436.34714 
L 422.142857 435.984853 
L 426.571429 435.482174 
L 431 435.05609 
L 435.428571 434.574676 
L 439.857143 434.114846 
L 444.285714 433.730721 
L 448.714286 433.368881 
L 453.142857 433.005449 
L 457.571429 432.567522 
L 462 432.042494 
L 466.428571 431.579099 
L 470.857143 431.015104 
L 475.285714 430.606657 
L 479.714286 430.317847 
L 484.142857 429.977081 
L 488.571429 429.524256 
L 493 429.09919 
L 497.428571 428.669223 
L 501.857143 428.26606 
L 506.285714 427.871939 
L 510.714286 427.635529 
L 515.142857 427.34621 
L 519.571429 426.941456 
L 524 426.50442 
L 528.428571 426.141816 
L 532.857143 425.806972 
L 537.285714 425.476266 
L 541.714286 425.243423 
L 546.142857 424.984474 
L 550.571429 424.621424 
L 555 424.200179 
L 559.428571 423.836492 
L 563.857143 423.497064 
L 568.285714 423.216086 
L 572.714286 422.999733 
L 577.142857 422.769181 
L 581.571429 422.411862 
L 586 422.077272 
L 590.428571 421.744848 
L 594.857143 421.410704 
L 599.285714 421.148699 
L 603.714286 420.931964 
L 608.142857 420.722106 
L 612.571429 420.416232 
L 617 420.108703 
L 621.428571 419.802511 
L 625.857143 419.464483 
L 630.285714 419.211074 
L 634.714286 419.029931 
L 639.142857 418.955245 
L 643.571429 418.686491 
L 648 418.356932 
" style="fill:none;stroke:#ff7f0e;stroke-linecap:square;stroke-width:2;"/>
    <defs>
     <path d="M -3 3 
L 3 3 
L 3 -3 
L -3 -3 
z
" id="ma9475b1f4b" style="stroke:#ff7f0e;stroke-linejoin:miter;"/>
    </defs>
    <g clip-path="url(#p29924cba32)">
     <use style="fill:#ff7f0e;stroke:#ff7f0e;stroke-linejoin:miter;" x="90" xlink:href="#ma9475b1f4b" y="440.998918"/>
     <use style="fill:#ff7f0e;stroke:#ff7f0e;stroke-linejoin:miter;" x="94.428571" xlink:href="#ma9475b1f4b" y="440.998854"/>
     <use style="fill:#ff7f0e;stroke:#ff7f0e;stroke-linejoin:miter;" x="98.857143" xlink:href="#ma9475b1f4b" y="440.998345"/>
     <use style="fill:#ff7f0e;stroke:#ff7f0e;stroke-linejoin:miter;" x="103.285714" xlink:href="#ma9475b1f4b" y="440.997326"/>
     <use style="fill:#ff7f0e;stroke:#ff7f0e;stroke-linejoin:miter;" x="107.714286" xlink:href="#ma9475b1f4b" y="440.996434"/>
     <use style="fill:#ff7f0e;stroke:#ff7f0e;stroke-linejoin:miter;" x="112.142857" xlink:href="#ma9475b1f4b" y="440.994779"/>
     <use style="fill:#ff7f0e;stroke:#ff7f0e;stroke-linejoin:miter;" x="116.571429" xlink:href="#ma9475b1f4b" y="440.991659"/>
     <use style="fill:#ff7f0e;stroke:#ff7f0e;stroke-linejoin:miter;" x="121" xlink:href="#ma9475b1f4b" y="440.991532"/>
     <use style="fill:#ff7f0e;stroke:#ff7f0e;stroke-linejoin:miter;" x="125.428571" xlink:href="#ma9475b1f4b" y="440.989112"/>
     <use style="fill:#ff7f0e;stroke:#ff7f0e;stroke-linejoin:miter;" x="129.857143" xlink:href="#ma9475b1f4b" y="440.986438"/>
     <use style="fill:#ff7f0e;stroke:#ff7f0e;stroke-linejoin:miter;" x="134.285714" xlink:href="#ma9475b1f4b" y="440.983509"/>
     <use style="fill:#ff7f0e;stroke:#ff7f0e;stroke-linejoin:miter;" x="138.714286" xlink:href="#ma9475b1f4b" y="440.976951"/>
     <use style="fill:#ff7f0e;stroke:#ff7f0e;stroke-linejoin:miter;" x="143.142857" xlink:href="#ma9475b1f4b" y="440.972876"/>
     <use style="fill:#ff7f0e;stroke:#ff7f0e;stroke-linejoin:miter;" x="147.571429" xlink:href="#ma9475b1f4b" y="440.968674"/>
     <use style="fill:#ff7f0e;stroke:#ff7f0e;stroke-linejoin:miter;" x="152" xlink:href="#ma9475b1f4b" y="440.96409"/>
     <use style="fill:#ff7f0e;stroke:#ff7f0e;stroke-linejoin:miter;" x="156.428571" xlink:href="#ma9475b1f4b" y="440.959633"/>
     <use style="fill:#ff7f0e;stroke:#ff7f0e;stroke-linejoin:miter;" x="160.857143" xlink:href="#ma9475b1f4b" y="440.954221"/>
     <use style="fill:#ff7f0e;stroke:#ff7f0e;stroke-linejoin:miter;" x="165.285714" xlink:href="#ma9475b1f4b" y="440.948681"/>
     <use style="fill:#ff7f0e;stroke:#ff7f0e;stroke-linejoin:miter;" x="169.714286" xlink:href="#ma9475b1f4b" y="440.942314"/>
     <use style="fill:#ff7f0e;stroke:#ff7f0e;stroke-linejoin:miter;" x="174.142857" xlink:href="#ma9475b1f4b" y="440.935502"/>
     <use style="fill:#ff7f0e;stroke:#ff7f0e;stroke-linejoin:miter;" x="178.571429" xlink:href="#ma9475b1f4b" y="440.929135"/>
     <use style="fill:#ff7f0e;stroke:#ff7f0e;stroke-linejoin:miter;" x="183" xlink:href="#ma9475b1f4b" y="440.928816"/>
     <use style="fill:#ff7f0e;stroke:#ff7f0e;stroke-linejoin:miter;" x="187.428571" xlink:href="#ma9475b1f4b" y="440.912708"/>
     <use style="fill:#ff7f0e;stroke:#ff7f0e;stroke-linejoin:miter;" x="191.857143" xlink:href="#ma9475b1f4b" y="440.90303"/>
     <use style="fill:#ff7f0e;stroke:#ff7f0e;stroke-linejoin:miter;" x="196.285714" xlink:href="#ma9475b1f4b" y="440.893925"/>
     <use style="fill:#ff7f0e;stroke:#ff7f0e;stroke-linejoin:miter;" x="200.714286" xlink:href="#ma9475b1f4b" y="440.887303"/>
     <use style="fill:#ff7f0e;stroke:#ff7f0e;stroke-linejoin:miter;" x="205.142857" xlink:href="#ma9475b1f4b" y="440.881063"/>
     <use style="fill:#ff7f0e;stroke:#ff7f0e;stroke-linejoin:miter;" x="209.571429" xlink:href="#ma9475b1f4b" y="440.872213"/>
     <use style="fill:#ff7f0e;stroke:#ff7f0e;stroke-linejoin:miter;" x="214" xlink:href="#ma9475b1f4b" y="440.864891"/>
     <use style="fill:#ff7f0e;stroke:#ff7f0e;stroke-linejoin:miter;" x="218.428571" xlink:href="#ma9475b1f4b" y="440.856932"/>
     <use style="fill:#ff7f0e;stroke:#ff7f0e;stroke-linejoin:miter;" x="222.857143" xlink:href="#ma9475b1f4b" y="440.856677"/>
     <use style="fill:#ff7f0e;stroke:#ff7f0e;stroke-linejoin:miter;" x="227.285714" xlink:href="#ma9475b1f4b" y="440.843498"/>
     <use style="fill:#ff7f0e;stroke:#ff7f0e;stroke-linejoin:miter;" x="231.714286" xlink:href="#ma9475b1f4b" y="440.842797"/>
     <use style="fill:#ff7f0e;stroke:#ff7f0e;stroke-linejoin:miter;" x="236.142857" xlink:href="#ma9475b1f4b" y="440.83261"/>
     <use style="fill:#ff7f0e;stroke:#ff7f0e;stroke-linejoin:miter;" x="240.571429" xlink:href="#ma9475b1f4b" y="440.82758"/>
     <use style="fill:#ff7f0e;stroke:#ff7f0e;stroke-linejoin:miter;" x="245" xlink:href="#ma9475b1f4b" y="440.823632"/>
     <use style="fill:#ff7f0e;stroke:#ff7f0e;stroke-linejoin:miter;" x="249.428571" xlink:href="#ma9475b1f4b" y="440.820831"/>
     <use style="fill:#ff7f0e;stroke:#ff7f0e;stroke-linejoin:miter;" x="253.857143" xlink:href="#ma9475b1f4b" y="440.817138"/>
     <use style="fill:#ff7f0e;stroke:#ff7f0e;stroke-linejoin:miter;" x="258.285714" xlink:href="#ma9475b1f4b" y="440.812745"/>
     <use style="fill:#ff7f0e;stroke:#ff7f0e;stroke-linejoin:miter;" x="262.714286" xlink:href="#ma9475b1f4b" y="440.809243"/>
     <use style="fill:#ff7f0e;stroke:#ff7f0e;stroke-linejoin:miter;" x="267.142857" xlink:href="#ma9475b1f4b" y="440.803576"/>
     <use style="fill:#ff7f0e;stroke:#ff7f0e;stroke-linejoin:miter;" x="271.571429" xlink:href="#ma9475b1f4b" y="440.798801"/>
     <use style="fill:#ff7f0e;stroke:#ff7f0e;stroke-linejoin:miter;" x="276" xlink:href="#ma9475b1f4b" y="440.792816"/>
     <use style="fill:#ff7f0e;stroke:#ff7f0e;stroke-linejoin:miter;" x="280.428571" xlink:href="#ma9475b1f4b" y="440.786894"/>
     <use style="fill:#ff7f0e;stroke:#ff7f0e;stroke-linejoin:miter;" x="284.857143" xlink:href="#ma9475b1f4b" y="440.779763"/>
     <use style="fill:#ff7f0e;stroke:#ff7f0e;stroke-linejoin:miter;" x="289.285714" xlink:href="#ma9475b1f4b" y="440.77346"/>
     <use style="fill:#ff7f0e;stroke:#ff7f0e;stroke-linejoin:miter;" x="293.714286" xlink:href="#ma9475b1f4b" y="440.757988"/>
     <use style="fill:#ff7f0e;stroke:#ff7f0e;stroke-linejoin:miter;" x="298.142857" xlink:href="#ma9475b1f4b" y="440.746145"/>
     <use style="fill:#ff7f0e;stroke:#ff7f0e;stroke-linejoin:miter;" x="302.571429" xlink:href="#ma9475b1f4b" y="440.728572"/>
     <use style="fill:#ff7f0e;stroke:#ff7f0e;stroke-linejoin:miter;" x="307" xlink:href="#ma9475b1f4b" y="440.706224"/>
     <use style="fill:#ff7f0e;stroke:#ff7f0e;stroke-linejoin:miter;" x="311.428571" xlink:href="#ma9475b1f4b" y="440.68725"/>
     <use style="fill:#ff7f0e;stroke:#ff7f0e;stroke-linejoin:miter;" x="315.857143" xlink:href="#ma9475b1f4b" y="440.655605"/>
     <use style="fill:#ff7f0e;stroke:#ff7f0e;stroke-linejoin:miter;" x="320.285714" xlink:href="#ma9475b1f4b" y="440.628673"/>
     <use style="fill:#ff7f0e;stroke:#ff7f0e;stroke-linejoin:miter;" x="324.714286" xlink:href="#ma9475b1f4b" y="440.58786"/>
     <use style="fill:#ff7f0e;stroke:#ff7f0e;stroke-linejoin:miter;" x="329.142857" xlink:href="#ma9475b1f4b" y="440.544691"/>
     <use style="fill:#ff7f0e;stroke:#ff7f0e;stroke-linejoin:miter;" x="333.571429" xlink:href="#ma9475b1f4b" y="440.493373"/>
     <use style="fill:#ff7f0e;stroke:#ff7f0e;stroke-linejoin:miter;" x="338" xlink:href="#ma9475b1f4b" y="440.43817"/>
     <use style="fill:#ff7f0e;stroke:#ff7f0e;stroke-linejoin:miter;" x="342.428571" xlink:href="#ma9475b1f4b" y="440.366668"/>
     <use style="fill:#ff7f0e;stroke:#ff7f0e;stroke-linejoin:miter;" x="346.857143" xlink:href="#ma9475b1f4b" y="440.27269"/>
     <use style="fill:#ff7f0e;stroke:#ff7f0e;stroke-linejoin:miter;" x="351.285714" xlink:href="#ma9475b1f4b" y="440.164323"/>
     <use style="fill:#ff7f0e;stroke:#ff7f0e;stroke-linejoin:miter;" x="355.714286" xlink:href="#ma9475b1f4b" y="440.056019"/>
     <use style="fill:#ff7f0e;stroke:#ff7f0e;stroke-linejoin:miter;" x="360.142857" xlink:href="#ma9475b1f4b" y="439.932943"/>
     <use style="fill:#ff7f0e;stroke:#ff7f0e;stroke-linejoin:miter;" x="364.571429" xlink:href="#ma9475b1f4b" y="439.789175"/>
     <use style="fill:#ff7f0e;stroke:#ff7f0e;stroke-linejoin:miter;" x="369" xlink:href="#ma9475b1f4b" y="439.61268"/>
     <use style="fill:#ff7f0e;stroke:#ff7f0e;stroke-linejoin:miter;" x="373.428571" xlink:href="#ma9475b1f4b" y="439.421732"/>
     <use style="fill:#ff7f0e;stroke:#ff7f0e;stroke-linejoin:miter;" x="377.857143" xlink:href="#ma9475b1f4b" y="439.19863"/>
     <use style="fill:#ff7f0e;stroke:#ff7f0e;stroke-linejoin:miter;" x="382.285714" xlink:href="#ma9475b1f4b" y="438.974573"/>
     <use style="fill:#ff7f0e;stroke:#ff7f0e;stroke-linejoin:miter;" x="386.714286" xlink:href="#ma9475b1f4b" y="438.750961"/>
     <use style="fill:#ff7f0e;stroke:#ff7f0e;stroke-linejoin:miter;" x="391.142857" xlink:href="#ma9475b1f4b" y="438.488638"/>
     <use style="fill:#ff7f0e;stroke:#ff7f0e;stroke-linejoin:miter;" x="395.571429" xlink:href="#ma9475b1f4b" y="438.183338"/>
     <use style="fill:#ff7f0e;stroke:#ff7f0e;stroke-linejoin:miter;" x="400" xlink:href="#ma9475b1f4b" y="437.836523"/>
     <use style="fill:#ff7f0e;stroke:#ff7f0e;stroke-linejoin:miter;" x="404.428571" xlink:href="#ma9475b1f4b" y="437.445013"/>
     <use style="fill:#ff7f0e;stroke:#ff7f0e;stroke-linejoin:miter;" x="408.857143" xlink:href="#ma9475b1f4b" y="437.063498"/>
     <use style="fill:#ff7f0e;stroke:#ff7f0e;stroke-linejoin:miter;" x="413.285714" xlink:href="#ma9475b1f4b" y="436.67065"/>
     <use style="fill:#ff7f0e;stroke:#ff7f0e;stroke-linejoin:miter;" x="417.714286" xlink:href="#ma9475b1f4b" y="436.34714"/>
     <use style="fill:#ff7f0e;stroke:#ff7f0e;stroke-linejoin:miter;" x="422.142857" xlink:href="#ma9475b1f4b" y="435.984853"/>
     <use style="fill:#ff7f0e;stroke:#ff7f0e;stroke-linejoin:miter;" x="426.571429" xlink:href="#ma9475b1f4b" y="435.482174"/>
     <use style="fill:#ff7f0e;stroke:#ff7f0e;stroke-linejoin:miter;" x="431" xlink:href="#ma9475b1f4b" y="435.05609"/>
     <use style="fill:#ff7f0e;stroke:#ff7f0e;stroke-linejoin:miter;" x="435.428571" xlink:href="#ma9475b1f4b" y="434.574676"/>
     <use style="fill:#ff7f0e;stroke:#ff7f0e;stroke-linejoin:miter;" x="439.857143" xlink:href="#ma9475b1f4b" y="434.114846"/>
     <use style="fill:#ff7f0e;stroke:#ff7f0e;stroke-linejoin:miter;" x="444.285714" xlink:href="#ma9475b1f4b" y="433.730721"/>
     <use style="fill:#ff7f0e;stroke:#ff7f0e;stroke-linejoin:miter;" x="448.714286" xlink:href="#ma9475b1f4b" y="433.368881"/>
     <use style="fill:#ff7f0e;stroke:#ff7f0e;stroke-linejoin:miter;" x="453.142857" xlink:href="#ma9475b1f4b" y="433.005449"/>
     <use style="fill:#ff7f0e;stroke:#ff7f0e;stroke-linejoin:miter;" x="457.571429" xlink:href="#ma9475b1f4b" y="432.567522"/>
     <use style="fill:#ff7f0e;stroke:#ff7f0e;stroke-linejoin:miter;" x="462" xlink:href="#ma9475b1f4b" y="432.042494"/>
     <use style="fill:#ff7f0e;stroke:#ff7f0e;stroke-linejoin:miter;" x="466.428571" xlink:href="#ma9475b1f4b" y="431.579099"/>
     <use style="fill:#ff7f0e;stroke:#ff7f0e;stroke-linejoin:miter;" x="470.857143" xlink:href="#ma9475b1f4b" y="431.015104"/>
     <use style="fill:#ff7f0e;stroke:#ff7f0e;stroke-linejoin:miter;" x="475.285714" xlink:href="#ma9475b1f4b" y="430.606657"/>
     <use style="fill:#ff7f0e;stroke:#ff7f0e;stroke-linejoin:miter;" x="479.714286" xlink:href="#ma9475b1f4b" y="430.317847"/>
     <use style="fill:#ff7f0e;stroke:#ff7f0e;stroke-linejoin:miter;" x="484.142857" xlink:href="#ma9475b1f4b" y="429.977081"/>
     <use style="fill:#ff7f0e;stroke:#ff7f0e;stroke-linejoin:miter;" x="488.571429" xlink:href="#ma9475b1f4b" y="429.524256"/>
     <use style="fill:#ff7f0e;stroke:#ff7f0e;stroke-linejoin:miter;" x="493" xlink:href="#ma9475b1f4b" y="429.09919"/>
     <use style="fill:#ff7f0e;stroke:#ff7f0e;stroke-linejoin:miter;" x="497.428571" xlink:href="#ma9475b1f4b" y="428.669223"/>
     <use style="fill:#ff7f0e;stroke:#ff7f0e;stroke-linejoin:miter;" x="501.857143" xlink:href="#ma9475b1f4b" y="428.26606"/>
     <use style="fill:#ff7f0e;stroke:#ff7f0e;stroke-linejoin:miter;" x="506.285714" xlink:href="#ma9475b1f4b" y="427.871939"/>
     <use style="fill:#ff7f0e;stroke:#ff7f0e;stroke-linejoin:miter;" x="510.714286" xlink:href="#ma9475b1f4b" y="427.635529"/>
     <use style="fill:#ff7f0e;stroke:#ff7f0e;stroke-linejoin:miter;" x="515.142857" xlink:href="#ma9475b1f4b" y="427.34621"/>
     <use style="fill:#ff7f0e;stroke:#ff7f0e;stroke-linejoin:miter;" x="519.571429" xlink:href="#ma9475b1f4b" y="426.941456"/>
     <use style="fill:#ff7f0e;stroke:#ff7f0e;stroke-linejoin:miter;" x="524" xlink:href="#ma9475b1f4b" y="426.50442"/>
     <use style="fill:#ff7f0e;stroke:#ff7f0e;stroke-linejoin:miter;" x="528.428571" xlink:href="#ma9475b1f4b" y="426.141816"/>
     <use style="fill:#ff7f0e;stroke:#ff7f0e;stroke-linejoin:miter;" x="532.857143" xlink:href="#ma9475b1f4b" y="425.806972"/>
     <use style="fill:#ff7f0e;stroke:#ff7f0e;stroke-linejoin:miter;" x="537.285714" xlink:href="#ma9475b1f4b" y="425.476266"/>
     <use style="fill:#ff7f0e;stroke:#ff7f0e;stroke-linejoin:miter;" x="541.714286" xlink:href="#ma9475b1f4b" y="425.243423"/>
     <use style="fill:#ff7f0e;stroke:#ff7f0e;stroke-linejoin:miter;" x="546.142857" xlink:href="#ma9475b1f4b" y="424.984474"/>
     <use style="fill:#ff7f0e;stroke:#ff7f0e;stroke-linejoin:miter;" x="550.571429" xlink:href="#ma9475b1f4b" y="424.621424"/>
     <use style="fill:#ff7f0e;stroke:#ff7f0e;stroke-linejoin:miter;" x="555" xlink:href="#ma9475b1f4b" y="424.200179"/>
     <use style="fill:#ff7f0e;stroke:#ff7f0e;stroke-linejoin:miter;" x="559.428571" xlink:href="#ma9475b1f4b" y="423.836492"/>
     <use style="fill:#ff7f0e;stroke:#ff7f0e;stroke-linejoin:miter;" x="563.857143" xlink:href="#ma9475b1f4b" y="423.497064"/>
     <use style="fill:#ff7f0e;stroke:#ff7f0e;stroke-linejoin:miter;" x="568.285714" xlink:href="#ma9475b1f4b" y="423.216086"/>
     <use style="fill:#ff7f0e;stroke:#ff7f0e;stroke-linejoin:miter;" x="572.714286" xlink:href="#ma9475b1f4b" y="422.999733"/>
     <use style="fill:#ff7f0e;stroke:#ff7f0e;stroke-linejoin:miter;" x="577.142857" xlink:href="#ma9475b1f4b" y="422.769181"/>
     <use style="fill:#ff7f0e;stroke:#ff7f0e;stroke-linejoin:miter;" x="581.571429" xlink:href="#ma9475b1f4b" y="422.411862"/>
     <use style="fill:#ff7f0e;stroke:#ff7f0e;stroke-linejoin:miter;" x="586" xlink:href="#ma9475b1f4b" y="422.077272"/>
     <use style="fill:#ff7f0e;stroke:#ff7f0e;stroke-linejoin:miter;" x="590.428571" xlink:href="#ma9475b1f4b" y="421.744848"/>
     <use style="fill:#ff7f0e;stroke:#ff7f0e;stroke-linejoin:miter;" x="594.857143" xlink:href="#ma9475b1f4b" y="421.410704"/>
     <use style="fill:#ff7f0e;stroke:#ff7f0e;stroke-linejoin:miter;" x="599.285714" xlink:href="#ma9475b1f4b" y="421.148699"/>
     <use style="fill:#ff7f0e;stroke:#ff7f0e;stroke-linejoin:miter;" x="603.714286" xlink:href="#ma9475b1f4b" y="420.931964"/>
     <use style="fill:#ff7f0e;stroke:#ff7f0e;stroke-linejoin:miter;" x="608.142857" xlink:href="#ma9475b1f4b" y="420.722106"/>
     <use style="fill:#ff7f0e;stroke:#ff7f0e;stroke-linejoin:miter;" x="612.571429" xlink:href="#ma9475b1f4b" y="420.416232"/>
     <use style="fill:#ff7f0e;stroke:#ff7f0e;stroke-linejoin:miter;" x="617" xlink:href="#ma9475b1f4b" y="420.108703"/>
     <use style="fill:#ff7f0e;stroke:#ff7f0e;stroke-linejoin:miter;" x="621.428571" xlink:href="#ma9475b1f4b" y="419.802511"/>
     <use style="fill:#ff7f0e;stroke:#ff7f0e;stroke-linejoin:miter;" x="625.857143" xlink:href="#ma9475b1f4b" y="419.464483"/>
     <use style="fill:#ff7f0e;stroke:#ff7f0e;stroke-linejoin:miter;" x="630.285714" xlink:href="#ma9475b1f4b" y="419.211074"/>
     <use style="fill:#ff7f0e;stroke:#ff7f0e;stroke-linejoin:miter;" x="634.714286" xlink:href="#ma9475b1f4b" y="419.029931"/>
     <use style="fill:#ff7f0e;stroke:#ff7f0e;stroke-linejoin:miter;" x="639.142857" xlink:href="#ma9475b1f4b" y="418.955245"/>
     <use style="fill:#ff7f0e;stroke:#ff7f0e;stroke-linejoin:miter;" x="643.571429" xlink:href="#ma9475b1f4b" y="418.686491"/>
     <use style="fill:#ff7f0e;stroke:#ff7f0e;stroke-linejoin:miter;" x="648" xlink:href="#ma9475b1f4b" y="418.356932"/>
    </g>
   </g>
   <g id="patch_130">
    <path d="M 90 441 
L 90 60.48 
" style="fill:none;stroke:#000000;stroke-linecap:square;stroke-linejoin:miter;stroke-width:0.8;"/>
   </g>
   <g id="patch_131">
    <path d="M 648 441 
L 648 60.48 
" style="fill:none;stroke:#000000;stroke-linecap:square;stroke-linejoin:miter;stroke-width:0.8;"/>
   </g>
   <g id="patch_132">
    <path d="M 90 441 
L 648 441 
" style="fill:none;stroke:#000000;stroke-linecap:square;stroke-linejoin:miter;stroke-width:0.8;"/>
   </g>
   <g id="patch_133">
    <path d="M 90 60.48 
L 648 60.48 
" style="fill:none;stroke:#000000;stroke-linecap:square;stroke-linejoin:miter;stroke-width:0.8;"/>
   </g>
   <g id="legend_1">
    <g id="patch_134">
     <path d="M 100.5 116.514375 
L 324.328125 116.514375 
Q 327.328125 116.514375 327.328125 113.514375 
L 327.328125 70.98 
Q 327.328125 67.98 324.328125 67.98 
L 100.5 67.98 
Q 97.5 67.98 97.5 70.98 
L 97.5 113.514375 
Q 97.5 116.514375 100.5 116.514375 
z
" style="fill:#ffffff;opacity:0.8;stroke:#cccccc;stroke-linejoin:miter;"/>
    </g>
    <g id="line2d_33">
     <path d="M 103.5 80.127656 
L 133.5 80.127656 
" style="fill:none;stroke:#1f77b4;stroke-linecap:square;stroke-width:2;"/>
    </g>
    <g id="line2d_34">
     <g>
      <use style="fill:#1f77b4;stroke:#1f77b4;stroke-linejoin:miter;" x="118.5" xlink:href="#m6211cfcab9" y="80.127656"/>
     </g>
    </g>
    <g id="text_14">
     <!-- (ConfirmedCases, sum) -->
     <defs>
      <path d="M 31 75.875 
Q 24.46875 64.65625 21.28125 53.65625 
Q 18.109375 42.671875 18.109375 31.390625 
Q 18.109375 20.125 21.3125 9.0625 
Q 24.515625 -2 31 -13.1875 
L 23.1875 -13.1875 
Q 15.875 -1.703125 12.234375 9.375 
Q 8.59375 20.453125 8.59375 31.390625 
Q 8.59375 42.28125 12.203125 53.3125 
Q 15.828125 64.359375 23.1875 75.875 
z
" id="DejaVuSans-40"/>
      <path d="M 64.40625 67.28125 
L 64.40625 56.890625 
Q 59.421875 61.53125 53.78125 63.8125 
Q 48.140625 66.109375 41.796875 66.109375 
Q 29.296875 66.109375 22.65625 58.46875 
Q 16.015625 50.828125 16.015625 36.375 
Q 16.015625 21.96875 22.65625 14.328125 
Q 29.296875 6.6875 41.796875 6.6875 
Q 48.140625 6.6875 53.78125 8.984375 
Q 59.421875 11.28125 64.40625 15.921875 
L 64.40625 5.609375 
Q 59.234375 2.09375 53.4375 0.328125 
Q 47.65625 -1.421875 41.21875 -1.421875 
Q 24.65625 -1.421875 15.125 8.703125 
Q 5.609375 18.84375 5.609375 36.375 
Q 5.609375 53.953125 15.125 64.078125 
Q 24.65625 74.21875 41.21875 74.21875 
Q 47.75 74.21875 53.53125 72.484375 
Q 59.328125 70.75 64.40625 67.28125 
z
" id="DejaVuSans-67"/>
      <path d="M 54.890625 33.015625 
L 54.890625 0 
L 45.90625 0 
L 45.90625 32.71875 
Q 45.90625 40.484375 42.875 44.328125 
Q 39.84375 48.1875 33.796875 48.1875 
Q 26.515625 48.1875 22.3125 43.546875 
Q 18.109375 38.921875 18.109375 30.90625 
L 18.109375 0 
L 9.078125 0 
L 9.078125 54.6875 
L 18.109375 54.6875 
L 18.109375 46.1875 
Q 21.34375 51.125 25.703125 53.5625 
Q 30.078125 56 35.796875 56 
Q 45.21875 56 50.046875 50.171875 
Q 54.890625 44.34375 54.890625 33.015625 
z
" id="DejaVuSans-110"/>
      <path d="M 9.421875 54.6875 
L 18.40625 54.6875 
L 18.40625 0 
L 9.421875 0 
z
M 9.421875 75.984375 
L 18.40625 75.984375 
L 18.40625 64.59375 
L 9.421875 64.59375 
z
" id="DejaVuSans-105"/>
      <path d="M 45.40625 46.390625 
L 45.40625 75.984375 
L 54.390625 75.984375 
L 54.390625 0 
L 45.40625 0 
L 45.40625 8.203125 
Q 42.578125 3.328125 38.25 0.953125 
Q 33.9375 -1.421875 27.875 -1.421875 
Q 17.96875 -1.421875 11.734375 6.484375 
Q 5.515625 14.40625 5.515625 27.296875 
Q 5.515625 40.1875 11.734375 48.09375 
Q 17.96875 56 27.875 56 
Q 33.9375 56 38.25 53.625 
Q 42.578125 51.265625 45.40625 46.390625 
z
M 14.796875 27.296875 
Q 14.796875 17.390625 18.875 11.75 
Q 22.953125 6.109375 30.078125 6.109375 
Q 37.203125 6.109375 41.296875 11.75 
Q 45.40625 17.390625 45.40625 27.296875 
Q 45.40625 37.203125 41.296875 42.84375 
Q 37.203125 48.484375 30.078125 48.484375 
Q 22.953125 48.484375 18.875 42.84375 
Q 14.796875 37.203125 14.796875 27.296875 
z
" id="DejaVuSans-100"/>
      <path d="M 11.71875 12.40625 
L 22.015625 12.40625 
L 22.015625 4 
L 14.015625 -11.625 
L 7.71875 -11.625 
L 11.71875 4 
z
" id="DejaVuSans-44"/>
      <path d="M 8.015625 75.875 
L 15.828125 75.875 
Q 23.140625 64.359375 26.78125 53.3125 
Q 30.421875 42.28125 30.421875 31.390625 
Q 30.421875 20.453125 26.78125 9.375 
Q 23.140625 -1.703125 15.828125 -13.1875 
L 8.015625 -13.1875 
Q 14.5 -2 17.703125 9.0625 
Q 20.90625 20.125 20.90625 31.390625 
Q 20.90625 42.671875 17.703125 53.65625 
Q 14.5 64.65625 8.015625 75.875 
z
" id="DejaVuSans-41"/>
     </defs>
     <g transform="translate(145.5 85.377656)scale(0.15 -0.15)">
      <use xlink:href="#DejaVuSans-40"/>
      <use x="39.013672" xlink:href="#DejaVuSans-67"/>
      <use x="108.837891" xlink:href="#DejaVuSans-111"/>
      <use x="170.019531" xlink:href="#DejaVuSans-110"/>
      <use x="233.398438" xlink:href="#DejaVuSans-102"/>
      <use x="268.603516" xlink:href="#DejaVuSans-105"/>
      <use x="296.386719" xlink:href="#DejaVuSans-114"/>
      <use x="337.484375" xlink:href="#DejaVuSans-109"/>
      <use x="434.896484" xlink:href="#DejaVuSans-101"/>
      <use x="496.419922" xlink:href="#DejaVuSans-100"/>
      <use x="559.896484" xlink:href="#DejaVuSans-67"/>
      <use x="629.720703" xlink:href="#DejaVuSans-97"/>
      <use x="691" xlink:href="#DejaVuSans-115"/>
      <use x="743.099609" xlink:href="#DejaVuSans-101"/>
      <use x="804.623047" xlink:href="#DejaVuSans-115"/>
      <use x="856.722656" xlink:href="#DejaVuSans-44"/>
      <use x="888.509766" xlink:href="#DejaVuSans-32"/>
      <use x="920.296875" xlink:href="#DejaVuSans-115"/>
      <use x="972.396484" xlink:href="#DejaVuSans-117"/>
      <use x="1035.775391" xlink:href="#DejaVuSans-109"/>
      <use x="1133.1875" xlink:href="#DejaVuSans-41"/>
     </g>
    </g>
    <g id="line2d_35">
     <path d="M 103.5 102.144844 
L 133.5 102.144844 
" style="fill:none;stroke:#ff7f0e;stroke-linecap:square;stroke-width:2;"/>
    </g>
    <g id="line2d_36">
     <g>
      <use style="fill:#ff7f0e;stroke:#ff7f0e;stroke-linejoin:miter;" x="118.5" xlink:href="#ma9475b1f4b" y="102.144844"/>
     </g>
    </g>
    <g id="text_15">
     <!-- (Fatalities, sum) -->
     <defs>
      <path d="M 9.421875 75.984375 
L 18.40625 75.984375 
L 18.40625 0 
L 9.421875 0 
z
" id="DejaVuSans-108"/>
     </defs>
     <g transform="translate(145.5 107.394844)scale(0.15 -0.15)">
      <use xlink:href="#DejaVuSans-40"/>
      <use x="39.013672" xlink:href="#DejaVuSans-70"/>
      <use x="96.392578" xlink:href="#DejaVuSans-97"/>
      <use x="157.671875" xlink:href="#DejaVuSans-116"/>
      <use x="196.880859" xlink:href="#DejaVuSans-97"/>
      <use x="258.160156" xlink:href="#DejaVuSans-108"/>
      <use x="285.943359" xlink:href="#DejaVuSans-105"/>
      <use x="313.726562" xlink:href="#DejaVuSans-116"/>
      <use x="352.935547" xlink:href="#DejaVuSans-105"/>
      <use x="380.71875" xlink:href="#DejaVuSans-101"/>
      <use x="442.242188" xlink:href="#DejaVuSans-115"/>
      <use x="494.341797" xlink:href="#DejaVuSans-44"/>
      <use x="526.128906" xlink:href="#DejaVuSans-32"/>
      <use x="557.916016" xlink:href="#DejaVuSans-115"/>
      <use x="610.015625" xlink:href="#DejaVuSans-117"/>
      <use x="673.394531" xlink:href="#DejaVuSans-109"/>
      <use x="770.806641" xlink:href="#DejaVuSans-41"/>
     </g>
    </g>
   </g>
  </g>
 </g>
 <defs>
  <clipPath id="p29924cba32">
   <rect height="380.52" width="558" x="90" y="60.48"/>
  </clipPath>
 </defs>
</svg>
