<?xml version="1.0" encoding="utf-8" standalone="no"?>
<!DOCTYPE svg PUBLIC "-//W3C//DTD SVG 1.1//EN"
  "http://www.w3.org/Graphics/SVG/1.1/DTD/svg11.dtd">
<!-- Created with matplotlib (https://matplotlib.org/) -->
<svg height="288pt" version="1.1" viewBox="0 0 432 288" width="432pt" xmlns="http://www.w3.org/2000/svg" xmlns:xlink="http://www.w3.org/1999/xlink">
 <defs>
  <style type="text/css">
*{stroke-linecap:butt;stroke-linejoin:round;}
  </style>
 </defs>
 <g id="figure_1">
  <g id="patch_1">
   <path d="M 0 288 
L 432 288 
L 432 0 
L 0 0 
z
" style="fill:#ffffff;"/>
  </g>
  <g id="axes_1">
   <g id="patch_2">
    <path d="M 54 252 
L 388.8 252 
L 388.8 34.56 
L 54 34.56 
z
" style="fill:#ffffff;"/>
   </g>
   <g id="matplotlib.axis_1">
    <g id="xtick_1">
     <g id="line2d_1">
      <defs>
       <path d="M 0 0 
L 0 3.5 
" id="m7da03342d9" style="stroke:#000000;stroke-width:0.8;"/>
      </defs>
      <g>
       <use style="stroke:#000000;stroke-width:0.8;" x="79.2535" xlink:href="#m7da03342d9" y="252"/>
      </g>
     </g>
     <g id="text_1">
      <!-- −2 -->
      <defs>
       <path d="M 10.59375 35.5 
L 73.1875 35.5 
L 73.1875 27.203125 
L 10.59375 27.203125 
z
" id="DejaVuSans-8722"/>
       <path d="M 19.1875 8.296875 
L 53.609375 8.296875 
L 53.609375 0 
L 7.328125 0 
L 7.328125 8.296875 
Q 12.9375 14.109375 22.625 23.890625 
Q 32.328125 33.6875 34.8125 36.53125 
Q 39.546875 41.84375 41.421875 45.53125 
Q 43.3125 49.21875 43.3125 52.78125 
Q 43.3125 58.59375 39.234375 62.25 
Q 35.15625 65.921875 28.609375 65.921875 
Q 23.96875 65.921875 18.8125 64.3125 
Q 13.671875 62.703125 7.8125 59.421875 
L 7.8125 69.390625 
Q 13.765625 71.78125 18.9375 73 
Q 24.125 74.21875 28.421875 74.21875 
Q 39.75 74.21875 46.484375 68.546875 
Q 53.21875 62.890625 53.21875 53.421875 
Q 53.21875 48.921875 51.53125 44.890625 
Q 49.859375 40.875 45.40625 35.40625 
Q 44.1875 33.984375 37.640625 27.21875 
Q 31.109375 20.453125 19.1875 8.296875 
z
" id="DejaVuSans-50"/>
      </defs>
      <g transform="translate(68.196859 270.397656)scale(0.15 -0.15)">
       <use xlink:href="#DejaVuSans-8722"/>
       <use x="83.789062" xlink:href="#DejaVuSans-50"/>
      </g>
     </g>
    </g>
    <g id="xtick_2">
     <g id="line2d_2">
      <g>
       <use style="stroke:#000000;stroke-width:0.8;" x="150.32675" xlink:href="#m7da03342d9" y="252"/>
      </g>
     </g>
     <g id="text_2">
      <!-- −1 -->
      <defs>
       <path d="M 12.40625 8.296875 
L 28.515625 8.296875 
L 28.515625 63.921875 
L 10.984375 60.40625 
L 10.984375 69.390625 
L 28.421875 72.90625 
L 38.28125 72.90625 
L 38.28125 8.296875 
L 54.390625 8.296875 
L 54.390625 0 
L 12.40625 0 
z
" id="DejaVuSans-49"/>
      </defs>
      <g transform="translate(139.270109 270.397656)scale(0.15 -0.15)">
       <use xlink:href="#DejaVuSans-8722"/>
       <use x="83.789062" xlink:href="#DejaVuSans-49"/>
      </g>
     </g>
    </g>
    <g id="xtick_3">
     <g id="line2d_3">
      <g>
       <use style="stroke:#000000;stroke-width:0.8;" x="221.4" xlink:href="#m7da03342d9" y="252"/>
      </g>
     </g>
     <g id="text_3">
      <!-- 0 -->
      <defs>
       <path d="M 31.78125 66.40625 
Q 24.171875 66.40625 20.328125 58.90625 
Q 16.5 51.421875 16.5 36.375 
Q 16.5 21.390625 20.328125 13.890625 
Q 24.171875 6.390625 31.78125 6.390625 
Q 39.453125 6.390625 43.28125 13.890625 
Q 47.125 21.390625 47.125 36.375 
Q 47.125 51.421875 43.28125 58.90625 
Q 39.453125 66.40625 31.78125 66.40625 
z
M 31.78125 74.21875 
Q 44.046875 74.21875 50.515625 64.515625 
Q 56.984375 54.828125 56.984375 36.375 
Q 56.984375 17.96875 50.515625 8.265625 
Q 44.046875 -1.421875 31.78125 -1.421875 
Q 19.53125 -1.421875 13.0625 8.265625 
Q 6.59375 17.96875 6.59375 36.375 
Q 6.59375 54.828125 13.0625 64.515625 
Q 19.53125 74.21875 31.78125 74.21875 
z
" id="DejaVuSans-48"/>
      </defs>
      <g transform="translate(216.628125 270.397656)scale(0.15 -0.15)">
       <use xlink:href="#DejaVuSans-48"/>
      </g>
     </g>
    </g>
    <g id="xtick_4">
     <g id="line2d_4">
      <g>
       <use style="stroke:#000000;stroke-width:0.8;" x="292.47325" xlink:href="#m7da03342d9" y="252"/>
      </g>
     </g>
     <g id="text_4">
      <!-- 1 -->
      <g transform="translate(287.701375 270.397656)scale(0.15 -0.15)">
       <use xlink:href="#DejaVuSans-49"/>
      </g>
     </g>
    </g>
    <g id="xtick_5">
     <g id="line2d_5">
      <g>
       <use style="stroke:#000000;stroke-width:0.8;" x="363.5465" xlink:href="#m7da03342d9" y="252"/>
      </g>
     </g>
     <g id="text_5">
      <!-- 2 -->
      <g transform="translate(358.774625 270.397656)scale(0.15 -0.15)">
       <use xlink:href="#DejaVuSans-50"/>
      </g>
     </g>
    </g>
    <g id="text_6">
     <!-- Theoretical Quantiles -->
     <defs>
      <path d="M -0.296875 72.90625 
L 61.375 72.90625 
L 61.375 64.59375 
L 35.5 64.59375 
L 35.5 0 
L 25.59375 0 
L 25.59375 64.59375 
L -0.296875 64.59375 
z
" id="DejaVuSans-84"/>
      <path d="M 54.890625 33.015625 
L 54.890625 0 
L 45.90625 0 
L 45.90625 32.71875 
Q 45.90625 40.484375 42.875 44.328125 
Q 39.84375 48.1875 33.796875 48.1875 
Q 26.515625 48.1875 22.3125 43.546875 
Q 18.109375 38.921875 18.109375 30.90625 
L 18.109375 0 
L 9.078125 0 
L 9.078125 75.984375 
L 18.109375 75.984375 
L 18.109375 46.1875 
Q 21.34375 51.125 25.703125 53.5625 
Q 30.078125 56 35.796875 56 
Q 45.21875 56 50.046875 50.171875 
Q 54.890625 44.34375 54.890625 33.015625 
z
" id="DejaVuSans-104"/>
      <path d="M 56.203125 29.59375 
L 56.203125 25.203125 
L 14.890625 25.203125 
Q 15.484375 15.921875 20.484375 11.0625 
Q 25.484375 6.203125 34.421875 6.203125 
Q 39.59375 6.203125 44.453125 7.46875 
Q 49.3125 8.734375 54.109375 11.28125 
L 54.109375 2.78125 
Q 49.265625 0.734375 44.1875 -0.34375 
Q 39.109375 -1.421875 33.890625 -1.421875 
Q 20.796875 -1.421875 13.15625 6.1875 
Q 5.515625 13.8125 5.515625 26.8125 
Q 5.515625 40.234375 12.765625 48.109375 
Q 20.015625 56 32.328125 56 
Q 43.359375 56 49.78125 48.890625 
Q 56.203125 41.796875 56.203125 29.59375 
z
M 47.21875 32.234375 
Q 47.125 39.59375 43.09375 43.984375 
Q 39.0625 48.390625 32.421875 48.390625 
Q 24.90625 48.390625 20.390625 44.140625 
Q 15.875 39.890625 15.1875 32.171875 
z
" id="DejaVuSans-101"/>
      <path d="M 30.609375 48.390625 
Q 23.390625 48.390625 19.1875 42.75 
Q 14.984375 37.109375 14.984375 27.296875 
Q 14.984375 17.484375 19.15625 11.84375 
Q 23.34375 6.203125 30.609375 6.203125 
Q 37.796875 6.203125 41.984375 11.859375 
Q 46.1875 17.53125 46.1875 27.296875 
Q 46.1875 37.015625 41.984375 42.703125 
Q 37.796875 48.390625 30.609375 48.390625 
z
M 30.609375 56 
Q 42.328125 56 49.015625 48.375 
Q 55.71875 40.765625 55.71875 27.296875 
Q 55.71875 13.875 49.015625 6.21875 
Q 42.328125 -1.421875 30.609375 -1.421875 
Q 18.84375 -1.421875 12.171875 6.21875 
Q 5.515625 13.875 5.515625 27.296875 
Q 5.515625 40.765625 12.171875 48.375 
Q 18.84375 56 30.609375 56 
z
" id="DejaVuSans-111"/>
      <path d="M 41.109375 46.296875 
Q 39.59375 47.171875 37.8125 47.578125 
Q 36.03125 48 33.890625 48 
Q 26.265625 48 22.1875 43.046875 
Q 18.109375 38.09375 18.109375 28.8125 
L 18.109375 0 
L 9.078125 0 
L 9.078125 54.6875 
L 18.109375 54.6875 
L 18.109375 46.1875 
Q 20.953125 51.171875 25.484375 53.578125 
Q 30.03125 56 36.53125 56 
Q 37.453125 56 38.578125 55.875 
Q 39.703125 55.765625 41.0625 55.515625 
z
" id="DejaVuSans-114"/>
      <path d="M 18.3125 70.21875 
L 18.3125 54.6875 
L 36.8125 54.6875 
L 36.8125 47.703125 
L 18.3125 47.703125 
L 18.3125 18.015625 
Q 18.3125 11.328125 20.140625 9.421875 
Q 21.96875 7.515625 27.59375 7.515625 
L 36.8125 7.515625 
L 36.8125 0 
L 27.59375 0 
Q 17.1875 0 13.234375 3.875 
Q 9.28125 7.765625 9.28125 18.015625 
L 9.28125 47.703125 
L 2.6875 47.703125 
L 2.6875 54.6875 
L 9.28125 54.6875 
L 9.28125 70.21875 
z
" id="DejaVuSans-116"/>
      <path d="M 9.421875 54.6875 
L 18.40625 54.6875 
L 18.40625 0 
L 9.421875 0 
z
M 9.421875 75.984375 
L 18.40625 75.984375 
L 18.40625 64.59375 
L 9.421875 64.59375 
z
" id="DejaVuSans-105"/>
      <path d="M 48.78125 52.59375 
L 48.78125 44.1875 
Q 44.96875 46.296875 41.140625 47.34375 
Q 37.3125 48.390625 33.40625 48.390625 
Q 24.65625 48.390625 19.8125 42.84375 
Q 14.984375 37.3125 14.984375 27.296875 
Q 14.984375 17.28125 19.8125 11.734375 
Q 24.65625 6.203125 33.40625 6.203125 
Q 37.3125 6.203125 41.140625 7.25 
Q 44.96875 8.296875 48.78125 10.40625 
L 48.78125 2.09375 
Q 45.015625 0.34375 40.984375 -0.53125 
Q 36.96875 -1.421875 32.421875 -1.421875 
Q 20.0625 -1.421875 12.78125 6.34375 
Q 5.515625 14.109375 5.515625 27.296875 
Q 5.515625 40.671875 12.859375 48.328125 
Q 20.21875 56 33.015625 56 
Q 37.15625 56 41.109375 55.140625 
Q 45.0625 54.296875 48.78125 52.59375 
z
" id="DejaVuSans-99"/>
      <path d="M 34.28125 27.484375 
Q 23.390625 27.484375 19.1875 25 
Q 14.984375 22.515625 14.984375 16.5 
Q 14.984375 11.71875 18.140625 8.90625 
Q 21.296875 6.109375 26.703125 6.109375 
Q 34.1875 6.109375 38.703125 11.40625 
Q 43.21875 16.703125 43.21875 25.484375 
L 43.21875 27.484375 
z
M 52.203125 31.203125 
L 52.203125 0 
L 43.21875 0 
L 43.21875 8.296875 
Q 40.140625 3.328125 35.546875 0.953125 
Q 30.953125 -1.421875 24.3125 -1.421875 
Q 15.921875 -1.421875 10.953125 3.296875 
Q 6 8.015625 6 15.921875 
Q 6 25.140625 12.171875 29.828125 
Q 18.359375 34.515625 30.609375 34.515625 
L 43.21875 34.515625 
L 43.21875 35.40625 
Q 43.21875 41.609375 39.140625 45 
Q 35.0625 48.390625 27.6875 48.390625 
Q 23 48.390625 18.546875 47.265625 
Q 14.109375 46.140625 10.015625 43.890625 
L 10.015625 52.203125 
Q 14.9375 54.109375 19.578125 55.046875 
Q 24.21875 56 28.609375 56 
Q 40.484375 56 46.34375 49.84375 
Q 52.203125 43.703125 52.203125 31.203125 
z
" id="DejaVuSans-97"/>
      <path d="M 9.421875 75.984375 
L 18.40625 75.984375 
L 18.40625 0 
L 9.421875 0 
z
" id="DejaVuSans-108"/>
      <path id="DejaVuSans-32"/>
      <path d="M 39.40625 66.21875 
Q 28.65625 66.21875 22.328125 58.203125 
Q 16.015625 50.203125 16.015625 36.375 
Q 16.015625 22.609375 22.328125 14.59375 
Q 28.65625 6.59375 39.40625 6.59375 
Q 50.140625 6.59375 56.421875 14.59375 
Q 62.703125 22.609375 62.703125 36.375 
Q 62.703125 50.203125 56.421875 58.203125 
Q 50.140625 66.21875 39.40625 66.21875 
z
M 53.21875 1.3125 
L 66.21875 -12.890625 
L 54.296875 -12.890625 
L 43.5 -1.21875 
Q 41.890625 -1.3125 41.03125 -1.359375 
Q 40.1875 -1.421875 39.40625 -1.421875 
Q 24.03125 -1.421875 14.8125 8.859375 
Q 5.609375 19.140625 5.609375 36.375 
Q 5.609375 53.65625 14.8125 63.9375 
Q 24.03125 74.21875 39.40625 74.21875 
Q 54.734375 74.21875 63.90625 63.9375 
Q 73.09375 53.65625 73.09375 36.375 
Q 73.09375 23.6875 67.984375 14.640625 
Q 62.890625 5.609375 53.21875 1.3125 
z
" id="DejaVuSans-81"/>
      <path d="M 8.5 21.578125 
L 8.5 54.6875 
L 17.484375 54.6875 
L 17.484375 21.921875 
Q 17.484375 14.15625 20.5 10.265625 
Q 23.53125 6.390625 29.59375 6.390625 
Q 36.859375 6.390625 41.078125 11.03125 
Q 45.3125 15.671875 45.3125 23.6875 
L 45.3125 54.6875 
L 54.296875 54.6875 
L 54.296875 0 
L 45.3125 0 
L 45.3125 8.40625 
Q 42.046875 3.421875 37.71875 1 
Q 33.40625 -1.421875 27.6875 -1.421875 
Q 18.265625 -1.421875 13.375 4.4375 
Q 8.5 10.296875 8.5 21.578125 
z
M 31.109375 56 
z
" id="DejaVuSans-117"/>
      <path d="M 54.890625 33.015625 
L 54.890625 0 
L 45.90625 0 
L 45.90625 32.71875 
Q 45.90625 40.484375 42.875 44.328125 
Q 39.84375 48.1875 33.796875 48.1875 
Q 26.515625 48.1875 22.3125 43.546875 
Q 18.109375 38.921875 18.109375 30.90625 
L 18.109375 0 
L 9.078125 0 
L 9.078125 54.6875 
L 18.109375 54.6875 
L 18.109375 46.1875 
Q 21.34375 51.125 25.703125 53.5625 
Q 30.078125 56 35.796875 56 
Q 45.21875 56 50.046875 50.171875 
Q 54.890625 44.34375 54.890625 33.015625 
z
" id="DejaVuSans-110"/>
      <path d="M 44.28125 53.078125 
L 44.28125 44.578125 
Q 40.484375 46.53125 36.375 47.5 
Q 32.28125 48.484375 27.875 48.484375 
Q 21.1875 48.484375 17.84375 46.4375 
Q 14.5 44.390625 14.5 40.28125 
Q 14.5 37.15625 16.890625 35.375 
Q 19.28125 33.59375 26.515625 31.984375 
L 29.59375 31.296875 
Q 39.15625 29.25 43.1875 25.515625 
Q 47.21875 21.78125 47.21875 15.09375 
Q 47.21875 7.46875 41.1875 3.015625 
Q 35.15625 -1.421875 24.609375 -1.421875 
Q 20.21875 -1.421875 15.453125 -0.5625 
Q 10.6875 0.296875 5.421875 2 
L 5.421875 11.28125 
Q 10.40625 8.6875 15.234375 7.390625 
Q 20.0625 6.109375 24.8125 6.109375 
Q 31.15625 6.109375 34.5625 8.28125 
Q 37.984375 10.453125 37.984375 14.40625 
Q 37.984375 18.0625 35.515625 20.015625 
Q 33.0625 21.96875 24.703125 23.78125 
L 21.578125 24.515625 
Q 13.234375 26.265625 9.515625 29.90625 
Q 5.8125 33.546875 5.8125 39.890625 
Q 5.8125 47.609375 11.28125 51.796875 
Q 16.75 56 26.8125 56 
Q 31.78125 56 36.171875 55.265625 
Q 40.578125 54.546875 44.28125 53.078125 
z
" id="DejaVuSans-115"/>
     </defs>
     <g transform="translate(141.319922 288.914844)scale(0.15 -0.15)">
      <use xlink:href="#DejaVuSans-84"/>
      <use x="61.083984" xlink:href="#DejaVuSans-104"/>
      <use x="124.462891" xlink:href="#DejaVuSans-101"/>
      <use x="185.986328" xlink:href="#DejaVuSans-111"/>
      <use x="247.167969" xlink:href="#DejaVuSans-114"/>
      <use x="288.25" xlink:href="#DejaVuSans-101"/>
      <use x="349.773438" xlink:href="#DejaVuSans-116"/>
      <use x="388.982422" xlink:href="#DejaVuSans-105"/>
      <use x="416.765625" xlink:href="#DejaVuSans-99"/>
      <use x="471.746094" xlink:href="#DejaVuSans-97"/>
      <use x="533.025391" xlink:href="#DejaVuSans-108"/>
      <use x="560.808594" xlink:href="#DejaVuSans-32"/>
      <use x="592.595703" xlink:href="#DejaVuSans-81"/>
      <use x="671.306641" xlink:href="#DejaVuSans-117"/>
      <use x="734.685547" xlink:href="#DejaVuSans-97"/>
      <use x="795.964844" xlink:href="#DejaVuSans-110"/>
      <use x="859.34375" xlink:href="#DejaVuSans-116"/>
      <use x="898.552734" xlink:href="#DejaVuSans-105"/>
      <use x="926.335938" xlink:href="#DejaVuSans-108"/>
      <use x="954.119141" xlink:href="#DejaVuSans-101"/>
      <use x="1015.642578" xlink:href="#DejaVuSans-115"/>
     </g>
    </g>
   </g>
   <g id="matplotlib.axis_2">
    <g id="ytick_1">
     <g id="line2d_6">
      <defs>
       <path d="M 0 0 
L -3.5 0 
" id="m74db4e9e31" style="stroke:#000000;stroke-width:0.8;"/>
      </defs>
      <g>
       <use style="stroke:#000000;stroke-width:0.8;" x="54" xlink:href="#m74db4e9e31" y="230.20693"/>
      </g>
     </g>
     <g id="text_7">
      <!-- −20000 -->
      <g transform="translate(-13.288281 235.905758)scale(0.15 -0.15)">
       <use xlink:href="#DejaVuSans-8722"/>
       <use x="83.789062" xlink:href="#DejaVuSans-50"/>
       <use x="147.412109" xlink:href="#DejaVuSans-48"/>
       <use x="211.035156" xlink:href="#DejaVuSans-48"/>
       <use x="274.658203" xlink:href="#DejaVuSans-48"/>
       <use x="338.28125" xlink:href="#DejaVuSans-48"/>
      </g>
     </g>
    </g>
    <g id="ytick_2">
     <g id="line2d_7">
      <g>
       <use style="stroke:#000000;stroke-width:0.8;" x="54" xlink:href="#m74db4e9e31" y="183.513378"/>
      </g>
     </g>
     <g id="text_8">
      <!-- 0 -->
      <g transform="translate(37.45625 189.212206)scale(0.15 -0.15)">
       <use xlink:href="#DejaVuSans-48"/>
      </g>
     </g>
    </g>
    <g id="ytick_3">
     <g id="line2d_8">
      <g>
       <use style="stroke:#000000;stroke-width:0.8;" x="54" xlink:href="#m74db4e9e31" y="136.819825"/>
      </g>
     </g>
     <g id="text_9">
      <!-- 20000 -->
      <g transform="translate(-0.71875 142.518654)scale(0.15 -0.15)">
       <use xlink:href="#DejaVuSans-50"/>
       <use x="63.623047" xlink:href="#DejaVuSans-48"/>
       <use x="127.246094" xlink:href="#DejaVuSans-48"/>
       <use x="190.869141" xlink:href="#DejaVuSans-48"/>
       <use x="254.492188" xlink:href="#DejaVuSans-48"/>
      </g>
     </g>
    </g>
    <g id="ytick_4">
     <g id="line2d_9">
      <g>
       <use style="stroke:#000000;stroke-width:0.8;" x="54" xlink:href="#m74db4e9e31" y="90.126273"/>
      </g>
     </g>
     <g id="text_10">
      <!-- 40000 -->
      <defs>
       <path d="M 37.796875 64.3125 
L 12.890625 25.390625 
L 37.796875 25.390625 
z
M 35.203125 72.90625 
L 47.609375 72.90625 
L 47.609375 25.390625 
L 58.015625 25.390625 
L 58.015625 17.1875 
L 47.609375 17.1875 
L 47.609375 0 
L 37.796875 0 
L 37.796875 17.1875 
L 4.890625 17.1875 
L 4.890625 26.703125 
z
" id="DejaVuSans-52"/>
      </defs>
      <g transform="translate(-0.71875 95.825101)scale(0.15 -0.15)">
       <use xlink:href="#DejaVuSans-52"/>
       <use x="63.623047" xlink:href="#DejaVuSans-48"/>
       <use x="127.246094" xlink:href="#DejaVuSans-48"/>
       <use x="190.869141" xlink:href="#DejaVuSans-48"/>
       <use x="254.492188" xlink:href="#DejaVuSans-48"/>
      </g>
     </g>
    </g>
    <g id="ytick_5">
     <g id="line2d_10">
      <g>
       <use style="stroke:#000000;stroke-width:0.8;" x="54" xlink:href="#m74db4e9e31" y="43.432721"/>
      </g>
     </g>
     <g id="text_11">
      <!-- 60000 -->
      <defs>
       <path d="M 33.015625 40.375 
Q 26.375 40.375 22.484375 35.828125 
Q 18.609375 31.296875 18.609375 23.390625 
Q 18.609375 15.53125 22.484375 10.953125 
Q 26.375 6.390625 33.015625 6.390625 
Q 39.65625 6.390625 43.53125 10.953125 
Q 47.40625 15.53125 47.40625 23.390625 
Q 47.40625 31.296875 43.53125 35.828125 
Q 39.65625 40.375 33.015625 40.375 
z
M 52.59375 71.296875 
L 52.59375 62.3125 
Q 48.875 64.0625 45.09375 64.984375 
Q 41.3125 65.921875 37.59375 65.921875 
Q 27.828125 65.921875 22.671875 59.328125 
Q 17.53125 52.734375 16.796875 39.40625 
Q 19.671875 43.65625 24.015625 45.921875 
Q 28.375 48.1875 33.59375 48.1875 
Q 44.578125 48.1875 50.953125 41.515625 
Q 57.328125 34.859375 57.328125 23.390625 
Q 57.328125 12.15625 50.6875 5.359375 
Q 44.046875 -1.421875 33.015625 -1.421875 
Q 20.359375 -1.421875 13.671875 8.265625 
Q 6.984375 17.96875 6.984375 36.375 
Q 6.984375 53.65625 15.1875 63.9375 
Q 23.390625 74.21875 37.203125 74.21875 
Q 40.921875 74.21875 44.703125 73.484375 
Q 48.484375 72.75 52.59375 71.296875 
z
" id="DejaVuSans-54"/>
      </defs>
      <g transform="translate(-0.71875 49.131549)scale(0.15 -0.15)">
       <use xlink:href="#DejaVuSans-54"/>
       <use x="63.623047" xlink:href="#DejaVuSans-48"/>
       <use x="127.246094" xlink:href="#DejaVuSans-48"/>
       <use x="190.869141" xlink:href="#DejaVuSans-48"/>
       <use x="254.492188" xlink:href="#DejaVuSans-48"/>
      </g>
     </g>
    </g>
    <g id="text_12">
     <!-- Sample Quantiles -->
     <defs>
      <path d="M 53.515625 70.515625 
L 53.515625 60.890625 
Q 47.90625 63.578125 42.921875 64.890625 
Q 37.9375 66.21875 33.296875 66.21875 
Q 25.25 66.21875 20.875 63.09375 
Q 16.5 59.96875 16.5 54.203125 
Q 16.5 49.359375 19.40625 46.890625 
Q 22.3125 44.4375 30.421875 42.921875 
L 36.375 41.703125 
Q 47.40625 39.59375 52.65625 34.296875 
Q 57.90625 29 57.90625 20.125 
Q 57.90625 9.515625 50.796875 4.046875 
Q 43.703125 -1.421875 29.984375 -1.421875 
Q 24.8125 -1.421875 18.96875 -0.25 
Q 13.140625 0.921875 6.890625 3.21875 
L 6.890625 13.375 
Q 12.890625 10.015625 18.65625 8.296875 
Q 24.421875 6.59375 29.984375 6.59375 
Q 38.421875 6.59375 43.015625 9.90625 
Q 47.609375 13.234375 47.609375 19.390625 
Q 47.609375 24.75 44.3125 27.78125 
Q 41.015625 30.8125 33.5 32.328125 
L 27.484375 33.5 
Q 16.453125 35.6875 11.515625 40.375 
Q 6.59375 45.0625 6.59375 53.421875 
Q 6.59375 63.09375 13.40625 68.65625 
Q 20.21875 74.21875 32.171875 74.21875 
Q 37.3125 74.21875 42.625 73.28125 
Q 47.953125 72.359375 53.515625 70.515625 
z
" id="DejaVuSans-83"/>
      <path d="M 52 44.1875 
Q 55.375 50.25 60.0625 53.125 
Q 64.75 56 71.09375 56 
Q 79.640625 56 84.28125 50.015625 
Q 88.921875 44.046875 88.921875 33.015625 
L 88.921875 0 
L 79.890625 0 
L 79.890625 32.71875 
Q 79.890625 40.578125 77.09375 44.375 
Q 74.3125 48.1875 68.609375 48.1875 
Q 61.625 48.1875 57.5625 43.546875 
Q 53.515625 38.921875 53.515625 30.90625 
L 53.515625 0 
L 44.484375 0 
L 44.484375 32.71875 
Q 44.484375 40.625 41.703125 44.40625 
Q 38.921875 48.1875 33.109375 48.1875 
Q 26.21875 48.1875 22.15625 43.53125 
Q 18.109375 38.875 18.109375 30.90625 
L 18.109375 0 
L 9.078125 0 
L 9.078125 54.6875 
L 18.109375 54.6875 
L 18.109375 46.1875 
Q 21.1875 51.21875 25.484375 53.609375 
Q 29.78125 56 35.6875 56 
Q 41.65625 56 45.828125 52.96875 
Q 50 49.953125 52 44.1875 
z
" id="DejaVuSans-109"/>
      <path d="M 18.109375 8.203125 
L 18.109375 -20.796875 
L 9.078125 -20.796875 
L 9.078125 54.6875 
L 18.109375 54.6875 
L 18.109375 46.390625 
Q 20.953125 51.265625 25.265625 53.625 
Q 29.59375 56 35.59375 56 
Q 45.5625 56 51.78125 48.09375 
Q 58.015625 40.1875 58.015625 27.296875 
Q 58.015625 14.40625 51.78125 6.484375 
Q 45.5625 -1.421875 35.59375 -1.421875 
Q 29.59375 -1.421875 25.265625 0.953125 
Q 20.953125 3.328125 18.109375 8.203125 
z
M 48.6875 27.296875 
Q 48.6875 37.203125 44.609375 42.84375 
Q 40.53125 48.484375 33.40625 48.484375 
Q 26.265625 48.484375 22.1875 42.84375 
Q 18.109375 37.203125 18.109375 27.296875 
Q 18.109375 17.390625 22.1875 11.75 
Q 26.265625 6.109375 33.40625 6.109375 
Q 40.53125 6.109375 44.609375 11.75 
Q 48.6875 17.390625 48.6875 27.296875 
z
" id="DejaVuSans-112"/>
     </defs>
     <g transform="translate(-20.407812 209.421797)rotate(-90)scale(0.15 -0.15)">
      <use xlink:href="#DejaVuSans-83"/>
      <use x="63.476562" xlink:href="#DejaVuSans-97"/>
      <use x="124.755859" xlink:href="#DejaVuSans-109"/>
      <use x="222.167969" xlink:href="#DejaVuSans-112"/>
      <use x="285.644531" xlink:href="#DejaVuSans-108"/>
      <use x="313.427734" xlink:href="#DejaVuSans-101"/>
      <use x="374.951172" xlink:href="#DejaVuSans-32"/>
      <use x="406.738281" xlink:href="#DejaVuSans-81"/>
      <use x="485.449219" xlink:href="#DejaVuSans-117"/>
      <use x="548.828125" xlink:href="#DejaVuSans-97"/>
      <use x="610.107422" xlink:href="#DejaVuSans-110"/>
      <use x="673.486328" xlink:href="#DejaVuSans-116"/>
      <use x="712.695312" xlink:href="#DejaVuSans-105"/>
      <use x="740.478516" xlink:href="#DejaVuSans-108"/>
      <use x="768.261719" xlink:href="#DejaVuSans-101"/>
      <use x="829.785156" xlink:href="#DejaVuSans-115"/>
     </g>
    </g>
   </g>
   <g id="line2d_11">
    <defs>
     <path d="M 0 3 
C 0.795609 3 1.55874 2.683901 2.12132 2.12132 
C 2.683901 1.55874 3 0.795609 3 0 
C 3 -0.795609 2.683901 -1.55874 2.12132 -2.12132 
C 1.55874 -2.683901 0.795609 -3 0 -3 
C -0.795609 -3 -1.55874 -2.683901 -2.12132 -2.12132 
C -2.683901 -1.55874 -3 -0.795609 -3 0 
C -3 0.795609 -2.683901 1.55874 -2.12132 2.12132 
C -1.55874 2.683901 -0.795609 3 0 3 
z
" id="m6415b88779" style="stroke:#0000ff;"/>
    </defs>
    <g clip-path="url(#pc65242d3c9)">
     <use style="fill:#0000ff;stroke:#0000ff;" x="60.438462" xlink:href="#m6415b88779" y="183.511043"/>
     <use style="fill:#0000ff;stroke:#0000ff;" x="80.264843" xlink:href="#m6415b88779" y="183.504039"/>
     <use style="fill:#0000ff;stroke:#0000ff;" x="92.891222" xlink:href="#m6415b88779" y="183.501704"/>
     <use style="fill:#0000ff;stroke:#0000ff;" x="102.418695" xlink:href="#m6415b88779" y="183.501704"/>
     <use style="fill:#0000ff;stroke:#0000ff;" x="110.189804" xlink:href="#m6415b88779" y="183.501704"/>
     <use style="fill:#0000ff;stroke:#0000ff;" x="116.82111" xlink:href="#m6415b88779" y="183.501704"/>
     <use style="fill:#0000ff;stroke:#0000ff;" x="122.649594" xlink:href="#m6415b88779" y="183.501704"/>
     <use style="fill:#0000ff;stroke:#0000ff;" x="127.880572" xlink:href="#m6415b88779" y="183.49937"/>
     <use style="fill:#0000ff;stroke:#0000ff;" x="132.648868" xlink:href="#m6415b88779" y="183.49937"/>
     <use style="fill:#0000ff;stroke:#0000ff;" x="137.048033" xlink:href="#m6415b88779" y="183.497035"/>
     <use style="fill:#0000ff;stroke:#0000ff;" x="141.14578" xlink:href="#m6415b88779" y="183.497035"/>
     <use style="fill:#0000ff;stroke:#0000ff;" x="144.992797" xlink:href="#m6415b88779" y="183.497035"/>
     <use style="fill:#0000ff;stroke:#0000ff;" x="148.628075" xlink:href="#m6415b88779" y="183.4947"/>
     <use style="fill:#0000ff;stroke:#0000ff;" x="152.082301" xlink:href="#m6415b88779" y="183.485361"/>
     <use style="fill:#0000ff;stroke:#0000ff;" x="155.380094" xlink:href="#m6415b88779" y="183.452676"/>
     <use style="fill:#0000ff;stroke:#0000ff;" x="158.541535" xlink:href="#m6415b88779" y="183.417656"/>
     <use style="fill:#0000ff;stroke:#0000ff;" x="161.583244" xlink:href="#m6415b88779" y="183.38964"/>
     <use style="fill:#0000ff;stroke:#0000ff;" x="164.519146" xlink:href="#m6415b88779" y="183.321934"/>
     <use style="fill:#0000ff;stroke:#0000ff;" x="167.36105" xlink:href="#m6415b88779" y="183.296253"/>
     <use style="fill:#0000ff;stroke:#0000ff;" x="170.119066" xlink:href="#m6415b88779" y="183.237886"/>
     <use style="fill:#0000ff;stroke:#0000ff;" x="172.801932" xlink:href="#m6415b88779" y="183.13049"/>
     <use style="fill:#0000ff;stroke:#0000ff;" x="175.417267" xlink:href="#m6415b88779" y="183.039438"/>
     <use style="fill:#0000ff;stroke:#0000ff;" x="177.971763" xlink:href="#m6415b88779" y="182.927374"/>
     <use style="fill:#0000ff;stroke:#0000ff;" x="180.471345" xlink:href="#m6415b88779" y="182.775619"/>
     <use style="fill:#0000ff;stroke:#0000ff;" x="182.921292" xlink:href="#m6415b88779" y="182.656551"/>
     <use style="fill:#0000ff;stroke:#0000ff;" x="185.326341" xlink:href="#m6415b88779" y="182.567833"/>
     <use style="fill:#0000ff;stroke:#0000ff;" x="187.690767" xlink:href="#m6415b88779" y="182.404406"/>
     <use style="fill:#0000ff;stroke:#0000ff;" x="190.018456" xlink:href="#m6415b88779" y="182.147591"/>
     <use style="fill:#0000ff;stroke:#0000ff;" x="192.312956" xlink:href="#m6415b88779" y="181.839414"/>
     <use style="fill:#0000ff;stroke:#0000ff;" x="194.577528" xlink:href="#m6415b88779" y="181.533571"/>
     <use style="fill:#0000ff;stroke:#0000ff;" x="196.815186" xlink:href="#m6415b88779" y="181.195043"/>
     <use style="fill:#0000ff;stroke:#0000ff;" x="199.02873" xlink:href="#m6415b88779" y="180.95924"/>
     <use style="fill:#0000ff;stroke:#0000ff;" x="201.220781" xlink:href="#m6415b88779" y="180.676744"/>
     <use style="fill:#0000ff;stroke:#0000ff;" x="203.393798" xlink:href="#m6415b88779" y="180.296192"/>
     <use style="fill:#0000ff;stroke:#0000ff;" x="205.550109" xlink:href="#m6415b88779" y="179.988014"/>
     <use style="fill:#0000ff;stroke:#0000ff;" x="207.691925" xlink:href="#m6415b88779" y="179.572442"/>
     <use style="fill:#0000ff;stroke:#0000ff;" x="209.821361" xlink:href="#m6415b88779" y="179.100837"/>
     <use style="fill:#0000ff;stroke:#0000ff;" x="211.940452" xlink:href="#m6415b88779" y="178.510163"/>
     <use style="fill:#0000ff;stroke:#0000ff;" x="214.051164" xlink:href="#m6415b88779" y="177.819099"/>
     <use style="fill:#0000ff;stroke:#0000ff;" x="216.155414" xlink:href="#m6415b88779" y="177.0113"/>
     <use style="fill:#0000ff;stroke:#0000ff;" x="218.255076" xlink:href="#m6415b88779" y="176.086768"/>
     <use style="fill:#0000ff;stroke:#0000ff;" x="220.351996" xlink:href="#m6415b88779" y="175.479752"/>
     <use style="fill:#0000ff;stroke:#0000ff;" x="222.448004" xlink:href="#m6415b88779" y="174.538877"/>
     <use style="fill:#0000ff;stroke:#0000ff;" x="224.544924" xlink:href="#m6415b88779" y="173.663373"/>
     <use style="fill:#0000ff;stroke:#0000ff;" x="226.644586" xlink:href="#m6415b88779" y="172.631445"/>
     <use style="fill:#0000ff;stroke:#0000ff;" x="228.748836" xlink:href="#m6415b88779" y="171.807304"/>
     <use style="fill:#0000ff;stroke:#0000ff;" x="230.859548" xlink:href="#m6415b88779" y="170.908453"/>
     <use style="fill:#0000ff;stroke:#0000ff;" x="232.978639" xlink:href="#m6415b88779" y="169.862518"/>
     <use style="fill:#0000ff;stroke:#0000ff;" x="235.108075" xlink:href="#m6415b88779" y="168.811913"/>
     <use style="fill:#0000ff;stroke:#0000ff;" x="237.249891" xlink:href="#m6415b88779" y="167.462469"/>
     <use style="fill:#0000ff;stroke:#0000ff;" x="239.406202" xlink:href="#m6415b88779" y="166.0103"/>
     <use style="fill:#0000ff;stroke:#0000ff;" x="241.579219" xlink:href="#m6415b88779" y="164.226606"/>
     <use style="fill:#0000ff;stroke:#0000ff;" x="243.77127" xlink:href="#m6415b88779" y="163.033586"/>
     <use style="fill:#0000ff;stroke:#0000ff;" x="245.984814" xlink:href="#m6415b88779" y="161.331606"/>
     <use style="fill:#0000ff;stroke:#0000ff;" x="248.222472" xlink:href="#m6415b88779" y="158.896537"/>
     <use style="fill:#0000ff;stroke:#0000ff;" x="250.487044" xlink:href="#m6415b88779" y="156.354073"/>
     <use style="fill:#0000ff;stroke:#0000ff;" x="252.781544" xlink:href="#m6415b88779" y="153.461407"/>
     <use style="fill:#0000ff;stroke:#0000ff;" x="255.109233" xlink:href="#m6415b88779" y="151.19677"/>
     <use style="fill:#0000ff;stroke:#0000ff;" x="257.473659" xlink:href="#m6415b88779" y="149.247314"/>
     <use style="fill:#0000ff;stroke:#0000ff;" x="259.878708" xlink:href="#m6415b88779" y="147.258169"/>
     <use style="fill:#0000ff;stroke:#0000ff;" x="262.328655" xlink:href="#m6415b88779" y="144.402858"/>
     <use style="fill:#0000ff;stroke:#0000ff;" x="264.828237" xlink:href="#m6415b88779" y="141.958451"/>
     <use style="fill:#0000ff;stroke:#0000ff;" x="267.382733" xlink:href="#m6415b88779" y="138.631535"/>
     <use style="fill:#0000ff;stroke:#0000ff;" x="269.998068" xlink:href="#m6415b88779" y="135.094499"/>
     <use style="fill:#0000ff;stroke:#0000ff;" x="272.680934" xlink:href="#m6415b88779" y="131.945019"/>
     <use style="fill:#0000ff;stroke:#0000ff;" x="275.43895" xlink:href="#m6415b88779" y="128.716159"/>
     <use style="fill:#0000ff;stroke:#0000ff;" x="278.280854" xlink:href="#m6415b88779" y="125.368232"/>
     <use style="fill:#0000ff;stroke:#0000ff;" x="281.216756" xlink:href="#m6415b88779" y="122.753393"/>
     <use style="fill:#0000ff;stroke:#0000ff;" x="284.258465" xlink:href="#m6415b88779" y="118.996897"/>
     <use style="fill:#0000ff;stroke:#0000ff;" x="287.419906" xlink:href="#m6415b88779" y="114.369565"/>
     <use style="fill:#0000ff;stroke:#0000ff;" x="290.717699" xlink:href="#m6415b88779" y="109.91967"/>
     <use style="fill:#0000ff;stroke:#0000ff;" x="294.171925" xlink:href="#m6415b88779" y="105.395065"/>
     <use style="fill:#0000ff;stroke:#0000ff;" x="297.807203" xlink:href="#m6415b88779" y="101.748298"/>
     <use style="fill:#0000ff;stroke:#0000ff;" x="301.65422" xlink:href="#m6415b88779" y="98.701544"/>
     <use style="fill:#0000ff;stroke:#0000ff;" x="305.751967" xlink:href="#m6415b88779" y="94.039193"/>
     <use style="fill:#0000ff;stroke:#0000ff;" x="310.151132" xlink:href="#m6415b88779" y="89.692023"/>
     <use style="fill:#0000ff;stroke:#0000ff;" x="314.919428" xlink:href="#m6415b88779" y="84.067785"/>
     <use style="fill:#0000ff;stroke:#0000ff;" x="320.150406" xlink:href="#m6415b88779" y="78.378175"/>
     <use style="fill:#0000ff;stroke:#0000ff;" x="325.97889" xlink:href="#m6415b88779" y="73.447336"/>
     <use style="fill:#0000ff;stroke:#0000ff;" x="332.610196" xlink:href="#m6415b88779" y="68.60288"/>
     <use style="fill:#0000ff;stroke:#0000ff;" x="340.381305" xlink:href="#m6415b88779" y="62.966969"/>
     <use style="fill:#0000ff;stroke:#0000ff;" x="349.908778" xlink:href="#m6415b88779" y="56.632988"/>
     <use style="fill:#0000ff;stroke:#0000ff;" x="362.535157" xlink:href="#m6415b88779" y="51.384633"/>
     <use style="fill:#0000ff;stroke:#0000ff;" x="382.361538" xlink:href="#m6415b88779" y="44.443636"/>
    </g>
   </g>
   <g id="line2d_12">
    <path clip-path="url(#pc65242d3c9)" d="M 60.438462 242.116364 
L 80.264843 231.361182 
L 92.891222 224.511773 
L 102.418695 219.343421 
L 110.189804 215.127842 
L 116.82111 211.530569 
L 122.649594 208.368801 
L 127.880572 205.531162 
L 132.648868 202.944513 
L 137.048033 200.558106 
L 141.14578 198.335208 
L 144.992797 196.248324 
L 148.628075 194.276301 
L 152.082301 192.402493 
L 155.380094 190.613545 
L 158.541535 188.898564 
L 161.583244 187.248534 
L 164.519146 185.6559 
L 167.36105 184.114257 
L 170.119066 182.618121 
L 172.801932 181.162752 
L 175.417267 179.744016 
L 177.971763 178.358283 
L 180.471345 177.002339 
L 182.921292 175.673321 
L 185.326341 174.368658 
L 187.690767 173.086032 
L 190.018456 171.823335 
L 192.312956 170.578641 
L 194.577528 169.350183 
L 196.815186 168.136325 
L 199.02873 166.935548 
L 201.220781 165.74643 
L 203.393798 164.567637 
L 205.550109 163.397907 
L 207.691925 162.23604 
L 209.821361 161.080888 
L 211.940452 159.931349 
L 214.051164 158.786354 
L 216.155414 157.644866 
L 218.255076 156.505866 
L 220.351996 155.368354 
L 222.448004 154.231336 
L 224.544924 153.093823 
L 226.644586 151.954824 
L 228.748836 150.813335 
L 230.859548 149.66834 
L 232.978639 148.518801 
L 235.108075 147.36365 
L 237.249891 146.201782 
L 239.406202 145.032052 
L 241.579219 143.85326 
L 243.77127 142.664142 
L 245.984814 141.463364 
L 248.222472 140.249506 
L 250.487044 139.021048 
L 252.781544 137.776355 
L 255.109233 136.513657 
L 257.473659 135.231031 
L 259.878708 133.926368 
L 262.328655 132.59735 
L 264.828237 131.241406 
L 267.382733 129.855674 
L 269.998068 128.436938 
L 272.680934 126.981568 
L 275.43895 125.485432 
L 278.280854 123.943789 
L 281.216756 122.351155 
L 284.258465 120.701125 
L 287.419906 118.986144 
L 290.717699 117.197196 
L 294.171925 115.323389 
L 297.807203 113.351366 
L 301.65422 111.264481 
L 305.751967 109.041583 
L 310.151132 106.655176 
L 314.919428 104.068527 
L 320.150406 101.230888 
L 325.97889 98.06912 
L 332.610196 94.471848 
L 340.381305 90.256268 
L 349.908778 85.087917 
L 362.535157 78.238508 
L 382.361538 67.483326 
" style="fill:none;stroke:#ff0000;stroke-linecap:square;stroke-width:1.5;"/>
   </g>
   <g id="patch_3">
    <path d="M 54 252 
L 54 34.56 
" style="fill:none;stroke:#000000;stroke-linecap:square;stroke-linejoin:miter;stroke-width:0.8;"/>
   </g>
   <g id="patch_4">
    <path d="M 388.8 252 
L 388.8 34.56 
" style="fill:none;stroke:#000000;stroke-linecap:square;stroke-linejoin:miter;stroke-width:0.8;"/>
   </g>
   <g id="patch_5">
    <path d="M 54 252 
L 388.8 252 
" style="fill:none;stroke:#000000;stroke-linecap:square;stroke-linejoin:miter;stroke-width:0.8;"/>
   </g>
   <g id="patch_6">
    <path d="M 54 34.56 
L 388.8 34.56 
" style="fill:none;stroke:#000000;stroke-linecap:square;stroke-linejoin:miter;stroke-width:0.8;"/>
   </g>
  </g>
 </g>
 <defs>
  <clipPath id="pc65242d3c9">
   <rect height="217.44" width="334.8" x="54" y="34.56"/>
  </clipPath>
 </defs>
</svg>
